{
.appVersion = "3086";
classes = (
{
code = "A Aacute Abreve Abreveacute Abrevedotbelow Abrevegrave Abrevehookabove Abrevetilde Acaron Acircumflex Acircumflexacute Acircumflexdotbelow Acircumflexgrave Acircumflexhookabove Acircumflextilde Adblgrave Adieresis Adotbelow Agrave Ahookabove Ainvertedbreve Amacron Aogonek Aring Aringacute Atilde AE AEacute B C Cacute Ccaron Ccedilla Ccircumflex Cdotaccent D Eth Dcaron Dcroat E Eacute Ebreve Ecaron Ecircumflex Ecircumflexacute Ecircumflexdotbelow Ecircumflexgrave Ecircumflexhookabove Ecircumflextilde Edblgrave Edieresis Edotaccent Edotbelow Egrave Ehookabove Einvertedbreve Emacron Eogonek Etilde F G Gbreve Gcaron Gcircumflex Gcommaaccent Gdotaccent H Hbar Hcircumflex I Iacute Ibreve Icaron Icircumflex Idblgrave Idieresis Idotaccent Idotbelow Igrave Ihookabove Iinvertedbreve Imacron Iogonek Itilde J Jcircumflex K Kcommaaccent L Lacute Lcaron Lcommaaccent Ldot Lslash M M.ss01 N Nacute Ncaron Ncommaaccent Eng Ntilde O Oacute Obreve Ocaron Ocircumflex Ocircumflexacute Ocircumflexdotbelow Ocircumflexgrave Ocircumflexhookabove Ocircumflextilde Odblgrave Odieresis Odieresismacron Odotaccentmacron Odotbelow Ograve Ohookabove Ohorn Ohornacute Ohorndotbelow Ohorngrave Ohornhookabove Ohorntilde Ohungarumlaut Oinvertedbreve Omacron Oogonek Oslash Oslashacute Otilde Otildemacron OE P Thorn Q R Racute Rcaron Rcommaaccent Rdblgrave Rinvertedbreve S Sacute Scaron Scedilla Scircumflex Scommaaccent Germandbls T Tbar Tcaron Tcedilla Tcommaaccent U Uacute Ubreve Ucaron Ucircumflex Udblgrave Udieresis Udieresisacute Udieresiscaron Udieresisgrave Udieresismacron Udotbelow Ugrave Uhookabove Uhorn Uhornacute Uhorndotbelow Uhorngrave Uhornhookabove Uhorntilde Uhungarumlaut Uinvertedbreve Umacron Uogonek Uring Utilde V W Wacute Wcircumflex Wdieresis Wgrave X Y Yacute Ycircumflex Ydieresis Ydotbelow Ygrave Yhookabove Ymacron Ytilde Z Zacute Zcaron Zdotaccent zero one two three four five six seven eight nine zero.zero zero.ss01";
name = Uppercase;

glyphs = (
{
glyphname = A;
lastChange = "2020-07-09 19:56:06 +0000";
layers = (
{
anchors = (
{
name = bottom;
position = "{619, 0}";
},
{
name = ogonek;
position = "{1099, 0}";
},
{
name = top;
position = "{619, 1238}";
}
);
layerId = "5521DC30-183F-421A-91F3-644B5E24AFE6";
paths = (
{
closed = 1;
nodes = (
"355 -19 OFFCURVE",
"407 44 OFFCURVE",
"436 169 CURVE SMOOTH",
"608 916 LINE SMOOTH",
"627 999 OFFCURVE",
"632 1063 OFFCURVE",
"632 1102 CURVE",
"606 1102 LINE",
"606 1063 OFFCURVE",
"611 999 OFFCURVE",
"630 916 CURVE SMOOTH",
"802 169 LINE SMOOTH",
"831 44 OFFCURVE",
"883 -19 OFFCURVE",
"1010 -19 CURVE SMOOTH",
"1114 -19 OFFCURVE",
"1182 42 OFFCURVE",
"1182 146 CURVE SMOOTH",
"1182 167 OFFCURVE",
"1179 189 OFFCURVE",
"1173 212 CURVE SMOOTH",
"939 1056 LINE SMOOTH",
"905 1178 OFFCURVE",
"833 1238 OFFCURVE",
"717 1238 CURVE SMOOTH",
"521 1238 LINE SMOOTH",
"405 1238 OFFCURVE",
"333 1178 OFFCURVE",
"299 1056 CURVE SMOOTH",
"65 212 LINE SMOOTH",
"59 189 OFFCURVE",
"56 167 OFFCURVE",
"56 146 CURVE SMOOTH",
"56 42 OFFCURVE",
"124 -19 OFFCURVE",
"228 -19 CURVE SMOOTH"
);
},
{
closed = 1;
nodes = (
"879 250 LINE",
"812 517 LINE",
"431 517 LINE",
"374 250 LINE"
);
}
);
width = 1238;
},
{
anchors = (
{
name = bottom;
position = "{617, 0}";
},
{
name = ogonek;
position = "{1103, 0}";
},
{
name = top;
position = "{619, 1248}";
}
);
layerId = "BE68D89F-AB3F-4BDF-B332-ED50D7C47704";
paths = (
{
closed = 1;
nodes = (
"179 -19 OFFCURVE",
"187 -5 OFFCURVE",
"199 28 CURVE SMOOTH",
"610 1161 LINE SMOOTH",
"619 1186 OFFCURVE",
"622 1205 OFFCURVE",
"622 1216 CURVE",
"612 1216 LINE",
"612 1205 OFFCURVE",
"616 1186 OFFCURVE",
"625 1161 CURVE SMOOTH",
"1035 28 LINE SMOOTH",
"1047 -5 OFFCURVE",
"1053 -19 OFFCURVE",
"1075 -19 CURVE SMOOTH",
"1091 -19 OFFCURVE",
"1104 -12 OFFCURVE",
"1104 9 CURVE SMOOTH",
"1104 18 OFFCURVE",
"1102 30 OFFCURVE",
"1096 46 CURVE SMOOTH",
"676 1201 LINE SMOOTH",
"665 1232 OFFCURVE",
"648 1248 OFFCURVE",
"619 1248 CURVE SMOOTH",
"614 1248 LINE SMOOTH",
"587 1248 OFFCURVE",
"569 1232 OFFCURVE",
"558 1201 CURVE SMOOTH",
"138 46 LINE SMOOTH",
"132 30 OFFCURVE",
"130 18 OFFCURVE",
"130 9 CURVE SMOOTH",
"130 -11 OFFCURVE",
"143 -19 OFFCURVE",
"157 -19 CURVE SMOOTH"
);
},
{
closed = 1;
nodes = (
"924 389 LINE",
"905 450 LINE",
"330 450 LINE",
"310 389 LINE"
);
}
);
width = 1238;
}
);
leftKerningGroup = A;
rightKerningGroup = A;
unicode = 0041;
},
{
glyphname = Aogonek;
lastChange = "2020-07-09 19:56:12 +0000";
layers = (
{
components = (
{
name = A;
}
);
layerId = "5521DC30-183F-421A-91F3-644B5E24AFE6";
paths = (
{
closed = 1;
nodes = (
"1180 -488 OFFCURVE",
"1288 -444 OFFCURVE",
"1288 -350 CURVE SMOOTH",
"1288 -297 OFFCURVE",
"1267 -259 OFFCURVE",
"1208 -259 CURVE SMOOTH",
"1189 -259 OFFCURVE",
"1165 -261 OFFCURVE",
"1139 -268 CURVE SMOOTH",
"1121 -273 OFFCURVE",
"1083 -278 OFFCURVE",
"1066 -278 CURVE SMOOTH",
"1015 -278 OFFCURVE",
"990 -254 OFFCURVE",
"990 -199 CURVE SMOOTH",
"990 -123 OFFCURVE",
"1059 -25 OFFCURVE",
"1099 0 CURVE",
"934 0 LINE",
"847 -19 OFFCURVE",
"725 -134 OFFCURVE",
"725 -283 CURVE SMOOTH",
"725 -442 OFFCURVE",
"875 -488 OFFCURVE",
"1034 -488 CURVE SMOOTH"
);
}
);
width = 1238;
},
{
components = (
{
name = A;
}
);
layerId = "BE68D89F-AB3F-4BDF-B332-ED50D7C47704";
paths = (
{
closed = 1;
nodes = (
"1150 -439 OFFCURVE",
"1215 -432 OFFCURVE",
"1215 -398 CURVE SMOOTH",
"1215 -382 OFFCURVE",
"1200 -370 OFFCURVE",
"1176 -370 CURVE SMOOTH",
"1169 -370 OFFCURVE",
"1160 -371 OFFCURVE",
"1151 -373 CURVE SMOOTH",
"1134 -376 OFFCURVE",
"1115 -378 OFFCURVE",
"1096 -378 CURVE SMOOTH",
"1033 -378 OFFCURVE",
"974 -347 OFFCURVE",
"974 -270 CURVE SMOOTH",
"974 -166 OFFCURVE",
"1055 -32 OFFCURVE",
"1103 0 CURVE",
"1069 0 LINE",
"1015 0 OFFCURVE",
"903 -155 OFFCURVE",
"903 -268 CURVE SMOOTH",
"903 -384 OFFCURVE",
"997 -439 OFFCURVE",
"1103 -439 CURVE SMOOTH"
);
}
);
width = 1238;
}
);
leftKerningGroup = A;
rightKerningGroup = A;
unicode = 0104;
},
{
glyphname = AE;
lastChange = "2020-07-09 19:00:51 +0000";
layers = (
{
anchors = (
{
name = bottom;
position = "{619, 0}";
},
{
name = top;
position = "{623, 1238}";
}
);
layerId = "5521DC30-183F-421A-91F3-644B5E24AFE6";
paths = (
{
closed = 1;
nodes = (
"1044 -1 LINE SMOOTH",
"1180 -1 OFFCURVE",
"1225 41 OFFCURVE",
"1225 118 CURVE SMOOTH",
"1225 195 OFFCURVE",
"1180 238 OFFCURVE",
"1044 238 CURVE SMOOTH",
"960 238 LINE",
"960 490 LINE",
"1077 490 LINE SMOOTH",
"1151 490 OFFCURVE",
"1194 546 OFFCURVE",
"1194 608 CURVE SMOOTH",
"1194 670 OFFCURVE",
"1151 727 OFFCURVE",
"1077 727 CURVE SMOOTH",
"960 727 LINE",
"960 999 LINE",
"1044 999 LINE SMOOTH",
"1180 999 OFFCURVE",
"1225 1042 OFFCURVE",
"1225 1119 CURVE SMOOTH",
"1225 1195 OFFCURVE",
"1180 1238 OFFCURVE",
"1044 1238 CURVE SMOOTH",
"541 1238 LINE SMOOTH",
"482 1238 OFFCURVE",
"433 1170 OFFCURVE",
"433 1103 CURVE SMOOTH",
"433 1043 OFFCURVE",
"481 999 OFFCURVE",
"546 999 CURVE",
"623 999 LINE",
"623 193 LINE SMOOTH",
"623 67 OFFCURVE",
"696 -1 OFFCURVE",
"832 -1 CURVE SMOOTH"
);
},
{
closed = 1;
nodes = (
"334 -19 OFFCURVE",
"389 37 OFFCURVE",
"417 151 CURVE SMOOTH",
"637 1023 LINE SMOOTH",
"646 1055 OFFCURVE",
"650 1086 OFFCURVE",
"650 1111 CURVE SMOOTH",
"650 1191 OFFCURVE",
"610 1238 OFFCURVE",
"541 1238 CURVE SMOOTH",
"441 1238 OFFCURVE",
"376 1184 OFFCURVE",
"343 1073 CURVE SMOOTH",
"75 200 LINE SMOOTH",
"64 162 OFFCURVE",
"58 130 OFFCURVE",
"58 102 CURVE SMOOTH",
"58 9 OFFCURVE",
"124 -19 OFFCURVE",
"211 -19 CURVE SMOOTH"
);
},
{
closed = 1;
nodes = (
"656 250 LINE SMOOTH",
"784 250 OFFCURVE",
"852 311 OFFCURVE",
"852 392 CURVE SMOOTH",
"852 473 OFFCURVE",
"784 517 OFFCURVE",
"656 517 CURVE SMOOTH",
"418 517 LINE SMOOTH",
"291 517 OFFCURVE",
"223 473 OFFCURVE",
"223 392 CURVE SMOOTH",
"223 311 OFFCURVE",
"291 250 OFFCURVE",
"418 250 CURVE SMOOTH"
);
}
);
width = 1238;
},
{
anchors = (
{
name = bottom;
position = "{619, 0}";
},
{
name = top;
position = "{619, 1238}";
}
);
layerId = "BE68D89F-AB3F-4BDF-B332-ED50D7C47704";
paths = (
{
closed = 1;
nodes = (
"1093 -1 LINE SMOOTH",
"1130 -1 OFFCURVE",
"1146 10 OFFCURVE",
"1146 27 CURVE SMOOTH",
"1146 45 OFFCURVE",
"1130 55 OFFCURVE",
"1093 55 CURVE SMOOTH",
"687 55 LINE",
"687 579 LINE",
"1029 579 LINE SMOOTH",
"1066 579 OFFCURVE",
"1081 590 OFFCURVE",
"1081 608 CURVE SMOOTH",
"1081 626 OFFCURVE",
"1066 636 OFFCURVE",
"1029 636 CURVE SMOOTH",
"687 636 LINE",
"687 1182 LINE",
"1093 1182 LINE SMOOTH",
"1130 1182 OFFCURVE",
"1146 1192 OFFCURVE",
"1146 1210 CURVE SMOOTH",
"1146 1228 OFFCURVE",
"1130 1238 OFFCURVE",
"1093 1238 CURVE SMOOTH",
"607 1238 LINE SMOOTH",
"599 1238 OFFCURVE",
"590 1224 OFFCURVE",
"590 1210 CURVE SMOOTH",
"590 1192 OFFCURVE",
"598 1182 OFFCURVE",
"608 1182 CURVE SMOOTH",
"624 1182 LINE",
"624 51 LINE SMOOTH",
"624 17 OFFCURVE",
"644 -1 OFFCURVE",
"681 -1 CURVE SMOOTH"
);
},
{
closed = 1;
nodes = (
"93 -19 OFFCURVE",
"102 -5 OFFCURVE",
"114 24 CURVE SMOOTH",
"616 1177 LINE SMOOTH",
"623 1191 OFFCURVE",
"626 1204 OFFCURVE",
"626 1214 CURVE SMOOTH",
"626 1230 OFFCURVE",
"619 1238 OFFCURVE",
"607 1238 CURVE SMOOTH",
"585 1238 OFFCURVE",
"570 1224 OFFCURVE",
"557 1195 CURVE SMOOTH",
"55 42 LINE SMOOTH",
"48 25 OFFCURVE",
"45 12 OFFCURVE",
"45 3 CURVE SMOOTH",
"45 -15 OFFCURVE",
"57 -19 OFFCURVE",
"70 -19 CURVE SMOOTH"
);
},
{
closed = 1;
nodes = (
"628 342 LINE SMOOTH",
"663 342 OFFCURVE",
"675 351 OFFCURVE",
"675 370 CURVE SMOOTH",
"675 389 OFFCURVE",
"666 399 OFFCURVE",
"628 399 CURVE SMOOTH",
"237 399 LINE SMOOTH",
"225 399 OFFCURVE",
"213 392 OFFCURVE",
"213 370 CURVE SMOOTH",
"213 354 OFFCURVE",
"230 342 OFFCURVE",
"236 342 CURVE SMOOTH"
);
}
);
width = 1238;
}
);
leftKerningGroup = A;
rightKerningGroup = E;
unicode = 00C6;
},
{
glyphname = B;
lastChange = "2020-07-09 19:00:51 +0000";
layers = (
{
anchors = (
{
name = bottom;
position = "{582, 0}";
},
{
name = top;
position = "{573, 1238}";
}
);
layerId = "5521DC30-183F-421A-91F3-644B5E24AFE6";
paths = (
{
closed = 1;
nodes = (
"905 658 OFFCURVE",
"1118 687 OFFCURVE",
"1118 935 CURVE SMOOTH",
"1118 1172 OFFCURVE",
"885 1238 OFFCURVE",
"651 1238 CURVE SMOOTH",
"318 1238 LINE SMOOTH",
"182 1238 OFFCURVE",
"109 1165 OFFCURVE",
"109 1029 CURVE SMOOTH",
"109 210 LINE SMOOTH",
"109 73 OFFCURVE",
"182 0 OFFCURVE",
"318 0 CURVE SMOOTH",
"710 0 LINE SMOOTH",
"975 0 OFFCURVE",
"1166 117 OFFCURVE",
"1166 353 CURVE SMOOTH",
"1166 626 OFFCURVE",
"906 658 OFFCURVE",
"865 658 CURVE"
);
},
{
closed = 1;
nodes = (
"580 971 LINE SMOOTH",
"662 971 OFFCURVE",
"745 961 OFFCURVE",
"745 864 CURVE SMOOTH",
"745 767 OFFCURVE",
"656 762 OFFCURVE",
"580 762 CURVE SMOOTH",
"490 762 LINE",
"490 971 LINE"
);
},
{
closed = 1;
nodes = (
"490 267 LINE",
"490 515 LINE",
"592 515 LINE SMOOTH",
"691 515 OFFCURVE",
"779 497 OFFCURVE",
"779 393 CURVE SMOOTH",
"779 290 OFFCURVE",
"691 267 OFFCURVE",
"592 267 CURVE SMOOTH"
);
}
);
width = 1238;
},
{
anchors = (
{
name = bottom;
position = "{599, 0}";
},
{
name = top;
position = "{594, 1238}";
}
);
layerId = "BE68D89F-AB3F-4BDF-B332-ED50D7C47704";
paths = (
{
closed = 1;
nodes = (
"850 642 OFFCURVE",
"1017 710 OFFCURVE",
"1017 935 CURVE SMOOTH",
"1017 1191 OFFCURVE",
"829 1238 OFFCURVE",
"589 1238 CURVE SMOOTH",
"314 1238 LINE SMOOTH",
"277 1238 OFFCURVE",
"257 1218 OFFCURVE",
"257 1181 CURVE SMOOTH",
"257 57 LINE SMOOTH",
"257 20 OFFCURVE",
"277 0 OFFCURVE",
"314 0 CURVE SMOOTH",
"635 0 LINE SMOOTH",
"918 0 OFFCURVE",
"1055 113 OFFCURVE",
"1055 340 CURVE SMOOTH",
"1055 574 OFFCURVE",
"858 642 OFFCURVE",
"804 642 CURVE"
);
},
{
closed = 1;
nodes = (
"619 1177 LINE SMOOTH",
"810 1177 OFFCURVE",
"952 1128 OFFCURVE",
"952 935 CURVE SMOOTH",
"952 779 OFFCURVE",
"854 670 OFFCURVE",
"672 670 CURVE SMOOTH",
"320 670 LINE",
"320 1177 LINE"
);
},
{
closed = 1;
nodes = (
"320 61 LINE",
"320 609 LINE",
"678 609 LINE SMOOTH",
"854 609 OFFCURVE",
"990 522 OFFCURVE",
"990 340 CURVE SMOOTH",
"990 163 OFFCURVE",
"888 61 OFFCURVE",
"622 61 CURVE SMOOTH"
);
}
);
width = 1238;
}
);
leftKerningGroup = H;
rightKerningGroup = B;
unicode = 0042;
},
{
glyphname = C;
lastChange = "2020-07-09 19:02:10 +0000";
layers = (
{
anchors = (
{
name = bottom;
position = "{701, 0}";
},
{
name = top;
position = "{701, 1238}";
}
);
layerId = "5521DC30-183F-421A-91F3-644B5E24AFE6";
paths = (
{
closed = 1;
nodes = (
"926 -21 OFFCURVE",
"1164 104 OFFCURVE",
"1164 300 CURVE SMOOTH",
"1164 395 OFFCURVE",
"1090 461 OFFCURVE",
"1001 461 CURVE SMOOTH",
"894 461 OFFCURVE",
"865 404 OFFCURVE",
"839 349 CURVE SMOOTH",
"814 295 OFFCURVE",
"789 246 OFFCURVE",
"701 246 CURVE SMOOTH",
"581 246 OFFCURVE",
"469 336 OFFCURVE",
"469 614 CURVE SMOOTH",
"469 892 OFFCURVE",
"581 983 OFFCURVE",
"701 983 CURVE SMOOTH",
"789 983 OFFCURVE",
"814 933 OFFCURVE",
"839 880 CURVE SMOOTH",
"865 825 OFFCURVE",
"894 768 OFFCURVE",
"1001 768 CURVE SMOOTH",
"1090 768 OFFCURVE",
"1164 833 OFFCURVE",
"1164 929 CURVE SMOOTH",
"1164 1124 OFFCURVE",
"929 1250 OFFCURVE",
"701 1250 CURVE SMOOTH",
"430 1250 OFFCURVE",
"84 1125 OFFCURVE",
"84 614 CURVE SMOOTH",
"84 104 OFFCURVE",
"430 -21 OFFCURVE",
"701 -21 CURVE SMOOTH"
);
}
);
width = 1238;
},
{
anchors = (
{
name = bottom;
position = "{682, 0}";
},
{
name = top;
position = "{649, 1238}";
}
);
layerId = "BE68D89F-AB3F-4BDF-B332-ED50D7C47704";
paths = (
{
closed = 1;
nodes = (
"964 -19 OFFCURVE",
"1090 197 OFFCURVE",
"1090 296 CURVE SMOOTH",
"1090 316 OFFCURVE",
"1077 326 OFFCURVE",
"1064 326 CURVE SMOOTH",
"1045 326 OFFCURVE",
"1036 320 OFFCURVE",
"1029 290 CURVE SMOOTH",
"1008 197 OFFCURVE",
"900 44 OFFCURVE",
"684 44 CURVE SMOOTH",
"463 44 OFFCURVE",
"240 238 OFFCURVE",
"240 615 CURVE SMOOTH",
"240 992 OFFCURVE",
"463 1187 OFFCURVE",
"684 1187 CURVE SMOOTH",
"900 1187 OFFCURVE",
"1008 1033 OFFCURVE",
"1029 940 CURVE SMOOTH",
"1036 910 OFFCURVE",
"1045 905 OFFCURVE",
"1064 905 CURVE SMOOTH",
"1077 905 OFFCURVE",
"1090 914 OFFCURVE",
"1090 934 CURVE SMOOTH",
"1090 1033 OFFCURVE",
"964 1250 OFFCURVE",
"682 1250 CURVE SMOOTH",
"410 1250 OFFCURVE",
"171 1034 OFFCURVE",
"171 615 CURVE SMOOTH",
"171 196 OFFCURVE",
"410 -19 OFFCURVE",
"682 -19 CURVE SMOOTH"
);
}
);
width = 1238;
}
);
leftKerningGroup = O;
rightKerningGroup = C;
unicode = 0043;
},
{
glyphname = Ccedilla;
lastChange = "2020-07-09 19:59:46 +0000";
layers = (
{
anchors = (
{
name = bottom;
position = "{701, -476}";
}
);
components = (
{
name = C;
}
);
layerId = "5521DC30-183F-421A-91F3-644B5E24AFE6";
paths = (
{
closed = 1;
nodes = (
"805 -473 OFFCURVE",
"994 -404 OFFCURVE",
"994 -264 CURVE SMOOTH",
"994 -156 OFFCURVE",
"885 -110 OFFCURVE",
"794 -110 CURVE SMOOTH",
"742 -110 OFFCURVE",
"695 -120 OFFCURVE",
"657 -151 CURVE",
"709 0 LINE SMOOTH",
"713 11 OFFCURVE",
"717 23 OFFCURVE",
"717 32 CURVE SMOOTH",
"717 69 OFFCURVE",
"682 89 OFFCURVE",
"637 89 CURVE SMOOTH",
"580 89 OFFCURVE",
"534 45 OFFCURVE",
"517 0 CURVE SMOOTH",
"465 -139 LINE SMOOTH",
"459 -154 OFFCURVE",
"455 -170 OFFCURVE",
"455 -185 CURVE SMOOTH",
"455 -228 OFFCURVE",
"481 -264 OFFCURVE",
"540 -264 CURVE SMOOTH",
"565 -264 OFFCURVE",
"590 -259 OFFCURVE",
"616 -251 CURVE SMOOTH",
"640 -244 OFFCURVE",
"666 -240 OFFCURVE",
"691 -240 CURVE SMOOTH",
"720 -240 OFFCURVE",
"737 -250 OFFCURVE",
"737 -270 CURVE SMOOTH",
"737 -300 OFFCURVE",
"695 -315 OFFCURVE",
"628 -315 CURVE SMOOTH",
"591 -315 OFFCURVE",
"562 -314 OFFCURVE",
"536 -307 CURVE SMOOTH",
"514 -301 OFFCURVE",
"493 -297 OFFCURVE",
"474 -297 CURVE SMOOTH",
"437 -297 OFFCURVE",
"401 -322 OFFCURVE",
"401 -369 CURVE SMOOTH",
"401 -403 OFFCURVE",
"422 -432 OFFCURVE",
"469 -453 CURVE SMOOTH",
"500 -467 OFFCURVE",
"544 -473 OFFCURVE",
"602 -473 CURVE SMOOTH"
);
}
);
width = 1238;
},
{
anchors = (
{
name = bottom;
position = "{696, -410}";
}
);
components = (
{
name = C;
}
);
layerId = "BE68D89F-AB3F-4BDF-B332-ED50D7C47704";
paths = (
{
closed = 1;
nodes = (
"770 -416 OFFCURVE",
"893 -353 OFFCURVE",
"893 -222 CURVE SMOOTH",
"893 -144 OFFCURVE",
"831 -112 OFFCURVE",
"764 -112 CURVE SMOOTH",
"718 -112 OFFCURVE",
"671 -128 OFFCURVE",
"641 -145 CURVE",
"684 0 LINE SMOOTH",
"685 3 OFFCURVE",
"686 7 OFFCURVE",
"686 10 CURVE SMOOTH",
"686 22 OFFCURVE",
"675 30 OFFCURVE",
"661 30 CURVE SMOOTH",
"641 30 OFFCURVE",
"628 12 OFFCURVE",
"624 0 CURVE SMOOTH",
"580 -140 LINE SMOOTH",
"576 -152 OFFCURVE",
"572 -166 OFFCURVE",
"572 -174 CURVE SMOOTH",
"572 -193 OFFCURVE",
"583 -199 OFFCURVE",
"599 -199 CURVE SMOOTH",
"617 -199 OFFCURVE",
"633 -194 OFFCURVE",
"651 -187 CURVE SMOOTH",
"675 -177 OFFCURVE",
"704 -169 OFFCURVE",
"749 -169 CURVE SMOOTH",
"790 -169 OFFCURVE",
"823 -188 OFFCURVE",
"823 -236 CURVE SMOOTH",
"823 -314 OFFCURVE",
"734 -355 OFFCURVE",
"628 -355 CURVE SMOOTH",
"607 -355 OFFCURVE",
"576 -353 OFFCURVE",
"562 -350 CURVE SMOOTH",
"552 -348 OFFCURVE",
"544 -347 OFFCURVE",
"535 -347 CURVE SMOOTH",
"511 -347 OFFCURVE",
"499 -356 OFFCURVE",
"499 -375 CURVE SMOOTH",
"499 -390 OFFCURVE",
"516 -403 OFFCURVE",
"550 -410 CURVE SMOOTH",
"575 -415 OFFCURVE",
"601 -416 OFFCURVE",
"625 -416 CURVE SMOOTH"
);
}
);
width = 1238;
}
);
leftKerningGroup = O;
rightKerningGroup = C;
unicode = 00C7;
},
{
glyphname = D;
lastChange = "2020-07-09 19:02:18 +0000";
layers = (
{
anchors = (
{
name = bottom;
position = "{590, 0}";
},
{
name = center;
position = "{299, 653}";
},
{
name = top;
position = "{595, 1238}";
}
);
layerId = "5521DC30-183F-421A-91F3-644B5E24AFE6";
paths = (
{
closed = 1;
nodes = (
"299 1238 LINE SMOOTH",
"163 1238 OFFCURVE",
"90 1165 OFFCURVE",
"90 1029 CURVE SMOOTH",
"90 210 LINE SMOOTH",
"90 73 OFFCURVE",
"163 0 OFFCURVE",
"299 0 CURVE SMOOTH",
"537 0 LINE SMOOTH",
"733 0 OFFCURVE",
"1177 38 OFFCURVE",
"1177 619 CURVE SMOOTH",
"1177 1200 OFFCURVE",
"733 1238 OFFCURVE",
"537 1238 CURVE SMOOTH"
);
},
{
closed = 1;
nodes = (
"470 267 LINE",
"470 971 LINE",
"537 971 LINE SMOOTH",
"707 971 OFFCURVE",
"792 869 OFFCURVE",
"792 619 CURVE SMOOTH",
"792 370 OFFCURVE",
"707 267 OFFCURVE",
"537 267 CURVE SMOOTH"
);
}
);
width = 1238;
},
{
anchors = (
{
name = bottom;
position = "{562, 0}";
},
{
name = center;
position = "{309, 667}";
},
{
name = top;
position = "{564, 1238}";
}
);
layerId = "BE68D89F-AB3F-4BDF-B332-ED50D7C47704";
paths = (
{
closed = 1;
nodes = (
"263 1238 LINE SMOOTH",
"226 1238 OFFCURVE",
"206 1218 OFFCURVE",
"206 1181 CURVE SMOOTH",
"206 57 LINE SMOOTH",
"206 20 OFFCURVE",
"226 0 OFFCURVE",
"263 0 CURVE SMOOTH",
"526 0 LINE SMOOTH",
"745 0 OFFCURVE",
"1070 124 OFFCURVE",
"1070 619 CURVE SMOOTH",
"1070 1114 OFFCURVE",
"745 1238 OFFCURVE",
"526 1238 CURVE SMOOTH"
);
},
{
closed = 1;
nodes = (
"269 61 LINE",
"269 1177 LINE",
"520 1177 LINE SMOOTH",
"739 1177 OFFCURVE",
"1007 1030 OFFCURVE",
"1007 619 CURVE SMOOTH",
"1007 208 OFFCURVE",
"739 61 OFFCURVE",
"520 61 CURVE SMOOTH"
);
}
);
width = 1238;
}
);
leftKerningGroup = H;
rightKerningGroup = O;
unicode = 0044;
},
{
glyphname = Eth;
lastChange = "2020-07-09 19:00:51 +0000";
layers = (
{
components = (
{
name = D;
}
);
layerId = "5521DC30-183F-421A-91F3-644B5E24AFE6";
paths = (
{
closed = 1;
nodes = (
"480 505 LINE SMOOTH",
"616 505 OFFCURVE",
"690 545 OFFCURVE",
"690 619 CURVE SMOOTH",
"690 693 OFFCURVE",
"616 733 OFFCURVE",
"480 733 CURVE SMOOTH",
"175 733 LINE SMOOTH",
"39 733 OFFCURVE",
"-34 693 OFFCURVE",
"-34 619 CURVE SMOOTH",
"-34 545 OFFCURVE",
"39 505 OFFCURVE",
"175 505 CURVE SMOOTH"
);
}
);
width = 1238;
},
{
components = (
{
name = D;
}
);
layerId = "BE68D89F-AB3F-4BDF-B332-ED50D7C47704";
paths = (
{
closed = 1;
nodes = (
"547 589 LINE SMOOTH",
"584 589 OFFCURVE",
"604 600 OFFCURVE",
"604 619 CURVE SMOOTH",
"604 638 OFFCURVE",
"584 650 OFFCURVE",
"547 650 CURVE SMOOTH",
"90 650 LINE SMOOTH",
"52 650 OFFCURVE",
"32 638 OFFCURVE",
"32 619 CURVE SMOOTH",
"32 600 OFFCURVE",
"52 589 OFFCURVE",
"90 589 CURVE SMOOTH"
);
}
);
width = 1238;
}
);
leftKerningGroup = H;
rightKerningGroup = O;
unicode = 00D0;
},
{
glyphname = E;
lastChange = "2020-07-09 19:00:51 +0000";
layers = (
{
anchors = (
{
name = bottom;
position = "{629, 0}";
},
{
name = ogonek;
position = "{869, 0}";
},
{
name = top;
position = "{629, 1238}";
},
{
name = topleft;
position = "{152, 1238}";
}
);
layerId = "5521DC30-183F-421A-91F3-644B5E24AFE6";
paths = (
{
closed = 1;
nodes = (
"1105 1191 OFFCURVE",
"1041 1238 OFFCURVE",
"905 1238 CURVE SMOOTH",
"364 1238 LINE SMOOTH",
"228 1238 OFFCURVE",
"154 1165 OFFCURVE",
"154 1029 CURVE SMOOTH",
"154 210 LINE SMOOTH",
"154 73 OFFCURVE",
"228 0 OFFCURVE",
"364 0 CURVE SMOOTH",
"905 0 LINE SMOOTH",
"1041 0 OFFCURVE",
"1105 47 OFFCURVE",
"1105 133 CURVE SMOOTH",
"1105 220 OFFCURVE",
"1041 267 OFFCURVE",
"905 267 CURVE SMOOTH",
"535 267 LINE",
"535 484 LINE",
"821 484 LINE SMOOTH",
"957 484 OFFCURVE",
"1002 530 OFFCURVE",
"1002 617 CURVE SMOOTH",
"1002 704 OFFCURVE",
"957 750 OFFCURVE",
"821 750 CURVE SMOOTH",
"535 750 LINE",
"535 971 LINE",
"905 971 LINE SMOOTH",
"1041 971 OFFCURVE",
"1105 1018 OFFCURVE",
"1105 1105 CURVE SMOOTH"
);
}
);
width = 1238;
},
{
anchors = (
{
name = bottom;
position = "{648, 0}";
},
{
name = ogonek;
position = "{958, 0}";
},
{
name = top;
position = "{648, 1238}";
},
{
name = topleft;
position = "{240, 1238}";
}
);
layerId = "BE68D89F-AB3F-4BDF-B332-ED50D7C47704";
paths = (
{
closed = 1;
nodes = (
"1006 1228 OFFCURVE",
"986 1238 OFFCURVE",
"949 1238 CURVE SMOOTH",
"331 1238 LINE SMOOTH",
"294 1238 OFFCURVE",
"274 1218 OFFCURVE",
"274 1181 CURVE SMOOTH",
"274 57 LINE SMOOTH",
"274 20 OFFCURVE",
"294 0 OFFCURVE",
"331 0 CURVE SMOOTH",
"949 0 LINE SMOOTH",
"986 0 OFFCURVE",
"1006 11 OFFCURVE",
"1006 30 CURVE SMOOTH",
"1006 50 OFFCURVE",
"986 61 OFFCURVE",
"949 61 CURVE SMOOTH",
"337 61 LINE",
"337 596 LINE",
"855 596 LINE SMOOTH",
"892 596 OFFCURVE",
"912 608 OFFCURVE",
"912 627 CURVE SMOOTH",
"912 646 OFFCURVE",
"892 657 OFFCURVE",
"855 657 CURVE SMOOTH",
"337 657 LINE",
"337 1177 LINE",
"949 1177 LINE SMOOTH",
"986 1177 OFFCURVE",
"1006 1189 OFFCURVE",
"1006 1208 CURVE SMOOTH"
);
}
);
width = 1238;
}
);
leftKerningGroup = H;
rightKerningGroup = E;
unicode = 0045;
},
{
glyphname = Eogonek;
lastChange = "2020-07-09 19:56:19 +0000";
layers = (
{
components = (
{
name = E;
}
);
layerId = "5521DC30-183F-421A-91F3-644B5E24AFE6";
paths = (
{
closed = 1;
nodes = (
"970 -488 OFFCURVE",
"1078 -444 OFFCURVE",
"1078 -350 CURVE SMOOTH",
"1078 -297 OFFCURVE",
"1057 -259 OFFCURVE",
"998 -259 CURVE SMOOTH",
"979 -259 OFFCURVE",
"955 -261 OFFCURVE",
"929 -268 CURVE SMOOTH",
"911 -273 OFFCURVE",
"873 -278 OFFCURVE",
"856 -278 CURVE SMOOTH",
"805 -278 OFFCURVE",
"780 -254 OFFCURVE",
"780 -199 CURVE SMOOTH",
"780 -123 OFFCURVE",
"849 -25 OFFCURVE",
"889 0 CURVE",
"724 0 LINE",
"637 -19 OFFCURVE",
"515 -134 OFFCURVE",
"515 -283 CURVE SMOOTH",
"515 -442 OFFCURVE",
"665 -488 OFFCURVE",
"824 -488 CURVE SMOOTH"
);
}
);
width = 1238;
},
{
components = (
{
name = E;
}
);
layerId = "BE68D89F-AB3F-4BDF-B332-ED50D7C47704";
paths = (
{
closed = 1;
nodes = (
"1005 -439 OFFCURVE",
"1070 -432 OFFCURVE",
"1070 -398 CURVE SMOOTH",
"1070 -382 OFFCURVE",
"1055 -370 OFFCURVE",
"1031 -370 CURVE SMOOTH",
"1024 -370 OFFCURVE",
"1015 -371 OFFCURVE",
"1006 -373 CURVE SMOOTH",
"989 -376 OFFCURVE",
"970 -378 OFFCURVE",
"951 -378 CURVE SMOOTH",
"888 -378 OFFCURVE",
"829 -347 OFFCURVE",
"829 -270 CURVE SMOOTH",
"829 -166 OFFCURVE",
"910 -32 OFFCURVE",
"958 0 CURVE",
"924 0 LINE",
"870 0 OFFCURVE",
"758 -155 OFFCURVE",
"758 -268 CURVE SMOOTH",
"758 -384 OFFCURVE",
"852 -439 OFFCURVE",
"958 -439 CURVE SMOOTH"
);
}
);
width = 1238;
}
);
leftKerningGroup = H;
rightKerningGroup = E;
unicode = 0118;
},
{
glyphname = F;
lastChange = "2020-07-09 19:00:51 +0000";
layers = (
{
anchors = (
{
name = bottom;
position = "{570, 0}";
},
{
name = top;
position = "{630, 1238}";
}
);
layerId = "5521DC30-183F-421A-91F3-644B5E24AFE6";
paths = (
{
closed = 1;
nodes = (
"1120 1191 OFFCURVE",
"1047 1238 OFFCURVE",
"910 1238 CURVE SMOOTH",
"413 1238 LINE SMOOTH",
"277 1238 OFFCURVE",
"204 1165 OFFCURVE",
"204 1029 CURVE SMOOTH",
"204 190 LINE SMOOTH",
"204 54 OFFCURVE",
"270 -19 OFFCURVE",
"394 -19 CURVE SMOOTH",
"518 -19 OFFCURVE",
"585 54 OFFCURVE",
"585 190 CURVE SMOOTH",
"585 381 LINE",
"874 381 LINE SMOOTH",
"991 381 OFFCURVE",
"1046 428 OFFCURVE",
"1046 514 CURVE SMOOTH",
"1046 601 OFFCURVE",
"991 648 OFFCURVE",
"874 648 CURVE SMOOTH",
"585 648 LINE",
"585 971 LINE",
"910 971 LINE SMOOTH",
"1047 971 OFFCURVE",
"1120 1018 OFFCURVE",
"1120 1105 CURVE SMOOTH"
);
}
);
width = 1238;
},
{
anchors = (
{
name = bottom;
position = "{619, 0}";
},
{
name = top;
position = "{682, 1238}";
}
);
layerId = "BE68D89F-AB3F-4BDF-B332-ED50D7C47704";
paths = (
{
closed = 1;
nodes = (
"1048 1228 OFFCURVE",
"1028 1238 OFFCURVE",
"990 1238 CURVE SMOOTH",
"373 1238 LINE SMOOTH",
"336 1238 OFFCURVE",
"316 1218 OFFCURVE",
"316 1181 CURVE SMOOTH",
"316 48 LINE SMOOTH",
"316 10 OFFCURVE",
"328 -10 OFFCURVE",
"348 -10 CURVE SMOOTH",
"368 -10 OFFCURVE",
"379 10 OFFCURVE",
"379 48 CURVE SMOOTH",
"379 520 LINE",
"895 520 LINE SMOOTH",
"932 520 OFFCURVE",
"952 531 OFFCURVE",
"952 550 CURVE SMOOTH",
"952 570 OFFCURVE",
"932 581 OFFCURVE",
"895 581 CURVE SMOOTH",
"379 581 LINE",
"379 1177 LINE",
"990 1177 LINE SMOOTH",
"1028 1177 OFFCURVE",
"1048 1189 OFFCURVE",
"1048 1208 CURVE SMOOTH"
);
}
);
width = 1238;
}
);
leftKerningGroup = H;
rightKerningGroup = F;
unicode = 0046;
},
{
glyphname = G;
lastChange = "2021-02-07 18:57:59 +0000";
layers = (
{
anchors = (
{
name = bottom;
position = "{661, -21}";
},
{
name = top;
position = "{648, 1238}";
}
);
layerId = "5521DC30-183F-421A-91F3-644B5E24AFE6";
paths = (
{
closed = 1;
nodes = (
"977 -21 OFFCURVE",
"1187 164 OFFCURVE",
"1187 493 CURVE SMOOTH",
"1187 616 OFFCURVE",
"1133 682 OFFCURVE",
"997 682 CURVE SMOOTH",
"768 682 LINE SMOOTH",
"642 682 OFFCURVE",
"590 646 OFFCURVE",
"590 556 CURVE SMOOTH",
"590 466 OFFCURVE",
"655 429 OFFCURVE",
"752 429 CURVE SMOOTH",
"883 429 LINE",
"807 502 LINE",
"807 364 OFFCURVE",
"785 250 OFFCURVE",
"665 250 CURVE SMOOTH",
"535 250 OFFCURVE",
"413 326 OFFCURVE",
"413 615 CURVE SMOOTH",
"413 886 OFFCURVE",
"535 979 OFFCURVE",
"659 979 CURVE SMOOTH",
"721 979 OFFCURVE",
"775 926 OFFCURVE",
"809 890 CURVE SMOOTH",
"845 852 OFFCURVE",
"900 824 OFFCURVE",
"957 824 CURVE SMOOTH",
"1039 824 OFFCURVE",
"1119 888 OFFCURVE",
"1119 975 CURVE SMOOTH",
"1119 1028 OFFCURVE",
"1091 1085 OFFCURVE",
"1030 1135 CURVE SMOOTH",
"930 1218 OFFCURVE",
"799 1250 OFFCURVE",
"657 1250 CURVE SMOOTH",
"337 1250 OFFCURVE",
"32 1076 OFFCURVE",
"32 615 CURVE SMOOTH",
"32 152 OFFCURVE",
"341 -21 OFFCURVE",
"661 -21 CURVE SMOOTH"
);
}
);
width = 1238;
},
{
anchors = (
{
name = bottom;
position = "{632, -21}";
},
{
name = top;
position = "{619, 1238}";
}
);
layerId = "BE68D89F-AB3F-4BDF-B332-ED50D7C47704";
paths = (
{
closed = 1;
nodes = (
"876 -21 OFFCURVE",
"1065 142 OFFCURVE",
"1065 524 CURVE SMOOTH",
"1065 561 OFFCURVE",
"1045 581 OFFCURVE",
"1008 581 CURVE SMOOTH",
"670 581 LINE SMOOTH",
"633 581 OFFCURVE",
"617 570 OFFCURVE",
"617 550 CURVE SMOOTH",
"617 530 OFFCURVE",
"633 520 OFFCURVE",
"670 520 CURVE SMOOTH",
"1029 520 LINE",
"1000 550 LINE",
"1000 179 OFFCURVE",
"849 42 OFFCURVE",
"632 42 CURVE SMOOTH",
"422 42 OFFCURVE",
"200 219 OFFCURVE",
"200 615 CURVE SMOOTH",
"200 1011 OFFCURVE",
"422 1187 OFFCURVE",
"642 1187 CURVE SMOOTH",
"777 1187 OFFCURVE",
"848 1146 OFFCURVE",
"902 1081 CURVE SMOOTH",
"920 1060 OFFCURVE",
"937 1047 OFFCURVE",
"952 1047 CURVE SMOOTH",
"965 1047 OFFCURVE",
"981 1057 OFFCURVE",
"981 1075 CURVE SMOOTH",
"981 1088 OFFCURVE",
"974 1102 OFFCURVE",
"960 1119 CURVE SMOOTH",
"896 1193 OFFCURVE",
"804 1250 OFFCURVE",
"642 1250 CURVE SMOOTH",
"400 1250 OFFCURVE",
"133 1067 OFFCURVE",
"133 615 CURVE SMOOTH",
"133 164 OFFCURVE",
"390 -21 OFFCURVE",
"632 -21 CURVE SMOOTH"
);
}
);
width = 1238;
}
);
leftKerningGroup = O;
rightKerningGroup = G;
unicode = 0047;
},
{
glyphname = H;
lastChange = "2020-07-09 19:00:51 +0000";
layers = (
{
anchors = (
{
name = bottom;
position = "{617, 0}";
},
{
name = center;
position = "{608, 952}";
},
{
name = top;
position = "{617, 1238}";
},
{
name = topleft;
position = "{93, 1238}";
}
);
layerId = "5521DC30-183F-421A-91F3-644B5E24AFE6";
paths = (
{
closed = 1;
nodes = (
"754 756 LINE",
"482 756 LINE",
"482 1038 LINE SMOOTH",
"482 1174 OFFCURVE",
"415 1248 OFFCURVE",
"291 1248 CURVE SMOOTH",
"168 1248 OFFCURVE",
"101 1174 OFFCURVE",
"101 1038 CURVE SMOOTH",
"101 190 LINE SMOOTH",
"101 54 OFFCURVE",
"168 -19 OFFCURVE",
"291 -19 CURVE SMOOTH",
"415 -19 OFFCURVE",
"482 54 OFFCURVE",
"482 190 CURVE SMOOTH",
"482 490 LINE",
"754 490 LINE",
"754 190 LINE SMOOTH",
"754 54 OFFCURVE",
"821 -19 OFFCURVE",
"945 -19 CURVE SMOOTH",
"1069 -19 OFFCURVE",
"1135 54 OFFCURVE",
"1135 190 CURVE SMOOTH",
"1135 1038 LINE SMOOTH",
"1135 1174 OFFCURVE",
"1069 1248 OFFCURVE",
"945 1248 CURVE SMOOTH",
"821 1248 OFFCURVE",
"754 1174 OFFCURVE",
"754 1038 CURVE SMOOTH"
);
}
);
width = 1238;
},
{
anchors = (
{
name = bottom;
position = "{614, 0}";
},
{
name = center;
position = "{614, 952}";
},
{
name = top;
position = "{614, 1238}";
},
{
name = topleft;
position = "{247, 1238}";
}
);
layerId = "BE68D89F-AB3F-4BDF-B332-ED50D7C47704";
paths = (
{
closed = 1;
nodes = (
"944 676 LINE",
"290 676 LINE",
"290 1190 LINE SMOOTH",
"290 1228 OFFCURVE",
"279 1248 OFFCURVE",
"259 1248 CURVE SMOOTH",
"239 1248 OFFCURVE",
"228 1228 OFFCURVE",
"228 1190 CURVE SMOOTH",
"228 48 LINE SMOOTH",
"228 10 OFFCURVE",
"239 -10 OFFCURVE",
"259 -10 CURVE SMOOTH",
"279 -10 OFFCURVE",
"290 10 OFFCURVE",
"290 48 CURVE SMOOTH",
"290 615 LINE",
"944 615 LINE",
"944 48 LINE SMOOTH",
"944 10 OFFCURVE",
"955 -10 OFFCURVE",
"975 -10 CURVE SMOOTH",
"995 -10 OFFCURVE",
"1007 10 OFFCURVE",
"1007 48 CURVE SMOOTH",
"1007 1190 LINE SMOOTH",
"1007 1228 OFFCURVE",
"995 1248 OFFCURVE",
"975 1248 CURVE SMOOTH",
"955 1248 OFFCURVE",
"944 1228 OFFCURVE",
"944 1190 CURVE SMOOTH"
);
}
);
width = 1238;
}
);
leftKerningGroup = H;
rightKerningGroup = H;
unicode = 0048;
},
{
glyphname = Hbar;
lastChange = "2021-02-07 18:30:50 +0000";
layers = (
{
components = (
{
name = H;
}
);
layerId = "5521DC30-183F-421A-91F3-644B5E24AFE6";
paths = (
{
closed = 1;
nodes = (
"-10 910 OFFCURVE",
"35 870 OFFCURVE",
"171 870 CURVE SMOOTH",
"1063 870 LINE SMOOTH",
"1199 870 OFFCURVE",
"1243 910 OFFCURVE",
"1243 984 CURVE SMOOTH",
"1243 1057 OFFCURVE",
"1199 1097 OFFCURVE",
"1063 1097 CURVE SMOOTH",
"171 1097 LINE SMOOTH",
"35 1097 OFFCURVE",
"-10 1057 OFFCURVE",
"-10 984 CURVE SMOOTH"
);
}
);
width = 1238;
},
{
components = (
{
name = H;
}
);
layerId = "BE68D89F-AB3F-4BDF-B332-ED50D7C47704";
paths = (
{
closed = 1;
nodes = (
"158 974 OFFCURVE",
"178 964 OFFCURVE",
"216 964 CURVE SMOOTH",
"1019 964 LINE SMOOTH",
"1057 964 OFFCURVE",
"1077 975 OFFCURVE",
"1077 994 CURVE SMOOTH",
"1077 1013 OFFCURVE",
"1057 1025 OFFCURVE",
"1019 1025 CURVE SMOOTH",
"216 1025 LINE SMOOTH",
"178 1025 OFFCURVE",
"158 1013 OFFCURVE",
"158 994 CURVE SMOOTH"
);
}
);
width = 1238;
}
);
leftKerningGroup = H;
rightKerningGroup = H;
unicode = 0126;
},
{
glyphname = I;
lastChange = "2020-07-09 19:00:51 +0000";
layers = (
{
anchors = (
{
name = bottom;
position = "{620, 0}";
},
{
name = ogonek;
position = "{882, 0}";
},
{
name = top;
position = "{620, 1238}";
},
{
name = topleft;
position = "{162, 1238}";
}
);
layerId = "5521DC30-183F-421A-91F3-644B5E24AFE6";
paths = (
{
closed = 1;
nodes = (
"798 248 LINE",
"798 990 LINE",
"436 990 LINE",
"436 248 LINE"
);
},
{
closed = 1;
nodes = (
"920 0 LINE SMOOTH",
"1047 0 OFFCURVE",
"1110 47 OFFCURVE",
"1110 133 CURVE SMOOTH",
"1110 220 OFFCURVE",
"1047 267 OFFCURVE",
"920 267 CURVE SMOOTH",
"314 267 LINE SMOOTH",
"188 267 OFFCURVE",
"124 220 OFFCURVE",
"124 133 CURVE SMOOTH",
"124 47 OFFCURVE",
"188 0 OFFCURVE",
"314 0 CURVE SMOOTH"
);
},
{
closed = 1;
nodes = (
"920 971 LINE SMOOTH",
"1047 971 OFFCURVE",
"1110 1018 OFFCURVE",
"1110 1105 CURVE SMOOTH",
"1110 1191 OFFCURVE",
"1047 1238 OFFCURVE",
"920 1238 CURVE SMOOTH",
"314 1238 LINE SMOOTH",
"188 1238 OFFCURVE",
"124 1191 OFFCURVE",
"124 1105 CURVE SMOOTH",
"124 1018 OFFCURVE",
"188 971 OFFCURVE",
"314 971 CURVE SMOOTH"
);
}
);
width = 1238;
},
{
anchors = (
{
name = bottom;
position = "{617, 0}";
},
{
name = ogonek;
position = "{895, 0}";
},
{
name = top;
position = "{614, 1238}";
},
{
name = topleft;
position = "{280, 1246}";
}
);
layerId = "BE68D89F-AB3F-4BDF-B332-ED50D7C47704";
paths = (
{
closed = 1;
nodes = (
"646 50 LINE",
"646 1196 LINE",
"583 1196 LINE",
"583 50 LINE"
);
},
{
closed = 1;
nodes = (
"924 0 LINE SMOOTH",
"961 0 OFFCURVE",
"977 11 OFFCURVE",
"977 30 CURVE SMOOTH",
"977 50 OFFCURVE",
"961 61 OFFCURVE",
"924 61 CURVE SMOOTH",
"295 61 LINE SMOOTH",
"258 61 OFFCURVE",
"242 50 OFFCURVE",
"242 30 CURVE SMOOTH",
"242 11 OFFCURVE",
"258 0 OFFCURVE",
"295 0 CURVE SMOOTH"
);
},
{
closed = 1;
nodes = (
"924 1177 LINE SMOOTH",
"961 1177 OFFCURVE",
"977 1189 OFFCURVE",
"977 1208 CURVE SMOOTH",
"977 1227 OFFCURVE",
"961 1238 OFFCURVE",
"924 1238 CURVE SMOOTH",
"295 1238 LINE SMOOTH",
"258 1238 OFFCURVE",
"242 1227 OFFCURVE",
"242 1208 CURVE SMOOTH",
"242 1189 OFFCURVE",
"258 1177 OFFCURVE",
"295 1177 CURVE SMOOTH"
);
}
);
width = 1238;
}
);
leftKerningGroup = H;
rightKerningGroup = H;
unicode = 0049;
},
{
color = 4;
glyphname = I.ss01;
lastChange = "2020-11-24 22:08:56 +0000";
layers = (
{
anchors = (
{
name = bottom;
position = "{613, 0}";
},
{
name = ogonek;
position = "{714, 10}";
},
{
name = top;
position = "{619, 1238}";
},
{
name = topleft;
position = "{432, 1238}";
}
);
layerId = "5521DC30-183F-421A-91F3-644B5E24AFE6";
paths = (
{
closed = 1;
nodes = (
"728 -19 OFFCURVE",
"790 54 OFFCURVE",
"790 190 CURVE SMOOTH",
"790 1040 LINE SMOOTH",
"790 1177 OFFCURVE",
"728 1250 OFFCURVE",
"611 1250 CURVE SMOOTH",
"495 1250 OFFCURVE",
"432 1177 OFFCURVE",
"432 1040 CURVE SMOOTH",
"432 190 LINE SMOOTH",
"432 54 OFFCURVE",
"495 -19 OFFCURVE",
"611 -19 CURVE SMOOTH"
);
}
);
width = 1238;
},
{
anchors = (
{
name = bottom;
position = "{620, 0}";
},
{
name = ogonek;
position = "{644, 10}";
},
{
name = top;
position = "{638, 1238}";
},
{
name = topleft;
position = "{588, 1239}";
}
);
layerId = "BE68D89F-AB3F-4BDF-B332-ED50D7C47704";
paths = (
{
closed = 1;
nodes = (
"639 -10 OFFCURVE",
"650 10 OFFCURVE",
"650 48 CURVE SMOOTH",
"650 1192 LINE SMOOTH",
"650 1229 OFFCURVE",
"639 1249 OFFCURVE",
"619 1249 CURVE SMOOTH",
"599 1249 OFFCURVE",
"588 1229 OFFCURVE",
"588 1192 CURVE SMOOTH",
"588 48 LINE SMOOTH",
"588 10 OFFCURVE",
"599 -10 OFFCURVE",
"619 -10 CURVE SMOOTH"
);
}
);
width = 1238;
}
);
leftKerningGroup = h;
rightKerningGroup = l;
},
{
glyphname = Iogonek;
lastChange = "2020-07-09 19:56:27 +0000";
layers = (
{
components = (
{
name = I;
}
);
layerId = "5521DC30-183F-421A-91F3-644B5E24AFE6";
paths = (
{
closed = 1;
nodes = (
"963 -488 OFFCURVE",
"1071 -444 OFFCURVE",
"1071 -350 CURVE SMOOTH",
"1071 -297 OFFCURVE",
"1050 -259 OFFCURVE",
"991 -259 CURVE SMOOTH",
"972 -259 OFFCURVE",
"948 -261 OFFCURVE",
"922 -268 CURVE SMOOTH",
"904 -273 OFFCURVE",
"866 -278 OFFCURVE",
"849 -278 CURVE SMOOTH",
"798 -278 OFFCURVE",
"773 -254 OFFCURVE",
"773 -199 CURVE SMOOTH",
"773 -123 OFFCURVE",
"842 -25 OFFCURVE",
"882 0 CURVE",
"717 0 LINE",
"630 -19 OFFCURVE",
"508 -134 OFFCURVE",
"508 -283 CURVE SMOOTH",
"508 -442 OFFCURVE",
"658 -488 OFFCURVE",
"817 -488 CURVE SMOOTH"
);
}
);
width = 1238;
},
{
components = (
{
name = I;
}
);
layerId = "BE68D89F-AB3F-4BDF-B332-ED50D7C47704";
paths = (
{
closed = 1;
nodes = (
"942 -439 OFFCURVE",
"1007 -432 OFFCURVE",
"1007 -398 CURVE SMOOTH",
"1007 -382 OFFCURVE",
"992 -370 OFFCURVE",
"968 -370 CURVE SMOOTH",
"961 -370 OFFCURVE",
"952 -371 OFFCURVE",
"943 -373 CURVE SMOOTH",
"926 -376 OFFCURVE",
"907 -378 OFFCURVE",
"888 -378 CURVE SMOOTH",
"825 -378 OFFCURVE",
"766 -347 OFFCURVE",
"766 -270 CURVE SMOOTH",
"766 -166 OFFCURVE",
"847 -32 OFFCURVE",
"895 0 CURVE",
"861 0 LINE",
"807 0 OFFCURVE",
"695 -155 OFFCURVE",
"695 -268 CURVE SMOOTH",
"695 -384 OFFCURVE",
"789 -439 OFFCURVE",
"895 -439 CURVE SMOOTH"
);
}
);
width = 1238;
}
);
leftKerningGroup = H;
rightKerningGroup = H;
unicode = 012E;
},
{
glyphname = J;
lastChange = "2020-07-09 19:00:51 +0000";
layers = (
{
anchors = (
{
name = bottom;
position = "{657, 0}";
},
{
name = top;
position = "{895, 1238}";
}
);
layerId = "5521DC30-183F-421A-91F3-644B5E24AFE6";
paths = (
{
closed = 1;
nodes = (
"867 -21 OFFCURVE",
"1086 93 OFFCURVE",
"1086 507 CURVE SMOOTH",
"1086 1029 LINE SMOOTH",
"1086 1165 OFFCURVE",
"1019 1238 OFFCURVE",
"895 1238 CURVE SMOOTH",
"771 1238 OFFCURVE",
"705 1165 OFFCURVE",
"705 1029 CURVE SMOOTH",
"705 541 LINE SMOOTH",
"705 310 OFFCURVE",
"662 246 OFFCURVE",
"567 246 CURVE SMOOTH",
"507 246 OFFCURVE",
"468 271 OFFCURVE",
"447 349 CURVE SMOOTH",
"413 474 OFFCURVE",
"364 541 OFFCURVE",
"238 541 CURVE SMOOTH",
"136 541 OFFCURVE",
"64 483 OFFCURVE",
"64 380 CURVE SMOOTH",
"64 119 OFFCURVE",
"289 -21 OFFCURVE",
"568 -21 CURVE SMOOTH"
);
}
);
width = 1238;
},
{
anchors = (
{
name = bottom;
position = "{638, 0}";
},
{
name = top;
position = "{870, 1238}";
}
);
layerId = "BE68D89F-AB3F-4BDF-B332-ED50D7C47704";
paths = (
{
closed = 1;
nodes = (
"727 -21 OFFCURVE",
"892 137 OFFCURVE",
"892 493 CURVE SMOOTH",
"892 1181 LINE SMOOTH",
"892 1218 OFFCURVE",
"881 1238 OFFCURVE",
"861 1238 CURVE SMOOTH",
"841 1238 OFFCURVE",
"830 1218 OFFCURVE",
"830 1181 CURVE SMOOTH",
"830 497 LINE SMOOTH",
"830 202 OFFCURVE",
"710 42 OFFCURVE",
"485 42 CURVE SMOOTH",
"277 42 OFFCURVE",
"140 181 OFFCURVE",
"140 440 CURVE SMOOTH",
"140 477 OFFCURVE",
"127 497 OFFCURVE",
"107 497 CURVE SMOOTH",
"87 497 OFFCURVE",
"77 476 OFFCURVE",
"77 438 CURVE SMOOTH",
"77 120 OFFCURVE",
"258 -21 OFFCURVE",
"485 -21 CURVE SMOOTH"
);
}
);
width = 1238;
}
);
leftKerningGroup = J;
rightKerningGroup = J;
unicode = 004A;
},
{
glyphname = K;
lastChange = "2020-07-09 19:02:30 +0000";
layers = (
{
anchors = (
{
name = bottom;
position = "{582, 0}";
},
{
name = top;
position = "{581, 1238}";
}
);
layerId = "5521DC30-183F-421A-91F3-644B5E24AFE6";
paths = (
{
closed = 1;
nodes = (
"415 -19 OFFCURVE",
"482 54 OFFCURVE",
"482 190 CURVE SMOOTH",
"482 523 LINE",
"454 523 LINE",
"738 118 LINE SMOOTH",
"803 25 OFFCURVE",
"854 -19 OFFCURVE",
"962 -19 CURVE SMOOTH",
"1064 -19 OFFCURVE",
"1131 36 OFFCURVE",
"1131 119 CURVE SMOOTH",
"1131 172 OFFCURVE",
"1119 205 OFFCURVE",
"1082 253 CURVE SMOOTH",
"902 482 LINE SMOOTH",
"818 589 OFFCURVE",
"778 630 OFFCURVE",
"770 630 CURVE",
"770 622 LINE",
"778 622 OFFCURVE",
"821 663 OFFCURVE",
"894 753 CURVE SMOOTH",
"1083 985 LINE SMOOTH",
"1118 1028 OFFCURVE",
"1134 1069 OFFCURVE",
"1134 1119 CURVE SMOOTH",
"1134 1200 OFFCURVE",
"1080 1248 OFFCURVE",
"981 1248 CURVE SMOOTH",
"872 1248 OFFCURVE",
"808 1192 OFFCURVE",
"739 1100 CURVE SMOOTH",
"445 705 LINE",
"482 705 LINE",
"482 1038 LINE SMOOTH",
"482 1174 OFFCURVE",
"415 1248 OFFCURVE",
"291 1248 CURVE SMOOTH",
"168 1248 OFFCURVE",
"101 1174 OFFCURVE",
"101 1038 CURVE SMOOTH",
"101 190 LINE SMOOTH",
"101 54 OFFCURVE",
"168 -19 OFFCURVE",
"291 -19 CURVE SMOOTH"
);
}
);
width = 1238;
},
{
anchors = (
{
name = bottom;
position = "{619, 0}";
},
{
name = top;
position = "{597, 1238}";
}
);
layerId = "BE68D89F-AB3F-4BDF-B332-ED50D7C47704";
paths = (
{
closed = 1;
nodes = (
"352 -19 OFFCURVE",
"364 -4 OFFCURVE",
"364 33 CURVE SMOOTH",
"364 587 LINE",
"357 587 LINE",
"918 10 LINE SMOOTH",
"938 -11 OFFCURVE",
"948 -19 OFFCURVE",
"964 -19 CURVE SMOOTH",
"985 -19 OFFCURVE",
"995 -9 OFFCURVE",
"995 5 CURVE SMOOTH",
"995 12 OFFCURVE",
"991 23 OFFCURVE",
"983 31 CURVE SMOOTH",
"466 563 LINE SMOOTH",
"438 591 OFFCURVE",
"417 611 OFFCURVE",
"409 612 CURVE",
"409 604 LINE",
"415 604 OFFCURVE",
"437 626 OFFCURVE",
"466 656 CURVE SMOOTH",
"983 1198 LINE SMOOTH",
"990 1206 OFFCURVE",
"994 1215 OFFCURVE",
"994 1224 CURVE SMOOTH",
"994 1236 OFFCURVE",
"986 1248 OFFCURVE",
"968 1248 CURVE SMOOTH",
"950 1248 OFFCURVE",
"939 1239 OFFCURVE",
"919 1218 CURVE SMOOTH",
"352 629 LINE",
"364 629 LINE",
"364 1195 LINE SMOOTH",
"364 1232 OFFCURVE",
"352 1248 OFFCURVE",
"332 1248 CURVE SMOOTH",
"312 1248 OFFCURVE",
"301 1232 OFFCURVE",
"301 1195 CURVE SMOOTH",
"301 33 LINE SMOOTH",
"301 -4 OFFCURVE",
"312 -19 OFFCURVE",
"332 -19 CURVE SMOOTH"
);
}
);
width = 1238;
}
);
leftKerningGroup = H;
rightKerningGroup = K;
unicode = 004B;
},
{
glyphname = L;
lastChange = "2020-10-28 17:59:40 +0000";
layers = (
{
anchors = (
{
name = bottom;
position = "{697, 0}";
},
{
name = center;
position = "{440, 676}";
},
{
name = top;
position = "{434, 1238}";
},
{
name = topright;
position = "{749, 952}";
}
);
layerId = "5521DC30-183F-421A-91F3-644B5E24AFE6";
paths = (
{
closed = 1;
nodes = (
"624 1038 LINE SMOOTH",
"624 1174 OFFCURVE",
"558 1248 OFFCURVE",
"434 1248 CURVE SMOOTH",
"310 1248 OFFCURVE",
"243 1174 OFFCURVE",
"243 1038 CURVE SMOOTH",
"243 210 LINE SMOOTH",
"243 73 OFFCURVE",
"317 0 OFFCURVE",
"453 0 CURVE SMOOTH",
"900 0 LINE SMOOTH",
"1036 0 OFFCURVE",
"1110 47 OFFCURVE",
"1110 133 CURVE SMOOTH",
"1110 220 OFFCURVE",
"1036 267 OFFCURVE",
"900 267 CURVE SMOOTH",
"624 267 LINE"
);
}
);
width = 1238;
},
{
anchors = (
{
name = bottom;
position = "{700, 0}";
},
{
name = center;
position = "{387, 634}";
},
{
name = top;
position = "{370, 1238}";
},
{
name = topright;
position = "{697, 952}";
}
);
layerId = "BE68D89F-AB3F-4BDF-B332-ED50D7C47704";
paths = (
{
closed = 1;
nodes = (
"402 1190 LINE SMOOTH",
"402 1228 OFFCURVE",
"390 1248 OFFCURVE",
"370 1248 CURVE SMOOTH",
"350 1248 OFFCURVE",
"339 1228 OFFCURVE",
"339 1190 CURVE SMOOTH",
"339 57 LINE SMOOTH",
"339 20 OFFCURVE",
"359 0 OFFCURVE",
"396 0 CURVE SMOOTH",
"994 0 LINE SMOOTH",
"1031 0 OFFCURVE",
"1051 11 OFFCURVE",
"1051 30 CURVE SMOOTH",
"1051 50 OFFCURVE",
"1031 61 OFFCURVE",
"994 61 CURVE SMOOTH",
"402 61 LINE"
);
}
);
width = 1238;
}
);
leftKerningGroup = H;
rightKerningGroup = L;
unicode = 004C;
},
{
glyphname = Ldot;
lastChange = "2020-07-09 20:04:37 +0000";
layers = (
{
components = (
{
name = L;
}
);
layerId = "BE68D89F-AB3F-4BDF-B332-ED50D7C47704";
paths = (
{
closed = 1;
nodes = (
"1062 566 OFFCURVE",
"1100 604 OFFCURVE",
"1100 651 CURVE SMOOTH",
"1100 699 OFFCURVE",
"1062 737 OFFCURVE",
"1014 737 CURVE SMOOTH",
"967 737 OFFCURVE",
"929 699 OFFCURVE",
"929 651 CURVE SMOOTH",
"929 604 OFFCURVE",
"967 566 OFFCURVE",
"1014 566 CURVE SMOOTH"
);
}
);
width = 1238;
},
{
components = (
{
name = L;
}
);
layerId = "5521DC30-183F-421A-91F3-644B5E24AFE6";
paths = (
{
closed = 1;
nodes = (
"1181 488 OFFCURVE",
"1261 568 OFFCURVE",
"1261 670 CURVE SMOOTH",
"1261 773 OFFCURVE",
"1181 853 OFFCURVE",
"1080 853 CURVE SMOOTH",
"979 853 OFFCURVE",
"899 773 OFFCURVE",
"899 670 CURVE SMOOTH",
"899 568 OFFCURVE",
"979 488 OFFCURVE",
"1080 488 CURVE SMOOTH"
);
}
);
width = 1238;
}
);
unicode = 013F;
},
{
glyphname = Lslash;
lastChange = "2020-07-09 20:04:47 +0000";
layers = (
{
components = (
{
name = L;
}
);
layerId = "5521DC30-183F-421A-91F3-644B5E24AFE6";
paths = (
{
closed = 1;
nodes = (
"269 315 OFFCURVE",
"319 335 OFFCURVE",
"376 376 CURVE SMOOTH",
"736 632 LINE SMOOTH",
"812 686 OFFCURVE",
"850 742 OFFCURVE",
"850 795 CURVE SMOOTH",
"850 859 OFFCURVE",
"795 923 OFFCURVE",
"724 923 CURVE SMOOTH",
"680 923 OFFCURVE",
"630 903 OFFCURVE",
"572 862 CURVE SMOOTH",
"213 606 LINE SMOOTH",
"137 552 OFFCURVE",
"99 495 OFFCURVE",
"99 442 CURVE SMOOTH",
"99 379 OFFCURVE",
"153 315 OFFCURVE",
"225 315 CURVE SMOOTH"
);
}
);
width = 1238;
},
{
components = (
{
name = L;
}
);
layerId = "BE68D89F-AB3F-4BDF-B332-ED50D7C47704";
paths = (
{
closed = 1;
nodes = (
"215 349 OFFCURVE",
"231 356 OFFCURVE",
"249 374 CURVE SMOOTH",
"543 669 LINE SMOOTH",
"560 686 OFFCURVE",
"569 701 OFFCURVE",
"569 713 CURVE SMOOTH",
"569 728 OFFCURVE",
"558 738 OFFCURVE",
"545 738 CURVE SMOOTH",
"532 738 OFFCURVE",
"516 729 OFFCURVE",
"499 711 CURVE SMOOTH",
"206 417 LINE SMOOTH",
"189 400 OFFCURVE",
"180 385 OFFCURVE",
"180 372 CURVE SMOOTH",
"180 359 OFFCURVE",
"190 349 OFFCURVE",
"203 349 CURVE SMOOTH"
);
}
);
width = 1238;
}
);
leftKerningGroup = H;
rightKerningGroup = L;
unicode = 0141;
},
{
glyphname = M;
lastChange = "2021-02-07 18:33:25 +0000";
layers = (
{
anchors = (
{
name = bottom;
position = "{619, 0}";
},
{
name = top;
position = "{619, 1238}";
}
);
layerId = "5521DC30-183F-421A-91F3-644B5E24AFE6";
paths = (
{
closed = 1;
nodes = (
"343 -10 OFFCURVE",
"395 62 OFFCURVE",
"395 198 CURVE SMOOTH",
"395 960 LINE",
"375 960 LINE",
"470 320 LINE SMOOTH",
"489 190 OFFCURVE",
"525 133 OFFCURVE",
"616 133 CURVE SMOOTH",
"708 133 OFFCURVE",
"745 190 OFFCURVE",
"763 320 CURVE SMOOTH",
"854 961 LINE",
"834 961 LINE",
"834 198 LINE SMOOTH",
"834 62 OFFCURVE",
"898 -10 OFFCURVE",
"1022 -10 CURVE SMOOTH",
"1133 -10 OFFCURVE",
"1199 55 OFFCURVE",
"1199 173 CURVE SMOOTH",
"1199 251 OFFCURVE",
"1150 941 OFFCURVE",
"1139 1055 CURVE SMOOTH",
"1126 1189 OFFCURVE",
"1036 1257 OFFCURVE",
"904 1257 CURVE SMOOTH",
"893 1257 LINE SMOOTH",
"763 1257 OFFCURVE",
"679 1191 OFFCURVE",
"663 1061 CURVE SMOOTH",
"593 508 LINE",
"638 508 LINE",
"571 1061 LINE SMOOTH",
"555 1191 OFFCURVE",
"471 1257 OFFCURVE",
"341 1257 CURVE SMOOTH",
"329 1257 LINE SMOOTH",
"196 1257 OFFCURVE",
"105 1189 OFFCURVE",
"93 1055 CURVE SMOOTH",
"83 941 OFFCURVE",
"33 269 OFFCURVE",
"33 173 CURVE SMOOTH",
"33 55 OFFCURVE",
"108 -10 OFFCURVE",
"219 -10 CURVE SMOOTH"
);
}
);
width = 1238;
},
{
anchors = (
{
name = bottom;
position = "{629, 0}";
},
{
name = top;
position = "{629, 1238}";
}
);
layerId = "BE68D89F-AB3F-4BDF-B332-ED50D7C47704";
paths = (
{
closed = 1;
nodes = (
"169 -10 OFFCURVE",
"177 5 OFFCURVE",
"181 40 CURVE SMOOTH",
"321 1202 LINE",
"308 1202 LINE",
"574 102 LINE SMOOTH",
"582 70 OFFCURVE",
"602 53 OFFCURVE",
"630 53 CURVE SMOOTH",
"657 53 OFFCURVE",
"677 70 OFFCURVE",
"685 102 CURVE SMOOTH",
"958 1203 LINE",
"941 1203 LINE",
"1078 40 LINE SMOOTH",
"1082 5 OFFCURVE",
"1092 -10 OFFCURVE",
"1114 -10 CURVE SMOOTH",
"1133 -10 OFFCURVE",
"1142 4 OFFCURVE",
"1142 34 CURVE SMOOTH",
"1142 65 OFFCURVE",
"1013 1134 OFFCURVE",
"1004 1203 CURVE SMOOTH",
"999 1238 OFFCURVE",
"984 1257 OFFCURVE",
"951 1257 CURVE SMOOTH",
"950 1257 LINE SMOOTH",
"917 1257 OFFCURVE",
"895 1242 OFFCURVE",
"887 1209 CURVE SMOOTH",
"622 110 LINE",
"637 110 LINE",
"372 1209 LINE SMOOTH",
"364 1241 OFFCURVE",
"342 1257 OFFCURVE",
"310 1257 CURVE SMOOTH",
"309 1257 LINE SMOOTH",
"275 1257 OFFCURVE",
"260 1240 OFFCURVE",
"255 1203 CURVE SMOOTH",
"246 1134 OFFCURVE",
"117 75 OFFCURVE",
"117 34 CURVE SMOOTH",
"117 4 OFFCURVE",
"129 -10 OFFCURVE",
"148 -10 CURVE SMOOTH"
);
}
);
width = 1238;
},
{
anchors = (
{
name = bottom;
position = "{624, 0}";
},
{
name = top;
position = "{624, 1238}";
}
);
associatedMasterId = "BE68D89F-AB3F-4BDF-B332-ED50D7C47704";
layerId = "1C91F966-6A21-47CE-942E-9D1D0A5D64E5";
name = "{500}";
paths = (
{
closed = 1;
nodes = (
"256 -10 OFFCURVE",
"286 33 OFFCURVE",
"293 119 CURVE SMOOTH",
"369 1081 LINE",
"299 1081 LINE",
"494 211 LINE SMOOTH",
"512 130 OFFCURVE",
"564 93 OFFCURVE",
"624 93 CURVE SMOOTH",
"683 93 OFFCURVE",
"735 130 OFFCURVE",
"753 211 CURVE SMOOTH",
"950 1082 LINE",
"879 1082 LINE",
"952 119 LINE SMOOTH",
"959 33 OFFCURVE",
"996 -10 OFFCURVE",
"1069 -10 CURVE SMOOTH",
"1134 -10 OFFCURVE",
"1171 30 OFFCURVE",
"1171 104 CURVE SMOOTH",
"1171 182 OFFCURVE",
"1070 1038 OFFCURVE",
"1058 1130 CURVE SMOOTH",
"1047 1213 OFFCURVE",
"1006 1257 OFFCURVE",
"924 1257 CURVE SMOOTH",
"918 1257 LINE SMOOTH",
"836 1257 OFFCURVE",
"777 1216 OFFCURVE",
"761 1135 CURVE SMOOTH",
"594 309 LINE",
"653 309 LINE",
"487 1135 LINE SMOOTH",
"471 1215 OFFCURVE",
"412 1257 OFFCURVE",
"330 1257 CURVE SMOOTH",
"324 1257 LINE SMOOTH",
"241 1257 OFFCURVE",
"201 1214 OFFCURVE",
"190 1130 CURVE SMOOTH",
"178 1038 OFFCURVE",
"76 196 OFFCURVE",
"76 104 CURVE SMOOTH",
"76 30 OFFCURVE",
"119 -10 OFFCURVE",
"184 -10 CURVE SMOOTH"
);
}
);
width = 1238;
}
);
leftKerningGroup = M;
rightKerningGroup = M;
unicode = 004D;
},
{
glyphname = M.ss01;
lastChange = "2021-02-07 18:34:42 +0000";
layers = (
{
anchors = (
{
name = bottom;
position = "{619, 0}";
},
{
name = top;
position = "{619, 1238}";
}
);
layerId = "5521DC30-183F-421A-91F3-644B5E24AFE6";
paths = (
{
closed = 1;
nodes = (
"343 -10 OFFCURVE",
"395 62 OFFCURVE",
"395 198 CURVE SMOOTH",
"395 874 LINE",
"355 874 LINE",
"470 320 LINE SMOOTH",
"497 190 OFFCURVE",
"525 133 OFFCURVE",
"616 133 CURVE SMOOTH",
"708 133 OFFCURVE",
"737 190 OFFCURVE",
"763 320 CURVE SMOOTH",
"874 875 LINE",
"834 875 LINE",
"834 198 LINE SMOOTH",
"834 62 OFFCURVE",
"898 -10 OFFCURVE",
"1022 -10 CURVE SMOOTH",
"1133 -10 OFFCURVE",
"1199 55 OFFCURVE",
"1199 173 CURVE",
"1199 1026 LINE",
"1199 1160 OFFCURVE",
"1103 1257 OFFCURVE",
"970 1257 CURVE SMOOTH",
"942 1257 LINE SMOOTH",
"811 1257 OFFCURVE",
"726 1191 OFFCURVE",
"701 1061 CURVE SMOOTH",
"593 508 LINE",
"638 508 LINE",
"533 1061 LINE SMOOTH",
"508 1191 OFFCURVE",
"420 1257 OFFCURVE",
"290 1257 CURVE SMOOTH",
"262 1257 LINE SMOOTH",
"130 1257 OFFCURVE",
"33 1160 OFFCURVE",
"33 1026 CURVE",
"33 173 LINE",
"33 55 OFFCURVE",
"108 -10 OFFCURVE",
"219 -10 CURVE SMOOTH"
);
}
);
width = 1238;
},
{
anchors = (
{
name = bottom;
position = "{619, 0}";
},
{
name = top;
position = "{619, 1238}";
}
);
layerId = "BE68D89F-AB3F-4BDF-B332-ED50D7C47704";
paths = (
{
closed = 1;
nodes = (
"179 -10 OFFCURVE",
"191 5 OFFCURVE",
"191 40 CURVE SMOOTH",
"191 1202 LINE",
"182 1202 LINE",
"566 275 LINE SMOOTH",
"579 244 OFFCURVE",
"593 227 OFFCURVE",
"621 227 CURVE SMOOTH",
"649 227 OFFCURVE",
"663 244 OFFCURVE",
"676 275 CURVE SMOOTH",
"1069 1203 LINE",
"1050 1203 LINE",
"1050 40 LINE SMOOTH",
"1050 5 OFFCURVE",
"1065 -10 OFFCURVE",
"1087 -10 CURVE SMOOTH",
"1106 -10 OFFCURVE",
"1114 4 OFFCURVE",
"1114 34 CURVE",
"1114 1203 LINE",
"1114 1238 OFFCURVE",
"1094 1257 OFFCURVE",
"1062 1257 CURVE SMOOTH",
"1061 1257 LINE SMOOTH",
"1028 1257 OFFCURVE",
"1010 1241 OFFCURVE",
"997 1209 CURVE SMOOTH",
"613 283 LINE",
"629 283 LINE",
"247 1209 LINE SMOOTH",
"233 1240 OFFCURVE",
"218 1257 OFFCURVE",
"186 1257 CURVE SMOOTH",
"185 1257 LINE SMOOTH",
"151 1257 OFFCURVE",
"128 1240 OFFCURVE",
"128 1203 CURVE",
"128 34 LINE",
"128 4 OFFCURVE",
"139 -10 OFFCURVE",
"158 -10 CURVE SMOOTH"
);
}
);
width = 1238;
},
{
anchors = (
{
name = bottom;
position = "{624, 0}";
},
{
name = top;
position = "{624, 1238}";
}
);
associatedMasterId = "BE68D89F-AB3F-4BDF-B332-ED50D7C47704";
layerId = "7E9FDAEC-8B6A-4F61-B095-E059BC5DFB60";
name = "{500}";
paths = (
{
closed = 1;
nodes = (
"261 -10 OFFCURVE",
"293 33 OFFCURVE",
"293 119 CURVE SMOOTH",
"293 1038 LINE",
"240 1038 LINE",
"499 203 LINE SMOOTH",
"523 124 OFFCURVE",
"559 85 OFFCURVE",
"619 85 CURVE SMOOTH",
"678 85 OFFCURVE",
"714 124 OFFCURVE",
"739 203 CURVE SMOOTH",
"1000 1039 LINE",
"943 1039 LINE",
"943 119 LINE SMOOTH",
"943 33 OFFCURVE",
"982 -10 OFFCURVE",
"1054 -10 CURVE SMOOTH",
"1120 -10 OFFCURVE",
"1157 30 OFFCURVE",
"1157 104 CURVE",
"1157 1114 LINE",
"1157 1199 OFFCURVE",
"1089 1257 OFFCURVE",
"1006 1257 CURVE SMOOTH",
"1002 1257 LINE SMOOTH",
"920 1257 OFFCURVE",
"854 1214 OFFCURVE",
"830 1135 CURVE SMOOTH",
"604 395 LINE",
"633 395 LINE",
"410 1135 LINE SMOOTH",
"386 1214 OFFCURVE",
"319 1257 OFFCURVE",
"238 1257 CURVE SMOOTH",
"234 1257 LINE SMOOTH",
"151 1257 OFFCURVE",
"81 1200 OFFCURVE",
"81 1114 CURVE",
"81 104 LINE",
"81 30 OFFCURVE",
"124 -10 OFFCURVE",
"189 -10 CURVE SMOOTH"
);
}
);
width = 1238;
}
);
leftKerningGroup = M;
rightKerningGroup = M;
},
{
glyphname = N;
lastChange = "2021-02-07 18:32:50 +0000";
layers = (
{
anchors = (
{
name = bottom;
position = "{614, 0}";
},
{
name = top;
position = "{612, 1238}";
}
);
layerId = "5521DC30-183F-421A-91F3-644B5E24AFE6";
paths = (
{
closed = 1;
nodes = (
"384 0 OFFCURVE",
"436 73 OFFCURVE",
"436 210 CURVE SMOOTH",
"436 941 LINE",
"385 911 LINE",
"640 185 LINE SMOOTH",
"683 63 OFFCURVE",
"782 0 OFFCURVE",
"909 0 CURVE SMOOTH",
"911 0 LINE SMOOTH",
"1047 0 OFFCURVE",
"1130 73 OFFCURVE",
"1130 210 CURVE SMOOTH",
"1130 1029 LINE SMOOTH",
"1130 1165 OFFCURVE",
"1064 1238 OFFCURVE",
"960 1238 CURVE SMOOTH",
"846 1238 OFFCURVE",
"789 1165 OFFCURVE",
"789 1029 CURVE SMOOTH",
"789 265 LINE",
"860 336 LINE",
"631 1053 LINE SMOOTH",
"592 1176 OFFCURVE",
"499 1238 OFFCURVE",
"372 1238 CURVE SMOOTH",
"343 1238 LINE SMOOTH",
"207 1238 OFFCURVE",
"103 1165 OFFCURVE",
"103 1029 CURVE SMOOTH",
"103 210 LINE SMOOTH",
"103 73 OFFCURVE",
"156 0 OFFCURVE",
"270 0 CURVE SMOOTH"
);
}
);
width = 1238;
},
{
anchors = (
{
name = bottom;
position = "{615, 0}";
},
{
name = top;
position = "{612, 1238}";
}
);
layerId = "BE68D89F-AB3F-4BDF-B332-ED50D7C47704";
paths = (
{
closed = 1;
nodes = (
"242 -19 OFFCURVE",
"253 -4 OFFCURVE",
"253 33 CURVE SMOOTH",
"253 1172 LINE",
"240 1167 LINE",
"939 21 LINE SMOOTH",
"956 -7 OFFCURVE",
"967 -19 OFFCURVE",
"993 -19 CURVE SMOOTH",
"995 -19 LINE SMOOTH",
"1029 -19 OFFCURVE",
"1038 2 OFFCURVE",
"1038 38 CURVE SMOOTH",
"1038 1195 LINE SMOOTH",
"1038 1232 OFFCURVE",
"1027 1248 OFFCURVE",
"1007 1248 CURVE SMOOTH",
"987 1248 OFFCURVE",
"975 1232 OFFCURVE",
"975 1195 CURVE SMOOTH",
"975 62 LINE",
"990 66 LINE",
"290 1208 LINE SMOOTH",
"273 1235 OFFCURVE",
"262 1248 OFFCURVE",
"236 1248 CURVE SMOOTH",
"235 1248 LINE SMOOTH",
"202 1248 OFFCURVE",
"190 1227 OFFCURVE",
"190 1190 CURVE SMOOTH",
"190 33 LINE SMOOTH",
"190 -4 OFFCURVE",
"202 -19 OFFCURVE",
"222 -19 CURVE SMOOTH"
);
}
);
width = 1238;
},
{
anchors = (
{
name = bottom;
position = "{620, 0}";
},
{
name = top;
position = "{617, 1238}";
}
);
associatedMasterId = "BE68D89F-AB3F-4BDF-B332-ED50D7C47704";
layerId = "B50747A9-A0AD-4DD3-990A-FF776ED8EE76";
name = "{500}";
paths = (
{
closed = 1;
nodes = (
"321 -10 OFFCURVE",
"355 35 OFFCURVE",
"355 122 CURVE SMOOTH",
"355 1057 LINE",
"280 1044 LINE",
"775 103 LINE SMOOTH",
"812 32 OFFCURVE",
"854 -10 OFFCURVE",
"931 -10 CURVE SMOOTH",
"958 -10 LINE SMOOTH",
"1043 -10 OFFCURVE",
"1094 38 OFFCURVE",
"1094 124 CURVE SMOOTH",
"1094 1112 LINE SMOOTH",
"1094 1199 OFFCURVE",
"1055 1243 OFFCURVE",
"988 1243 CURVE SMOOTH",
"916 1243 OFFCURVE",
"882 1199 OFFCURVE",
"882 1112 CURVE SMOOTH",
"882 164 LINE",
"956 189 LINE",
"465 1130 LINE SMOOTH",
"428 1202 OFFCURVE",
"381 1243 OFFCURVE",
"305 1243 CURVE SMOOTH",
"279 1243 LINE SMOOTH",
"194 1243 OFFCURVE",
"143 1196 OFFCURVE",
"143 1110 CURVE SMOOTH",
"143 122 LINE SMOOTH",
"143 35 OFFCURVE",
"177 -10 OFFCURVE",
"249 -10 CURVE SMOOTH"
);
}
);
width = 1238;
}
);
leftKerningGroup = H;
rightKerningGroup = H;
unicode = 004E;
},
{
glyphname = Eng;
lastChange = "2020-11-05 18:21:46 +0000";
layers = (
{
layerId = "5521DC30-183F-421A-91F3-644B5E24AFE6";
paths = (
{
closed = 1;
nodes = (
"745 659 LINE",
"511 1100 LINE SMOOTH",
"456 1203 OFFCURVE",
"409 1250 OFFCURVE",
"292 1250 CURVE SMOOTH",
"287 1250 LINE SMOOTH",
"173 1250 OFFCURVE",
"84 1176 OFFCURVE",
"84 1040 CURVE SMOOTH",
"84 210 LINE SMOOTH",
"84 73 OFFCURVE",
"147 0 OFFCURVE",
"262 0 CURVE SMOOTH",
"377 0 OFFCURVE",
"440 73 OFFCURVE",
"440 210 CURVE SMOOTH",
"440 590 LINE",
"798 0 LINE",
"798 -38 OFFCURVE",
"758 -82 OFFCURVE",
"665 -82 CURVE SMOOTH",
"642 -82 OFFCURVE",
"621 -80 OFFCURVE",
"601 -78 CURVE SMOOTH",
"583 -76 OFFCURVE",
"566 -75 OFFCURVE",
"549 -75 CURVE SMOOTH",
"472 -75 OFFCURVE",
"428 -138 OFFCURVE",
"428 -215 CURVE SMOOTH",
"428 -281 OFFCURVE",
"461 -320 OFFCURVE",
"511 -341 CURVE SMOOTH",
"556 -360 OFFCURVE",
"615 -366 OFFCURVE",
"678 -366 CURVE SMOOTH",
"899 -366 OFFCURVE",
"1101 -274 OFFCURVE",
"1101 -25 CURVE SMOOTH",
"1101 1040 LINE SMOOTH",
"1101 1176 OFFCURVE",
"1038 1250 OFFCURVE",
"923 1250 CURVE SMOOTH",
"808 1250 OFFCURVE",
"745 1176 OFFCURVE",
"745 1040 CURVE SMOOTH"
);
}
);
width = 1238;
},
{
layerId = "BE68D89F-AB3F-4BDF-B332-ED50D7C47704";
paths = (
{
closed = 1;
nodes = (
"872 141 LINE",
"319 1210 LINE SMOOTH",
"305 1237 OFFCURVE",
"294 1251 OFFCURVE",
"265 1251 CURVE SMOOTH",
"263 1251 LINE SMOOTH",
"229 1251 OFFCURVE",
"211 1230 OFFCURVE",
"211 1194 CURVE SMOOTH",
"211 33 LINE SMOOTH",
"211 -4 OFFCURVE",
"223 -19 OFFCURVE",
"243 -19 CURVE SMOOTH",
"263 -19 OFFCURVE",
"274 -4 OFFCURVE",
"274 33 CURVE SMOOTH",
"274 1160 LINE",
"872 0 LINE",
"872 -259 OFFCURVE",
"764 -303 OFFCURVE",
"596 -303 CURVE SMOOTH",
"546 -303 OFFCURVE",
"488 -295 OFFCURVE",
"445 -288 CURVE SMOOTH",
"433 -286 OFFCURVE",
"424 -285 OFFCURVE",
"415 -285 CURVE SMOOTH",
"395 -285 OFFCURVE",
"379 -296 OFFCURVE",
"379 -315 CURVE SMOOTH",
"379 -334 OFFCURVE",
"388 -345 OFFCURVE",
"420 -351 CURVE SMOOTH",
"469 -361 OFFCURVE",
"543 -366 OFFCURVE",
"610 -366 CURVE SMOOTH",
"830 -366 OFFCURVE",
"935 -238 OFFCURVE",
"935 -13 CURVE SMOOTH",
"935 1200 LINE SMOOTH",
"935 1237 OFFCURVE",
"924 1251 OFFCURVE",
"904 1251 CURVE SMOOTH",
"884 1251 OFFCURVE",
"872 1237 OFFCURVE",
"872 1200 CURVE SMOOTH"
);
}
);
width = 1238;
}
);
leftKerningGroup = Eng;
rightKerningGroup = Eng;
unicode = 014A;
},
{
glyphname = O;
lastChange = "2020-07-09 19:00:51 +0000";
layers = (
{
anchors = (
{
name = bottom;
position = "{609, 0}";
},
{
name = center;
position = "{624, 619}";
},
{
name = ogonek;
position = "{787, 0}";
},
{
name = top;
position = "{620, 1250}";
},
{
name = topleft;
position = "{49, 1250}";
},
{
name = topright;
position = "{897, 1176}";
}
);
layerId = "5521DC30-183F-421A-91F3-644B5E24AFE6";
paths = (
{
closed = 1;
nodes = (
"900 -21 OFFCURVE",
"1197 139 OFFCURVE",
"1197 615 CURVE SMOOTH",
"1197 1090 OFFCURVE",
"900 1250 OFFCURVE",
"620 1250 CURVE SMOOTH",
"338 1250 OFFCURVE",
"41 1090 OFFCURVE",
"41 615 CURVE SMOOTH",
"41 139 OFFCURVE",
"338 -21 OFFCURVE",
"620 -21 CURVE SMOOTH"
);
},
{
closed = 1;
nodes = (
"492 246 OFFCURVE",
"427 377 OFFCURVE",
"427 615 CURVE SMOOTH",
"427 851 OFFCURVE",
"492 983 OFFCURVE",
"620 983 CURVE SMOOTH",
"746 983 OFFCURVE",
"811 851 OFFCURVE",
"811 615 CURVE SMOOTH",
"811 377 OFFCURVE",
"746 246 OFFCURVE",
"620 246 CURVE SMOOTH"
);
}
);
width = 1238;
},
{
anchors = (
{
name = bottom;
position = "{611, 0}";
},
{
name = center;
position = "{624, 619}";
},
{
name = ogonek;
position = "{758, 0}";
},
{
name = top;
position = "{619, 1238}";
},
{
name = topleft;
position = "{86, 1238}";
},
{
name = topright;
position = "{862, 1175}";
}
);
layerId = "BE68D89F-AB3F-4BDF-B332-ED50D7C47704";
paths = (
{
closed = 1;
nodes = (
"859 -21 OFFCURVE",
"1122 162 OFFCURVE",
"1122 615 CURVE SMOOTH",
"1122 1067 OFFCURVE",
"859 1250 OFFCURVE",
"619 1250 CURVE SMOOTH",
"377 1250 OFFCURVE",
"114 1067 OFFCURVE",
"114 615 CURVE SMOOTH",
"114 162 OFFCURVE",
"377 -21 OFFCURVE",
"619 -21 CURVE SMOOTH"
);
},
{
closed = 1;
nodes = (
"404 42 OFFCURVE",
"181 217 OFFCURVE",
"181 615 CURVE SMOOTH",
"181 1011 OFFCURVE",
"404 1187 OFFCURVE",
"619 1187 CURVE SMOOTH",
"832 1187 OFFCURVE",
"1055 1011 OFFCURVE",
"1055 615 CURVE SMOOTH",
"1055 217 OFFCURVE",
"832 42 OFFCURVE",
"619 42 CURVE SMOOTH"
);
}
);
width = 1238;
}
);
leftKerningGroup = O;
rightKerningGroup = O;
unicode = 004F;
},
{
glyphname = Ohorn;
lastChange = "2020-07-09 19:00:51 +0000";
layers = (
{
anchors = (
{
name = bottom;
position = "{611, 0}";
},
{
name = center;
position = "{624, 619}";
},
{
name = ogonek;
position = "{758, 0}";
},
{
name = top;
position = "{619, 1238}";
},
{
name = topleft;
position = "{86, 1238}";
},
{
name = topright;
position = "{862, 1175}";
}
);
components = (
{
name = horncomb.case;
transform = "{1, 0, 0, 1, 455, -63}";
}
);
layerId = "BE68D89F-AB3F-4BDF-B332-ED50D7C47704";
paths = (
{
closed = 1;
nodes = (
"859 -21 OFFCURVE",
"1131 162 OFFCURVE",
"1131 615 CURVE SMOOTH",
"1131 1067 OFFCURVE",
"859 1250 OFFCURVE",
"619 1250 CURVE SMOOTH",
"377 1250 OFFCURVE",
"105 1067 OFFCURVE",
"105 615 CURVE SMOOTH",
"105 162 OFFCURVE",
"377 -21 OFFCURVE",
"619 -21 CURVE SMOOTH"
);
},
{
closed = 1;
nodes = (
"404 42 OFFCURVE",
"171 217 OFFCURVE",
"171 615 CURVE SMOOTH",
"171 1011 OFFCURVE",
"404 1187 OFFCURVE",
"619 1187 CURVE SMOOTH",
"832 1187 OFFCURVE",
"1065 1011 OFFCURVE",
"1065 615 CURVE SMOOTH",
"1065 217 OFFCURVE",
"832 42 OFFCURVE",
"619 42 CURVE SMOOTH"
);
}
);
width = 1238;
},
{
anchors = (
{
name = bottom;
position = "{609, 0}";
},
{
name = center;
position = "{624, 619}";
},
{
name = ogonek;
position = "{787, 0}";
},
{
name = top;
position = "{620, 1250}";
},
{
name = topleft;
position = "{49, 1250}";
},
{
name = topright;
position = "{897, 1176}";
}
);
components = (
{
name = horncomb.case;
transform = "{1, 0, 0, 1, 490, -62}";
}
);
layerId = "5521DC30-183F-421A-91F3-644B5E24AFE6";
paths = (
{
closed = 1;
nodes = (
"900 -21 OFFCURVE",
"1197 139 OFFCURVE",
"1197 615 CURVE SMOOTH",
"1197 1090 OFFCURVE",
"900 1250 OFFCURVE",
"620 1250 CURVE SMOOTH",
"338 1250 OFFCURVE",
"41 1090 OFFCURVE",
"41 615 CURVE SMOOTH",
"41 139 OFFCURVE",
"338 -21 OFFCURVE",
"620 -21 CURVE SMOOTH"
);
},
{
closed = 1;
nodes = (
"492 246 OFFCURVE",
"427 377 OFFCURVE",
"427 615 CURVE SMOOTH",
"427 851 OFFCURVE",
"492 983 OFFCURVE",
"620 983 CURVE SMOOTH",
"746 983 OFFCURVE",
"811 851 OFFCURVE",
"811 615 CURVE SMOOTH",
"811 377 OFFCURVE",
"746 246 OFFCURVE",
"620 246 CURVE SMOOTH"
);
}
);
width = 1238;
}
);
unicode = 01A0;
},
{
glyphname = Oogonek;
lastChange = "2020-07-09 19:56:42 +0000";
layers = (
{
components = (
{
name = O;
}
);
layerId = "BE68D89F-AB3F-4BDF-B332-ED50D7C47704";
paths = (
{
closed = 1;
nodes = (
"909 -392 OFFCURVE",
"974 -385 OFFCURVE",
"974 -351 CURVE SMOOTH",
"974 -335 OFFCURVE",
"959 -323 OFFCURVE",
"935 -323 CURVE SMOOTH",
"928 -323 OFFCURVE",
"919 -324 OFFCURVE",
"910 -326 CURVE SMOOTH",
"893 -329 OFFCURVE",
"874 -331 OFFCURVE",
"855 -331 CURVE SMOOTH",
"792 -331 OFFCURVE",
"733 -300 OFFCURVE",
"733 -223 CURVE SMOOTH",
"733 -119 OFFCURVE",
"814 15 OFFCURVE",
"862 47 CURVE",
"828 47 LINE",
"774 47 OFFCURVE",
"662 -108 OFFCURVE",
"662 -221 CURVE SMOOTH",
"662 -337 OFFCURVE",
"756 -392 OFFCURVE",
"862 -392 CURVE SMOOTH"
);
}
);
width = 1238;
},
{
components = (
{
name = O;
}
);
layerId = "5521DC30-183F-421A-91F3-644B5E24AFE6";
paths = (
{
closed = 1;
nodes = (
"1016 -428 OFFCURVE",
"1124 -384 OFFCURVE",
"1124 -290 CURVE SMOOTH",
"1124 -237 OFFCURVE",
"1103 -199 OFFCURVE",
"1044 -199 CURVE SMOOTH",
"1025 -199 OFFCURVE",
"1001 -201 OFFCURVE",
"975 -208 CURVE SMOOTH",
"957 -213 OFFCURVE",
"919 -218 OFFCURVE",
"902 -218 CURVE SMOOTH",
"851 -218 OFFCURVE",
"826 -194 OFFCURVE",
"826 -139 CURVE SMOOTH",
"826 -63 OFFCURVE",
"895 35 OFFCURVE",
"935 60 CURVE",
"770 60 LINE",
"683 41 OFFCURVE",
"561 -74 OFFCURVE",
"561 -223 CURVE SMOOTH",
"561 -382 OFFCURVE",
"711 -428 OFFCURVE",
"870 -428 CURVE SMOOTH"
);
}
);
width = 1238;
}
);
unicode = 01EA;
},
{
glyphname = Oslash;
lastChange = "2020-07-09 19:00:51 +0000";
layers = (
{
anchors = (
{
name = bottom;
position = "{619, 0}";
},
{
name = top;
position = "{619, 1238}";
}
);
components = (
{
name = O;
}
);
layerId = "5521DC30-183F-421A-91F3-644B5E24AFE6";
paths = (
{
closed = 1;
nodes = (
"957 1330 OFFCURVE",
"924 1290 OFFCURVE",
"861 1194 CURVE SMOOTH",
"164 139 LINE SMOOTH",
"131 90 OFFCURVE",
"118 49 OFFCURVE",
"118 15 CURVE SMOOTH",
"118 -49 OFFCURVE",
"166 -82 OFFCURVE",
"216 -82 CURVE SMOOTH",
"280 -82 OFFCURVE",
"317 -42 OFFCURVE",
"380 53 CURVE SMOOTH",
"1082 1117 LINE SMOOTH",
"1116 1169 OFFCURVE",
"1130 1210 OFFCURVE",
"1130 1243 CURVE SMOOTH",
"1130 1301 OFFCURVE",
"1086 1330 OFFCURVE",
"1037 1330 CURVE SMOOTH"
);
}
);
width = 1238;
},
{
anchors = (
{
name = bottom;
position = "{619, 0}";
},
{
name = top;
position = "{619, 1238}";
}
);
components = (
{
name = O;
}
);
layerId = "BE68D89F-AB3F-4BDF-B332-ED50D7C47704";
paths = (
{
closed = 1;
nodes = (
"1049 1302 OFFCURVE",
"1039 1291 OFFCURVE",
"1022 1266 CURVE SMOOTH",
"158 -10 LINE SMOOTH",
"149 -24 OFFCURVE",
"145 -36 OFFCURVE",
"145 -46 CURVE SMOOTH",
"145 -63 OFFCURVE",
"156 -72 OFFCURVE",
"170 -72 CURVE SMOOTH",
"192 -72 OFFCURVE",
"200 -62 OFFCURVE",
"217 -36 CURVE SMOOTH",
"1082 1240 LINE SMOOTH",
"1090 1253 OFFCURVE",
"1094 1264 OFFCURVE",
"1094 1273 CURVE SMOOTH",
"1094 1291 OFFCURVE",
"1080 1302 OFFCURVE",
"1066 1302 CURVE SMOOTH"
);
}
);
width = 1238;
}
);
leftKerningGroup = O;
rightKerningGroup = O;
unicode = 00D8;
},
{
color = 4;
glyphname = OE;
lastChange = "2020-07-09 19:00:51 +0000";
layers = (
{
anchors = (
{
name = bottom;
position = "{619, 0}";
},
{
name = top;
position = "{619, 1238}";
}
);
layerId = "5521DC30-183F-421A-91F3-644B5E24AFE6";
paths = (
{
closed = 1;
nodes = (
"693 -21 OFFCURVE",
"876 139 OFFCURVE",
"876 615 CURVE SMOOTH",
"876 1090 OFFCURVE",
"693 1250 OFFCURVE",
"461 1250 CURVE SMOOTH",
"227 1250 OFFCURVE",
"-4 1090 OFFCURVE",
"-4 615 CURVE SMOOTH",
"-4 139 OFFCURVE",
"227 -21 OFFCURVE",
"461 -21 CURVE SMOOTH"
);
},
{
closed = 1;
nodes = (
"381 246 OFFCURVE",
"363 377 OFFCURVE",
"363 615 CURVE SMOOTH",
"363 851 OFFCURVE",
"381 983 OFFCURVE",
"461 983 CURVE SMOOTH",
"539 983 OFFCURVE",
"557 851 OFFCURVE",
"557 615 CURVE SMOOTH",
"557 377 OFFCURVE",
"539 246 OFFCURVE",
"461 246 CURVE SMOOTH"
);
},
{
closed = 1;
nodes = (
"1251 1191 OFFCURVE",
"1178 1238 OFFCURVE",
"1042 1238 CURVE SMOOTH",
"768 1238 LINE SMOOTH",
"631 1238 OFFCURVE",
"558 1165 OFFCURVE",
"558 1029 CURVE SMOOTH",
"558 210 LINE SMOOTH",
"558 73 OFFCURVE",
"631 0 OFFCURVE",
"768 0 CURVE SMOOTH",
"1042 0 LINE SMOOTH",
"1178 0 OFFCURVE",
"1251 47 OFFCURVE",
"1251 133 CURVE SMOOTH",
"1251 220 OFFCURVE",
"1178 267 OFFCURVE",
"1042 267 CURVE SMOOTH",
"910 267 LINE",
"910 474 LINE",
"1025 474 LINE SMOOTH",
"1161 474 OFFCURVE",
"1234 521 OFFCURVE",
"1234 608 CURVE SMOOTH",
"1234 694 OFFCURVE",
"1161 741 OFFCURVE",
"1025 741 CURVE SMOOTH",
"910 741 LINE",
"910 971 LINE",
"1042 971 LINE SMOOTH",
"1178 971 OFFCURVE",
"1251 1018 OFFCURVE",
"1251 1105 CURVE SMOOTH"
);
}
);
width = 1238;
},
{
anchors = (
{
name = bottom;
position = "{619, 0}";
},
{
name = top;
position = "{619, 1238}";
}
);
layerId = "BE68D89F-AB3F-4BDF-B332-ED50D7C47704";
paths = (
{
closed = 1;
nodes = (
"550 -21 OFFCURVE",
"718 143 OFFCURVE",
"718 615 CURVE SMOOTH",
"718 1086 OFFCURVE",
"550 1250 OFFCURVE",
"387 1250 CURVE SMOOTH",
"221 1250 OFFCURVE",
"53 1086 OFFCURVE",
"53 615 CURVE SMOOTH",
"53 143 OFFCURVE",
"221 -21 OFFCURVE",
"387 -21 CURVE SMOOTH"
);
},
{
closed = 1;
nodes = (
"248 42 OFFCURVE",
"120 198 OFFCURVE",
"120 615 CURVE SMOOTH",
"120 1030 OFFCURVE",
"248 1187 OFFCURVE",
"387 1187 CURVE SMOOTH",
"524 1187 OFFCURVE",
"651 1030 OFFCURVE",
"651 615 CURVE SMOOTH",
"651 198 OFFCURVE",
"524 42 OFFCURVE",
"387 42 CURVE SMOOTH"
);
},
{
closed = 1;
nodes = (
"1159 1228 OFFCURVE",
"1139 1238 OFFCURVE",
"1102 1238 CURVE SMOOTH",
"713 1238 LINE SMOOTH",
"676 1238 OFFCURVE",
"656 1218 OFFCURVE",
"656 1181 CURVE SMOOTH",
"656 57 LINE SMOOTH",
"656 20 OFFCURVE",
"676 0 OFFCURVE",
"713 0 CURVE SMOOTH",
"1102 0 LINE SMOOTH",
"1139 0 OFFCURVE",
"1159 11 OFFCURVE",
"1159 30 CURVE SMOOTH",
"1159 50 OFFCURVE",
"1139 61 OFFCURVE",
"1102 61 CURVE SMOOTH",
"719 61 LINE",
"719 577 LINE",
"1009 577 LINE SMOOTH",
"1046 577 OFFCURVE",
"1066 589 OFFCURVE",
"1066 608 CURVE SMOOTH",
"1066 627 OFFCURVE",
"1046 638 OFFCURVE",
"1009 638 CURVE SMOOTH",
"719 638 LINE",
"719 1177 LINE",
"1102 1177 LINE SMOOTH",
"1139 1177 OFFCURVE",
"1159 1189 OFFCURVE",
"1159 1208 CURVE SMOOTH"
);
}
);
width = 1238;
}
);
leftKerningGroup = O;
rightKerningGroup = E;
unicode = 0152;
},
{
glyphname = P;
lastChange = "2020-07-09 19:00:51 +0000";
layers = (
{
anchors = (
{
name = bottom;
position = "{533, 0}";
},
{
name = top;
position = "{650, 1238}";
}
);
layerId = "5521DC30-183F-421A-91F3-644B5E24AFE6";
paths = (
{
closed = 1;
nodes = (
"619 971 LINE SMOOTH",
"705 971 OFFCURVE",
"768 952 OFFCURVE",
"768 832 CURVE SMOOTH",
"768 712 OFFCURVE",
"705 688 OFFCURVE",
"619 688 CURVE SMOOTH",
"539 688 LINE",
"539 971 LINE"
);
},
{
closed = 1;
nodes = (
"830 421 OFFCURVE",
"1149 461 OFFCURVE",
"1149 832 CURVE SMOOTH",
"1149 1204 OFFCURVE",
"830 1238 OFFCURVE",
"680 1238 CURVE SMOOTH",
"368 1238 LINE SMOOTH",
"231 1238 OFFCURVE",
"158 1165 OFFCURVE",
"158 1029 CURVE SMOOTH",
"158 210 LINE SMOOTH",
"158 73 OFFCURVE",
"225 0 OFFCURVE",
"349 0 CURVE SMOOTH",
"472 0 OFFCURVE",
"539 73 OFFCURVE",
"539 210 CURVE SMOOTH",
"539 421 LINE",
"680 421 LINE SMOOTH"
);
}
);
width = 1238;
},
{
anchors = (
{
name = bottom;
position = "{571, 0}";
},
{
name = top;
position = "{642, 1238}";
}
);
layerId = "BE68D89F-AB3F-4BDF-B332-ED50D7C47704";
paths = (
{
closed = 1;
nodes = (
"619 1177 LINE SMOOTH",
"743 1177 OFFCURVE",
"983 1168 OFFCURVE",
"983 865 CURVE SMOOTH",
"983 562 OFFCURVE",
"743 537 OFFCURVE",
"619 537 CURVE SMOOTH",
"331 537 LINE",
"331 1177 LINE"
);
},
{
closed = 1;
nodes = (
"775 476 OFFCURVE",
"1048 520 OFFCURVE",
"1048 865 CURVE SMOOTH",
"1048 1210 OFFCURVE",
"775 1238 OFFCURVE",
"623 1238 CURVE SMOOTH",
"326 1238 LINE SMOOTH",
"289 1238 OFFCURVE",
"269 1218 OFFCURVE",
"269 1181 CURVE SMOOTH",
"269 57 LINE SMOOTH",
"269 20 OFFCURVE",
"280 0 OFFCURVE",
"300 0 CURVE SMOOTH",
"320 0 OFFCURVE",
"331 20 OFFCURVE",
"331 57 CURVE SMOOTH",
"331 476 LINE",
"623 476 LINE SMOOTH"
);
}
);
width = 1238;
}
);
leftKerningGroup = H;
rightKerningGroup = P;
unicode = 0050;
},
{
glyphname = Thorn;
lastChange = "2020-07-15 19:59:46 +0000";
layers = (
{
anchors = (
{
name = bottom;
position = "{600, 0}";
},
{
name = top;
position = "{600, 1333}";
}
);
layerId = "5521DC30-183F-421A-91F3-644B5E24AFE6";
paths = (
{
closed = 1;
nodes = (
"512 988 LINE",
"512 1038 LINE SMOOTH",
"512 1174 OFFCURVE",
"447 1248 OFFCURVE",
"325 1248 CURVE SMOOTH",
"203 1248 OFFCURVE",
"137 1174 OFFCURVE",
"137 1038 CURVE SMOOTH",
"137 190 LINE SMOOTH",
"137 54 OFFCURVE",
"203 -19 OFFCURVE",
"325 -19 CURVE SMOOTH",
"444 -19 OFFCURVE",
"512 54 OFFCURVE",
"512 160 CURVE",
"512 207 LINE",
"638 207 LINE SMOOTH",
"798 207 OFFCURVE",
"1131 223 OFFCURVE",
"1131 597 CURVE SMOOTH",
"1131 971 OFFCURVE",
"798 988 OFFCURVE",
"638 988 CURVE SMOOTH"
);
},
{
closed = 1;
nodes = (
"512 464 LINE",
"512 730 LINE",
"570 730 LINE SMOOTH",
"675 730 OFFCURVE",
"764 714 OFFCURVE",
"764 597 CURVE SMOOTH",
"764 471 OFFCURVE",
"674 464 OFFCURVE",
"570 464 CURVE SMOOTH"
);
}
);
width = 1238;
},
{
anchors = (
{
name = bottom;
position = "{571, 0}";
},
{
name = top;
position = "{615, 1238}";
}
);
layerId = "BE68D89F-AB3F-4BDF-B332-ED50D7C47704";
paths = (
{
closed = 1;
nodes = (
"350 959 LINE",
"350 1195 LINE SMOOTH",
"350 1232 OFFCURVE",
"339 1248 OFFCURVE",
"319 1248 CURVE SMOOTH",
"299 1248 OFFCURVE",
"288 1232 OFFCURVE",
"288 1195 CURVE SMOOTH",
"288 33 LINE SMOOTH",
"288 -4 OFFCURVE",
"299 -19 OFFCURVE",
"319 -19 CURVE SMOOTH",
"339 -19 OFFCURVE",
"350 -4 OFFCURVE",
"350 33 CURVE SMOOTH",
"350 273 LINE",
"575 273 LINE SMOOTH",
"735 273 OFFCURVE",
"990 308 OFFCURVE",
"990 633 CURVE SMOOTH",
"990 940 OFFCURVE",
"735 959 OFFCURVE",
"575 959 CURVE SMOOTH"
);
},
{
closed = 1;
nodes = (
"350 334 LINE",
"350 898 LINE",
"600 898 LINE SMOOTH",
"724 898 OFFCURVE",
"926 889 OFFCURVE",
"926 633 CURVE SMOOTH",
"926 359 OFFCURVE",
"724 334 OFFCURVE",
"600 334 CURVE SMOOTH"
);
}
);
width = 1238;
}
);
leftKerningGroup = H;
rightKerningGroup = Thorn;
unicode = 00DE;
},
{
glyphname = Q;
lastChange = "2020-07-09 19:03:08 +0000";
layers = (
{
anchors = (
{
name = bottom;
position = "{619, 0}";
},
{
name = top;
position = "{619, 1238}";
}
);
components = (
{
name = O;
}
);
layerId = "5521DC30-183F-421A-91F3-644B5E24AFE6";
paths = (
{
closed = 1;
nodes = (
"1052 -310 OFFCURVE",
"1113 -261 OFFCURVE",
"1113 -183 CURVE SMOOTH",
"1113 -119 OFFCURVE",
"1065 -62 OFFCURVE",
"1002 -43 CURVE SMOOTH",
"941 -25 OFFCURVE",
"880 15 OFFCURVE",
"854 62 CURVE SMOOTH",
"822 121 OFFCURVE",
"751 154 OFFCURVE",
"695 154 CURVE SMOOTH",
"627 154 OFFCURVE",
"582 102 OFFCURVE",
"582 32 CURVE SMOOTH",
"582 -118 OFFCURVE",
"802 -310 OFFCURVE",
"968 -310 CURVE SMOOTH"
);
}
);
width = 1238;
},
{
anchors = (
{
name = bottom;
position = "{670, 0}";
},
{
name = top;
position = "{619, 1250}";
}
);
components = (
{
name = O;
}
);
layerId = "BE68D89F-AB3F-4BDF-B332-ED50D7C47704";
paths = (
{
closed = 1;
nodes = (
"987 -271 OFFCURVE",
"1008 -265 OFFCURVE",
"1008 -241 CURVE SMOOTH",
"1008 -225 OFFCURVE",
"996 -214 OFFCURVE",
"951 -207 CURVE SMOOTH",
"858 -192 OFFCURVE",
"716 -134 OFFCURVE",
"689 -16 CURVE SMOOTH",
"682 14 OFFCURVE",
"667 25 OFFCURVE",
"652 25 CURVE SMOOTH",
"635 25 OFFCURVE",
"616 17 OFFCURVE",
"616 -5 CURVE SMOOTH",
"616 -152 OFFCURVE",
"819 -271 OFFCURVE",
"964 -271 CURVE SMOOTH"
);
}
);
width = 1238;
}
);
leftKerningGroup = O;
rightKerningGroup = O;
unicode = 0051;
},
{
glyphname = R;
lastChange = "2021-02-07 18:34:00 +0000";
layers = (
{
anchors = (
{
name = bottom;
position = "{618, 0}";
},
{
name = top;
position = "{602, 1238}";
}
);
layerId = "5521DC30-183F-421A-91F3-644B5E24AFE6";
paths = (
{
closed = 1;
nodes = (
"606 971 LINE SMOOTH",
"709 971 OFFCURVE",
"750 931 OFFCURVE",
"750 846 CURVE SMOOTH",
"750 760 OFFCURVE",
"705 720 OFFCURVE",
"602 720 CURVE SMOOTH",
"482 720 LINE",
"482 971 LINE"
);
},
{
closed = 1;
nodes = (
"810 453 OFFCURVE",
"1131 526 OFFCURVE",
"1131 867 CURVE SMOOTH",
"1131 1208 OFFCURVE",
"838 1238 OFFCURVE",
"678 1238 CURVE SMOOTH",
"310 1238 LINE SMOOTH",
"174 1238 OFFCURVE",
"101 1165 OFFCURVE",
"101 1029 CURVE SMOOTH",
"101 190 LINE SMOOTH",
"101 54 OFFCURVE",
"168 -19 OFFCURVE",
"291 -19 CURVE SMOOTH",
"415 -19 OFFCURVE",
"482 54 OFFCURVE",
"482 190 CURVE SMOOTH",
"482 453 LINE",
"669 453 LINE SMOOTH"
);
},
{
closed = 1;
nodes = (
"1074 -19 OFFCURVE",
"1134 39 OFFCURVE",
"1134 126 CURVE SMOOTH",
"1134 158 OFFCURVE",
"1124 194 OFFCURVE",
"1108 232 CURVE SMOOTH",
"955 600 LINE",
"609 518 LINE",
"738 168 LINE SMOOTH",
"782 49 OFFCURVE",
"824 -19 OFFCURVE",
"960 -19 CURVE SMOOTH"
);
}
);
width = 1238;
},
{
anchors = (
{
name = bottom;
position = "{600, 0}";
},
{
name = top;
position = "{617, 1238}";
}
);
layerId = "BE68D89F-AB3F-4BDF-B332-ED50D7C47704";
paths = (
{
closed = 1;
nodes = (
"688 1177 LINE SMOOTH",
"869 1177 OFFCURVE",
"994 1098 OFFCURVE",
"994 927 CURVE SMOOTH",
"994 756 OFFCURVE",
"878 658 OFFCURVE",
"707 658 CURVE SMOOTH",
"324 658 LINE",
"324 1177 LINE"
);
},
{
closed = 1;
nodes = (
"899 597 OFFCURVE",
"1059 702 OFFCURVE",
"1059 927 CURVE SMOOTH",
"1059 1153 OFFCURVE",
"895 1238 OFFCURVE",
"688 1238 CURVE SMOOTH",
"318 1238 LINE SMOOTH",
"281 1238 OFFCURVE",
"261 1218 OFFCURVE",
"261 1181 CURVE SMOOTH",
"261 48 LINE SMOOTH",
"261 10 OFFCURVE",
"272 -10 OFFCURVE",
"292 -10 CURVE SMOOTH",
"312 -10 OFFCURVE",
"324 10 OFFCURVE",
"324 48 CURVE SMOOTH",
"324 597 LINE",
"720 597 LINE SMOOTH"
);
},
{
closed = 1;
nodes = (
"1020 -10 OFFCURVE",
"1034 0 OFFCURVE",
"1034 21 CURVE SMOOTH",
"1034 29 OFFCURVE",
"1033 37 OFFCURVE",
"1028 48 CURVE SMOOTH",
"760 636 LINE",
"695 613 LINE",
"959 35 LINE SMOOTH",
"973 4 OFFCURVE",
"981 -10 OFFCURVE",
"1005 -10 CURVE SMOOTH"
);
}
);
width = 1238;
}
);
leftKerningGroup = H;
rightKerningGroup = R;
unicode = 0052;
},
{
glyphname = S;
lastChange = "2020-07-09 19:03:31 +0000";
layers = (
{
anchors = (
{
name = bottom;
position = "{631, -2}";
},
{
name = top;
position = "{625, 1238}";
}
);
layerId = "5521DC30-183F-421A-91F3-644B5E24AFE6";
paths = (
{
closed = 1;
nodes = (
"953 -21 OFFCURVE",
"1173 135 OFFCURVE",
"1173 375 CURVE SMOOTH",
"1173 607 OFFCURVE",
"976 706 OFFCURVE",
"723 764 CURVE SMOOTH",
"559 802 OFFCURVE",
"477 843 OFFCURVE",
"477 897 CURVE SMOOTH",
"477 947 OFFCURVE",
"542 983 OFFCURVE",
"631 983 CURVE SMOOTH",
"713 983 OFFCURVE",
"757 955 OFFCURVE",
"792 921 CURVE SMOOTH",
"830 885 OFFCURVE",
"891 828 OFFCURVE",
"981 828 CURVE SMOOTH",
"1070 828 OFFCURVE",
"1130 883 OFFCURVE",
"1130 973 CURVE SMOOTH",
"1130 1049 OFFCURVE",
"1087 1108 OFFCURVE",
"1023 1152 CURVE SMOOTH",
"927 1217 OFFCURVE",
"780 1250 OFFCURVE",
"640 1250 CURVE SMOOTH",
"325 1250 OFFCURVE",
"91 1110 OFFCURVE",
"91 891 CURVE SMOOTH",
"91 696 OFFCURVE",
"228 542 OFFCURVE",
"554 472 CURVE SMOOTH",
"714 438 OFFCURVE",
"787 418 OFFCURVE",
"787 349 CURVE SMOOTH",
"787 285 OFFCURVE",
"723 246 OFFCURVE",
"627 246 CURVE SMOOTH",
"531 246 OFFCURVE",
"476 293 OFFCURVE",
"424 341 CURVE SMOOTH",
"372 389 OFFCURVE",
"315 433 OFFCURVE",
"226 433 CURVE SMOOTH",
"119 433 OFFCURVE",
"75 353 OFFCURVE",
"75 286 CURVE SMOOTH",
"75 210 OFFCURVE",
"113 144 OFFCURVE",
"184 92 CURVE SMOOTH",
"279 22 OFFCURVE",
"429 -21 OFFCURVE",
"619 -21 CURVE SMOOTH"
);
}
);
width = 1238;
},
{
anchors = (
{
name = bottom;
position = "{622, 0}";
},
{
name = top;
position = "{624, 1250}";
}
);
layerId = "BE68D89F-AB3F-4BDF-B332-ED50D7C47704";
paths = (
{
closed = 1;
nodes = (
"888 -21 OFFCURVE",
"1071 96 OFFCURVE",
"1071 305 CURVE SMOOTH",
"1071 485 OFFCURVE",
"931 578 OFFCURVE",
"616 672 CURVE SMOOTH",
"383 742 OFFCURVE",
"256 799 OFFCURVE",
"256 962 CURVE SMOOTH",
"256 1093 OFFCURVE",
"414 1187 OFFCURVE",
"624 1187 CURVE SMOOTH",
"790 1187 OFFCURVE",
"898 1130 OFFCURVE",
"956 1043 CURVE SMOOTH",
"971 1020 OFFCURVE",
"986 1007 OFFCURVE",
"1001 1007 CURVE SMOOTH",
"1014 1007 OFFCURVE",
"1031 1018 OFFCURVE",
"1031 1037 CURVE SMOOTH",
"1031 1049 OFFCURVE",
"1026 1062 OFFCURVE",
"1016 1077 CURVE SMOOTH",
"941 1188 OFFCURVE",
"810 1250 OFFCURVE",
"624 1250 CURVE SMOOTH",
"370 1250 OFFCURVE",
"188 1136 OFFCURVE",
"188 962 CURVE SMOOTH",
"188 757 OFFCURVE",
"338 683 OFFCURVE",
"616 604 CURVE SMOOTH",
"862 534 OFFCURVE",
"1003 451 OFFCURVE",
"1003 304 CURVE SMOOTH",
"1003 139 OFFCURVE",
"844 42 OFFCURVE",
"612 42 CURVE SMOOTH",
"407 42 OFFCURVE",
"301 100 OFFCURVE",
"232 196 CURVE SMOOTH",
"216 218 OFFCURVE",
"202 230 OFFCURVE",
"186 230 CURVE SMOOTH",
"171 230 OFFCURVE",
"151 219 OFFCURVE",
"151 198 CURVE SMOOTH",
"151 187 OFFCURVE",
"156 172 OFFCURVE",
"168 157 CURVE SMOOTH",
"250 49 OFFCURVE",
"381 -21 OFFCURVE",
"612 -21 CURVE SMOOTH"
);
}
);
width = 1238;
}
);
leftKerningGroup = S;
rightKerningGroup = S;
unicode = 0053;
},
{
glyphname = Scedilla;
lastChange = "2020-07-09 20:00:07 +0000";
layers = (
{
anchors = (
{
name = bottom;
position = "{631, -478}";
}
);
components = (
{
name = S;
}
);
layerId = "5521DC30-183F-421A-91F3-644B5E24AFE6";
paths = (
{
closed = 1;
nodes = (
"845 -475 OFFCURVE",
"1034 -406 OFFCURVE",
"1034 -266 CURVE SMOOTH",
"1034 -158 OFFCURVE",
"925 -112 OFFCURVE",
"834 -112 CURVE SMOOTH",
"782 -112 OFFCURVE",
"735 -122 OFFCURVE",
"697 -153 CURVE",
"749 -2 LINE SMOOTH",
"753 9 OFFCURVE",
"757 21 OFFCURVE",
"757 30 CURVE SMOOTH",
"757 67 OFFCURVE",
"722 87 OFFCURVE",
"677 87 CURVE SMOOTH",
"620 87 OFFCURVE",
"574 43 OFFCURVE",
"557 -2 CURVE SMOOTH",
"505 -141 LINE SMOOTH",
"499 -156 OFFCURVE",
"495 -172 OFFCURVE",
"495 -187 CURVE SMOOTH",
"495 -230 OFFCURVE",
"521 -266 OFFCURVE",
"580 -266 CURVE SMOOTH",
"605 -266 OFFCURVE",
"630 -261 OFFCURVE",
"656 -253 CURVE SMOOTH",
"680 -246 OFFCURVE",
"706 -242 OFFCURVE",
"731 -242 CURVE SMOOTH",
"760 -242 OFFCURVE",
"777 -252 OFFCURVE",
"777 -272 CURVE SMOOTH",
"777 -302 OFFCURVE",
"735 -317 OFFCURVE",
"668 -317 CURVE SMOOTH",
"631 -317 OFFCURVE",
"602 -316 OFFCURVE",
"576 -309 CURVE SMOOTH",
"554 -303 OFFCURVE",
"533 -299 OFFCURVE",
"514 -299 CURVE SMOOTH",
"477 -299 OFFCURVE",
"441 -324 OFFCURVE",
"441 -371 CURVE SMOOTH",
"441 -405 OFFCURVE",
"462 -434 OFFCURVE",
"509 -455 CURVE SMOOTH",
"540 -469 OFFCURVE",
"584 -475 OFFCURVE",
"642 -475 CURVE SMOOTH"
);
}
);
width = 1238;
},
{
anchors = (
{
name = bottom;
position = "{636, -410}";
}
);
components = (
{
name = S;
}
);
layerId = "BE68D89F-AB3F-4BDF-B332-ED50D7C47704";
paths = (
{
closed = 1;
nodes = (
"750 -416 OFFCURVE",
"873 -353 OFFCURVE",
"873 -222 CURVE SMOOTH",
"873 -144 OFFCURVE",
"811 -112 OFFCURVE",
"744 -112 CURVE SMOOTH",
"698 -112 OFFCURVE",
"651 -128 OFFCURVE",
"621 -145 CURVE",
"664 0 LINE SMOOTH",
"665 3 OFFCURVE",
"666 7 OFFCURVE",
"666 10 CURVE SMOOTH",
"666 22 OFFCURVE",
"655 30 OFFCURVE",
"641 30 CURVE SMOOTH",
"621 30 OFFCURVE",
"608 12 OFFCURVE",
"604 0 CURVE SMOOTH",
"560 -140 LINE SMOOTH",
"556 -152 OFFCURVE",
"552 -166 OFFCURVE",
"552 -174 CURVE SMOOTH",
"552 -193 OFFCURVE",
"563 -199 OFFCURVE",
"579 -199 CURVE SMOOTH",
"597 -199 OFFCURVE",
"613 -194 OFFCURVE",
"631 -187 CURVE SMOOTH",
"655 -177 OFFCURVE",
"684 -169 OFFCURVE",
"729 -169 CURVE SMOOTH",
"770 -169 OFFCURVE",
"803 -188 OFFCURVE",
"803 -236 CURVE SMOOTH",
"803 -314 OFFCURVE",
"714 -355 OFFCURVE",
"608 -355 CURVE SMOOTH",
"587 -355 OFFCURVE",
"556 -353 OFFCURVE",
"542 -350 CURVE SMOOTH",
"532 -348 OFFCURVE",
"524 -347 OFFCURVE",
"515 -347 CURVE SMOOTH",
"491 -347 OFFCURVE",
"479 -356 OFFCURVE",
"479 -375 CURVE SMOOTH",
"479 -390 OFFCURVE",
"496 -403 OFFCURVE",
"530 -410 CURVE SMOOTH",
"555 -415 OFFCURVE",
"581 -416 OFFCURVE",
"605 -416 CURVE SMOOTH"
);
}
);
width = 1238;
}
);
leftKerningGroup = S;
rightKerningGroup = S;
unicode = 015E;
},
{
glyphname = Germandbls;
lastChange = "2021-02-07 18:32:10 +0000";
layers = (
{
layerId = "BE68D89F-AB3F-4BDF-B332-ED50D7C47704";
paths = (
{
closed = 1;
nodes = (
"711 766 OFFCURVE",
"734 785 OFFCURVE",
"775 810 CURVE SMOOTH",
"858 860 OFFCURVE",
"979 959 OFFCURVE",
"979 1072 CURVE SMOOTH",
"979 1190 OFFCURVE",
"906 1238 OFFCURVE",
"751 1238 CURVE SMOOTH",
"508 1238 LINE SMOOTH",
"302 1238 OFFCURVE",
"219 1166 OFFCURVE",
"219 901 CURVE SMOOTH",
"219 57 LINE SMOOTH",
"219 20 OFFCURVE",
"230 0 OFFCURVE",
"250 0 CURVE SMOOTH",
"270 0 OFFCURVE",
"282 20 OFFCURVE",
"282 57 CURVE SMOOTH",
"282 890 LINE SMOOTH",
"282 1154 OFFCURVE",
"352 1177 OFFCURVE",
"508 1177 CURVE SMOOTH",
"749 1177 LINE SMOOTH",
"863 1177 OFFCURVE",
"912 1150 OFFCURVE",
"912 1070 CURVE SMOOTH",
"912 975 OFFCURVE",
"813 901 OFFCURVE",
"731 855 CURVE SMOOTH",
"682 828 OFFCURVE",
"646 794 OFFCURVE",
"646 728 CURVE SMOOTH",
"646 665 OFFCURVE",
"695 622 OFFCURVE",
"757 592 CURVE SMOOTH",
"843 550 OFFCURVE",
"987 468 OFFCURVE",
"987 290 CURVE SMOOTH",
"987 88 OFFCURVE",
"796 42 OFFCURVE",
"644 42 CURVE SMOOTH",
"576 42 OFFCURVE",
"536 51 OFFCURVE",
"505 59 CURVE SMOOTH",
"483 65 OFFCURVE",
"462 69 OFFCURVE",
"441 69 CURVE SMOOTH",
"417 69 OFFCURVE",
"405 61 OFFCURVE",
"405 45 CURVE SMOOTH",
"405 -7 OFFCURVE",
"541 -21 OFFCURVE",
"644 -21 CURVE SMOOTH",
"874 -21 OFFCURVE",
"1055 80 OFFCURVE",
"1055 290 CURVE SMOOTH",
"1055 506 OFFCURVE",
"880 604 OFFCURVE",
"790 647 CURVE SMOOTH",
"745 669 OFFCURVE",
"711 696 OFFCURVE",
"711 730 CURVE SMOOTH"
);
}
);
width = 1238;
},
{
layerId = "5521DC30-183F-421A-91F3-644B5E24AFE6";
paths = (
{
closed = 1;
nodes = (
"913 703 OFFCURVE",
"948 748 OFFCURVE",
"991 796 CURVE SMOOTH",
"1052 865 OFFCURVE",
"1112 937 OFFCURVE",
"1112 1041 CURVE SMOOTH",
"1112 1150 OFFCURVE",
"1054 1238 OFFCURVE",
"925 1238 CURVE SMOOTH",
"471 1238 LINE SMOOTH",
"278 1238 OFFCURVE",
"57 1169 OFFCURVE",
"57 830 CURVE SMOOTH",
"57 210 LINE SMOOTH",
"57 73 OFFCURVE",
"120 0 OFFCURVE",
"235 0 CURVE SMOOTH",
"350 0 OFFCURVE",
"413 73 OFFCURVE",
"413 210 CURVE SMOOTH",
"413 809 LINE SMOOTH",
"413 941 OFFCURVE",
"468 975 OFFCURVE",
"564 975 CURVE SMOOTH",
"661 975 LINE SMOOTH",
"706 975 OFFCURVE",
"718 965 OFFCURVE",
"718 938 CURVE SMOOTH",
"718 906 OFFCURVE",
"671 856 OFFCURVE",
"637 824 CURVE SMOOTH",
"590 779 OFFCURVE",
"550 739 OFFCURVE",
"550 642 CURVE SMOOTH",
"550 551 OFFCURVE",
"632 492 OFFCURVE",
"694 460 CURVE SMOOTH",
"744 434 OFFCURVE",
"855 375 OFFCURVE",
"855 326 CURVE SMOOTH",
"855 280 OFFCURVE",
"817 263 OFFCURVE",
"710 263 CURVE SMOOTH",
"688 263 OFFCURVE",
"667 264 OFFCURVE",
"647 267 CURVE SMOOTH",
"629 270 OFFCURVE",
"610 271 OFFCURVE",
"592 271 CURVE SMOOTH",
"548 271 OFFCURVE",
"470 250 OFFCURVE",
"470 143 CURVE SMOOTH",
"470 24 OFFCURVE",
"576 -21 OFFCURVE",
"710 -21 CURVE SMOOTH",
"959 -21 OFFCURVE",
"1187 80 OFFCURVE",
"1187 323 CURVE SMOOTH",
"1187 488 OFFCURVE",
"1086 555 OFFCURVE",
"999 603 CURVE SMOOTH",
"941 635 OFFCURVE",
"913 651 OFFCURVE",
"913 676 CURVE SMOOTH"
);
}
);
width = 1238;
}
);
unicode = 1E9E;
},
{
glyphname = Schwa;
lastChange = "2021-02-07 18:26:04 +0000";
layers = (
{
anchors = (
{
name = bottom;
position = "{600, 0}";
},
{
name = top;
position = "{600, 1238}";
}
);
layerId = "BE68D89F-AB3F-4BDF-B332-ED50D7C47704";
paths = (
{
closed = 1;
nodes = (
"807 -21 OFFCURVE",
"1038 144 OFFCURVE",
"1038 603 CURVE SMOOTH",
"1038 1054 OFFCURVE",
"826 1248 OFFCURVE",
"603 1248 CURVE SMOOTH",
"389 1248 OFFCURVE",
"251 1095 OFFCURVE",
"195 1003 CURVE SMOOTH",
"184 985 OFFCURVE",
"175 964 OFFCURVE",
"175 951 CURVE SMOOTH",
"175 934 OFFCURVE",
"186 923 OFFCURVE",
"203 923 CURVE SMOOTH",
"219 923 OFFCURVE",
"239 937 OFFCURVE",
"252 960 CURVE SMOOTH",
"298 1042 OFFCURVE",
"413 1185 OFFCURVE",
"603 1185 CURVE SMOOTH",
"795 1185 OFFCURVE",
"971 1002 OFFCURVE",
"971 603 CURVE SMOOTH",
"971 196 OFFCURVE",
"782 42 OFFCURVE",
"605 42 CURVE SMOOTH",
"385 42 OFFCURVE",
"250 217 OFFCURVE",
"250 589 CURVE",
"222 565 LINE",
"992 565 LINE",
"992 628 LINE",
"239 628 LINE SMOOTH",
"203 628 OFFCURVE",
"181 609 OFFCURVE",
"181 571 CURVE SMOOTH",
"181 194 OFFCURVE",
"351 -21 OFFCURVE",
"601 -21 CURVE SMOOTH"
);
}
);
width = 1238;
},
{
anchors = (
{
name = bottom;
position = "{600, 0}";
},
{
name = top;
position = "{600, 1238}";
}
);
layerId = "5521DC30-183F-421A-91F3-644B5E24AFE6";
paths = (
{
closed = 1;
nodes = (
"901 -21 OFFCURVE",
"1120 180 OFFCURVE",
"1120 616 CURVE SMOOTH",
"1120 1069 OFFCURVE",
"884 1235 OFFCURVE",
"606 1235 CURVE SMOOTH",
"406 1235 OFFCURVE",
"284 1179 OFFCURVE",
"210 1109 CURVE SMOOTH",
"157 1059 OFFCURVE",
"133 1021 OFFCURVE",
"133 959 CURVE SMOOTH",
"133 857 OFFCURVE",
"180 821 OFFCURVE",
"262 821 CURVE SMOOTH",
"341 821 OFFCURVE",
"387 854 OFFCURVE",
"425 889 CURVE SMOOTH",
"470 930 OFFCURVE",
"516 968 OFFCURVE",
"585 968 CURVE SMOOTH",
"700 968 OFFCURVE",
"758 894 OFFCURVE",
"758 616 CURVE SMOOTH",
"758 347 OFFCURVE",
"699 245 OFFCURVE",
"600 245 CURVE SMOOTH",
"502 245 OFFCURVE",
"459 350 OFFCURVE",
"459 568 CURVE",
"421 519 LINE",
"771 519 LINE",
"771 711 LINE",
"302 711 LINE SMOOTH",
"177 711 OFFCURVE",
"111 657 OFFCURVE",
"111 537 CURVE SMOOTH",
"111 150 OFFCURVE",
"327 -21 OFFCURVE",
"611 -21 CURVE SMOOTH"
);
}
);
width = 1238;
}
);
unicode = 018F;
},
{
glyphname = T;
lastChange = "2020-07-09 19:00:51 +0000";
layers = (
{
anchors = (
{
name = bottom;
position = "{621, 0}";
},
{
name = center;
position = "{621, 667}";
},
{
name = top;
position = "{621, 1238}";
}
);
layerId = "5521DC30-183F-421A-91F3-644B5E24AFE6";
paths = (
{
closed = 1;
nodes = (
"282 1238 LINE SMOOTH",
"146 1238 OFFCURVE",
"72 1191 OFFCURVE",
"72 1105 CURVE SMOOTH",
"72 1018 OFFCURVE",
"146 971 OFFCURVE",
"282 971 CURVE SMOOTH",
"428 971 LINE",
"428 190 LINE SMOOTH",
"428 54 OFFCURVE",
"494 -19 OFFCURVE",
"618 -19 CURVE SMOOTH",
"742 -19 OFFCURVE",
"809 54 OFFCURVE",
"809 190 CURVE SMOOTH",
"809 971 LINE",
"997 971 LINE SMOOTH",
"1107 971 OFFCURVE",
"1166 1018 OFFCURVE",
"1166 1105 CURVE SMOOTH",
"1166 1191 OFFCURVE",
"1092 1238 OFFCURVE",
"956 1238 CURVE SMOOTH"
);
}
);
width = 1238;
},
{
anchors = (
{
name = bottom;
position = "{621, 0}";
},
{
name = center;
position = "{621, 667}";
},
{
name = top;
position = "{621, 1238}";
}
);
layerId = "BE68D89F-AB3F-4BDF-B332-ED50D7C47704";
paths = (
{
closed = 1;
nodes = (
"217 1238 LINE SMOOTH",
"180 1238 OFFCURVE",
"160 1227 OFFCURVE",
"160 1208 CURVE SMOOTH",
"160 1189 OFFCURVE",
"180 1177 OFFCURVE",
"217 1177 CURVE SMOOTH",
"587 1177 LINE",
"587 48 LINE SMOOTH",
"587 10 OFFCURVE",
"598 -10 OFFCURVE",
"618 -10 CURVE SMOOTH",
"638 -10 OFFCURVE",
"650 10 OFFCURVE",
"650 48 CURVE SMOOTH",
"650 1177 LINE",
"1021 1177 LINE SMOOTH",
"1058 1177 OFFCURVE",
"1078 1189 OFFCURVE",
"1078 1208 CURVE SMOOTH",
"1078 1227 OFFCURVE",
"1058 1238 OFFCURVE",
"1021 1238 CURVE SMOOTH"
);
}
);
width = 1238;
}
);
leftKerningGroup = T;
rightKerningGroup = T;
unicode = 0054;
},
{
glyphname = Tbar;
lastChange = "2020-07-09 20:01:23 +0000";
layers = (
{
components = (
{
name = T;
}
);
layerId = "5521DC30-183F-421A-91F3-644B5E24AFE6";
paths = (
{
closed = 1;
nodes = (
"239 592 OFFCURVE",
"324 552 OFFCURVE",
"479 552 CURVE SMOOTH",
"763 552 LINE SMOOTH",
"919 552 OFFCURVE",
"1003 592 OFFCURVE",
"1003 666 CURVE SMOOTH",
"1003 741 OFFCURVE",
"919 781 OFFCURVE",
"763 781 CURVE SMOOTH",
"479 781 LINE SMOOTH",
"324 781 OFFCURVE",
"239 741 OFFCURVE",
"239 666 CURVE SMOOTH"
);
}
);
width = 1238;
},
{
components = (
{
name = T;
}
);
layerId = "BE68D89F-AB3F-4BDF-B332-ED50D7C47704";
paths = (
{
closed = 1;
nodes = (
"296 647 OFFCURVE",
"319 637 OFFCURVE",
"361 637 CURVE SMOOTH",
"880 637 LINE SMOOTH",
"924 637 OFFCURVE",
"947 648 OFFCURVE",
"947 667 CURVE SMOOTH",
"947 686 OFFCURVE",
"924 698 OFFCURVE",
"880 698 CURVE SMOOTH",
"361 698 LINE SMOOTH",
"319 698 OFFCURVE",
"296 686 OFFCURVE",
"296 667 CURVE SMOOTH"
);
}
);
width = 1238;
}
);
leftKerningGroup = T;
rightKerningGroup = T;
unicode = 0166;
},
{
glyphname = Tcedilla;
lastChange = "2020-07-09 20:00:23 +0000";
layers = (
{
anchors = (
{
name = bottom;
position = "{621, -476}";
}
);
components = (
{
name = T;
}
);
layerId = "5521DC30-183F-421A-91F3-644B5E24AFE6";
paths = (
{
closed = 1;
nodes = (
"805 -473 OFFCURVE",
"994 -404 OFFCURVE",
"994 -264 CURVE SMOOTH",
"994 -156 OFFCURVE",
"885 -110 OFFCURVE",
"794 -110 CURVE SMOOTH",
"742 -110 OFFCURVE",
"695 -120 OFFCURVE",
"657 -151 CURVE",
"709 0 LINE SMOOTH",
"713 11 OFFCURVE",
"717 23 OFFCURVE",
"717 32 CURVE SMOOTH",
"717 69 OFFCURVE",
"682 89 OFFCURVE",
"637 89 CURVE SMOOTH",
"580 89 OFFCURVE",
"534 45 OFFCURVE",
"517 0 CURVE SMOOTH",
"465 -139 LINE SMOOTH",
"459 -154 OFFCURVE",
"455 -170 OFFCURVE",
"455 -185 CURVE SMOOTH",
"455 -228 OFFCURVE",
"481 -264 OFFCURVE",
"540 -264 CURVE SMOOTH",
"565 -264 OFFCURVE",
"590 -259 OFFCURVE",
"616 -251 CURVE SMOOTH",
"640 -244 OFFCURVE",
"666 -240 OFFCURVE",
"691 -240 CURVE SMOOTH",
"720 -240 OFFCURVE",
"737 -250 OFFCURVE",
"737 -270 CURVE SMOOTH",
"737 -300 OFFCURVE",
"695 -315 OFFCURVE",
"628 -315 CURVE SMOOTH",
"591 -315 OFFCURVE",
"562 -314 OFFCURVE",
"536 -307 CURVE SMOOTH",
"514 -301 OFFCURVE",
"493 -297 OFFCURVE",
"474 -297 CURVE SMOOTH",
"437 -297 OFFCURVE",
"401 -322 OFFCURVE",
"401 -369 CURVE SMOOTH",
"401 -403 OFFCURVE",
"422 -432 OFFCURVE",
"469 -453 CURVE SMOOTH",
"500 -467 OFFCURVE",
"544 -473 OFFCURVE",
"602 -473 CURVE SMOOTH"
);
}
);
width = 1238;
},
{
anchors = (
{
name = bottom;
position = "{635, -410}";
}
);
components = (
{
name = T;
}
);
layerId = "BE68D89F-AB3F-4BDF-B332-ED50D7C47704";
paths = (
{
closed = 1;
nodes = (
"727 -416 OFFCURVE",
"850 -353 OFFCURVE",
"850 -222 CURVE SMOOTH",
"850 -144 OFFCURVE",
"788 -112 OFFCURVE",
"721 -112 CURVE SMOOTH",
"675 -112 OFFCURVE",
"628 -128 OFFCURVE",
"598 -145 CURVE",
"641 0 LINE SMOOTH",
"642 3 OFFCURVE",
"643 7 OFFCURVE",
"643 10 CURVE SMOOTH",
"643 22 OFFCURVE",
"632 30 OFFCURVE",
"618 30 CURVE SMOOTH",
"598 30 OFFCURVE",
"585 12 OFFCURVE",
"581 0 CURVE SMOOTH",
"537 -140 LINE SMOOTH",
"533 -152 OFFCURVE",
"529 -166 OFFCURVE",
"529 -174 CURVE SMOOTH",
"529 -193 OFFCURVE",
"540 -199 OFFCURVE",
"556 -199 CURVE SMOOTH",
"574 -199 OFFCURVE",
"590 -194 OFFCURVE",
"608 -187 CURVE SMOOTH",
"632 -177 OFFCURVE",
"661 -169 OFFCURVE",
"706 -169 CURVE SMOOTH",
"747 -169 OFFCURVE",
"780 -188 OFFCURVE",
"780 -236 CURVE SMOOTH",
"780 -314 OFFCURVE",
"691 -355 OFFCURVE",
"585 -355 CURVE SMOOTH",
"564 -355 OFFCURVE",
"533 -353 OFFCURVE",
"519 -350 CURVE SMOOTH",
"509 -348 OFFCURVE",
"501 -347 OFFCURVE",
"492 -347 CURVE SMOOTH",
"468 -347 OFFCURVE",
"456 -356 OFFCURVE",
"456 -375 CURVE SMOOTH",
"456 -390 OFFCURVE",
"473 -403 OFFCURVE",
"507 -410 CURVE SMOOTH",
"532 -415 OFFCURVE",
"558 -416 OFFCURVE",
"582 -416 CURVE SMOOTH"
);
}
);
width = 1238;
}
);
leftKerningGroup = T;
rightKerningGroup = T;
unicode = 0162;
},
{
glyphname = U;
lastChange = "2020-07-09 19:00:51 +0000";
layers = (
{
anchors = (
{
name = bottom;
position = "{618, 0}";
},
{
name = ogonek;
position = "{782, 0}";
},
{
name = top;
position = "{618, 1238}";
},
{
name = topright;
position = "{967, 1238}";
}
);
layerId = "5521DC30-183F-421A-91F3-644B5E24AFE6";
paths = (
{
closed = 1;
nodes = (
"917 -21 OFFCURVE",
"1157 103 OFFCURVE",
"1157 488 CURVE SMOOTH",
"1157 1029 LINE SMOOTH",
"1157 1165 OFFCURVE",
"1090 1238 OFFCURVE",
"967 1238 CURVE SMOOTH",
"843 1238 OFFCURVE",
"776 1165 OFFCURVE",
"776 1029 CURVE SMOOTH",
"776 509 LINE SMOOTH",
"776 335 OFFCURVE",
"727 246 OFFCURVE",
"620 246 CURVE SMOOTH",
"513 246 OFFCURVE",
"462 335 OFFCURVE",
"462 509 CURVE SMOOTH",
"462 1029 LINE SMOOTH",
"462 1165 OFFCURVE",
"395 1238 OFFCURVE",
"271 1238 CURVE SMOOTH",
"148 1238 OFFCURVE",
"81 1165 OFFCURVE",
"81 1029 CURVE SMOOTH",
"81 488 LINE SMOOTH",
"81 103 OFFCURVE",
"325 -21 OFFCURVE",
"620 -21 CURVE SMOOTH"
);
}
);
width = 1238;
},
{
anchors = (
{
name = bottom;
position = "{618, 0}";
},
{
name = ogonek;
position = "{738, 0}";
},
{
name = top;
position = "{618, 1238}";
},
{
name = topright;
position = "{1034, 1238}";
}
);
layerId = "BE68D89F-AB3F-4BDF-B332-ED50D7C47704";
paths = (
{
closed = 1;
nodes = (
"871 -21 OFFCURVE",
"1066 147 OFFCURVE",
"1066 541 CURVE SMOOTH",
"1066 1181 LINE SMOOTH",
"1066 1218 OFFCURVE",
"1054 1238 OFFCURVE",
"1034 1238 CURVE SMOOTH",
"1014 1238 OFFCURVE",
"1003 1218 OFFCURVE",
"1003 1181 CURVE SMOOTH",
"1003 545 LINE SMOOTH",
"1003 211 OFFCURVE",
"854 42 OFFCURVE",
"620 42 CURVE SMOOTH",
"388 42 OFFCURVE",
"235 211 OFFCURVE",
"235 545 CURVE SMOOTH",
"235 1181 LINE SMOOTH",
"235 1218 OFFCURVE",
"224 1238 OFFCURVE",
"204 1238 CURVE SMOOTH",
"184 1238 OFFCURVE",
"172 1218 OFFCURVE",
"172 1181 CURVE SMOOTH",
"172 541 LINE SMOOTH",
"172 147 OFFCURVE",
"370 -21 OFFCURVE",
"620 -21 CURVE SMOOTH"
);
}
);
width = 1238;
}
);
leftKerningGroup = U;
rightKerningGroup = U;
unicode = 0055;
},
{
glyphname = Uhorn;
lastChange = "2020-07-09 19:00:51 +0000";
layers = (
{
anchors = (
{
name = bottom;
position = "{610, 0}";
},
{
name = ogonek;
position = "{730, 0}";
},
{
name = top;
position = "{610, 1238}";
},
{
name = topright;
position = "{1026, 1238}";
}
);
components = (
{
name = horncomb.case;
transform = "{1, 0, 0, 1, 619, 0}";
}
);
layerId = "BE68D89F-AB3F-4BDF-B332-ED50D7C47704";
paths = (
{
closed = 1;
nodes = (
"863 -21 OFFCURVE",
"1057 147 OFFCURVE",
"1057 541 CURVE SMOOTH",
"1057 1181 LINE SMOOTH",
"1057 1218 OFFCURVE",
"1046 1238 OFFCURVE",
"1026 1238 CURVE SMOOTH",
"1006 1238 OFFCURVE",
"994 1218 OFFCURVE",
"994 1181 CURVE SMOOTH",
"994 545 LINE SMOOTH",
"994 211 OFFCURVE",
"846 42 OFFCURVE",
"611 42 CURVE SMOOTH",
"379 42 OFFCURVE",
"227 211 OFFCURVE",
"227 545 CURVE SMOOTH",
"227 1181 LINE SMOOTH",
"227 1218 OFFCURVE",
"215 1238 OFFCURVE",
"195 1238 CURVE SMOOTH",
"175 1238 OFFCURVE",
"164 1218 OFFCURVE",
"164 1181 CURVE SMOOTH",
"164 541 LINE SMOOTH",
"164 147 OFFCURVE",
"362 -21 OFFCURVE",
"611 -21 CURVE SMOOTH"
);
}
);
width = 1238;
},
{
anchors = (
{
name = bottom;
position = "{610, 0}";
},
{
name = ogonek;
position = "{773, 0}";
},
{
name = top;
position = "{610, 1238}";
},
{
name = topright;
position = "{958, 1238}";
}
);
components = (
{
name = horncomb.case;
transform = "{1, 0, 0, 1, 551, 0}";
}
);
layerId = "5521DC30-183F-421A-91F3-644B5E24AFE6";
paths = (
{
closed = 1;
nodes = (
"909 -21 OFFCURVE",
"1149 103 OFFCURVE",
"1149 488 CURVE SMOOTH",
"1149 1029 LINE SMOOTH",
"1149 1165 OFFCURVE",
"1082 1238 OFFCURVE",
"958 1238 CURVE SMOOTH",
"834 1238 OFFCURVE",
"768 1165 OFFCURVE",
"768 1029 CURVE SMOOTH",
"768 509 LINE SMOOTH",
"768 335 OFFCURVE",
"718 246 OFFCURVE",
"611 246 CURVE SMOOTH",
"505 246 OFFCURVE",
"453 335 OFFCURVE",
"453 509 CURVE SMOOTH",
"453 1029 LINE SMOOTH",
"453 1165 OFFCURVE",
"387 1238 OFFCURVE",
"263 1238 CURVE SMOOTH",
"139 1238 OFFCURVE",
"72 1165 OFFCURVE",
"72 1029 CURVE SMOOTH",
"72 488 LINE SMOOTH",
"72 103 OFFCURVE",
"316 -21 OFFCURVE",
"611 -21 CURVE SMOOTH"
);
}
);
width = 1238;
}
);
unicode = 01AF;
},
{
glyphname = Uogonek;
lastChange = "2020-07-09 19:56:54 +0000";
layers = (
{
components = (
{
name = U;
}
);
layerId = "5521DC30-183F-421A-91F3-644B5E24AFE6";
paths = (
{
closed = 1;
nodes = (
"1036 -428 OFFCURVE",
"1144 -384 OFFCURVE",
"1144 -290 CURVE SMOOTH",
"1144 -237 OFFCURVE",
"1123 -199 OFFCURVE",
"1064 -199 CURVE SMOOTH",
"1045 -199 OFFCURVE",
"1021 -201 OFFCURVE",
"995 -208 CURVE SMOOTH",
"977 -213 OFFCURVE",
"939 -218 OFFCURVE",
"922 -218 CURVE SMOOTH",
"871 -218 OFFCURVE",
"846 -194 OFFCURVE",
"846 -139 CURVE SMOOTH",
"846 -63 OFFCURVE",
"915 35 OFFCURVE",
"955 60 CURVE",
"790 60 LINE",
"703 41 OFFCURVE",
"581 -74 OFFCURVE",
"581 -223 CURVE SMOOTH",
"581 -382 OFFCURVE",
"731 -428 OFFCURVE",
"890 -428 CURVE SMOOTH"
);
}
);
width = 1238;
},
{
components = (
{
name = U;
}
);
layerId = "BE68D89F-AB3F-4BDF-B332-ED50D7C47704";
paths = (
{
closed = 1;
nodes = (
"909 -392 OFFCURVE",
"974 -385 OFFCURVE",
"974 -351 CURVE SMOOTH",
"974 -335 OFFCURVE",
"959 -323 OFFCURVE",
"935 -323 CURVE SMOOTH",
"928 -323 OFFCURVE",
"919 -324 OFFCURVE",
"910 -326 CURVE SMOOTH",
"893 -329 OFFCURVE",
"874 -331 OFFCURVE",
"855 -331 CURVE SMOOTH",
"792 -331 OFFCURVE",
"733 -300 OFFCURVE",
"733 -223 CURVE SMOOTH",
"733 -119 OFFCURVE",
"814 15 OFFCURVE",
"862 47 CURVE",
"828 47 LINE",
"774 47 OFFCURVE",
"662 -108 OFFCURVE",
"662 -221 CURVE SMOOTH",
"662 -337 OFFCURVE",
"756 -392 OFFCURVE",
"862 -392 CURVE SMOOTH"
);
}
);
width = 1238;
}
);
leftKerningGroup = U;
rightKerningGroup = U;
unicode = 0172;
},
{
glyphname = V;
lastChange = "2020-07-09 19:03:46 +0000";
layers = (
{
anchors = (
{
name = bottom;
position = "{610, 0}";
},
{
name = top;
position = "{612, 1238}";
}
);
layerId = "5521DC30-183F-421A-91F3-644B5E24AFE6";
paths = (
{
closed = 1;
nodes = (
"790 0 OFFCURVE",
"874 62 OFFCURVE",
"912 185 CURVE SMOOTH",
"1169 1017 LINE SMOOTH",
"1176 1039 OFFCURVE",
"1176 1059 OFFCURVE",
"1176 1078 CURVE SMOOTH",
"1176 1185 OFFCURVE",
"1098 1248 OFFCURVE",
"992 1248 CURVE SMOOTH",
"865 1248 OFFCURVE",
"825 1184 OFFCURVE",
"795 1058 CURVE SMOOTH",
"588 200 LINE",
"646 200 LINE",
"440 1058 LINE SMOOTH",
"410 1184 OFFCURVE",
"370 1248 OFFCURVE",
"242 1248 CURVE SMOOTH",
"136 1248 OFFCURVE",
"58 1187 OFFCURVE",
"58 1079 CURVE SMOOTH",
"58 1060 OFFCURVE",
"59 1039 OFFCURVE",
"66 1017 CURVE SMOOTH",
"322 185 LINE SMOOTH",
"360 62 OFFCURVE",
"444 0 OFFCURVE",
"590 0 CURVE SMOOTH",
"645 0 LINE SMOOTH"
);
}
);
width = 1238;
},
{
anchors = (
{
name = bottom;
position = "{621, 0}";
},
{
name = top;
position = "{621, 1238}";
}
);
layerId = "BE68D89F-AB3F-4BDF-B332-ED50D7C47704";
paths = (
{
closed = 1;
nodes = (
"655 -10 OFFCURVE",
"677 6 OFFCURVE",
"688 38 CURVE SMOOTH",
"1083 1183 LINE SMOOTH",
"1087 1194 OFFCURVE",
"1090 1208 OFFCURVE",
"1090 1215 CURVE SMOOTH",
"1090 1238 OFFCURVE",
"1081 1248 OFFCURVE",
"1062 1248 CURVE SMOOTH",
"1042 1248 OFFCURVE",
"1031 1232 OFFCURVE",
"1020 1200 CURVE SMOOTH",
"622 51 LINE",
"624 51 LINE",
"228 1200 LINE SMOOTH",
"217 1232 OFFCURVE",
"210 1248 OFFCURVE",
"190 1248 CURVE SMOOTH",
"174 1248 OFFCURVE",
"156 1239 OFFCURVE",
"156 1217 CURVE SMOOTH",
"156 1210 OFFCURVE",
"160 1194 OFFCURVE",
"164 1183 CURVE SMOOTH",
"558 38 LINE SMOOTH",
"569 6 OFFCURVE",
"590 -10 OFFCURVE",
"622 -10 CURVE SMOOTH",
"623 -10 LINE SMOOTH"
);
}
);
width = 1238;
}
);
leftKerningGroup = V;
rightKerningGroup = V;
unicode = 0056;
},
{
glyphname = W;
lastChange = "2021-02-07 18:33:07 +0000";
layers = (
{
anchors = (
{
name = bottom;
position = "{621, 0}";
},
{
name = top;
position = "{621, 1238}";
}
);
layerId = "5521DC30-183F-421A-91F3-644B5E24AFE6";
paths = (
{
closed = 1;
nodes = (
"342 -19 LINE SMOOTH",
"472 -19 OFFCURVE",
"556 47 OFFCURVE",
"572 177 CURVE SMOOTH",
"639 730 LINE",
"594 730 LINE",
"664 177 LINE SMOOTH",
"680 47 OFFCURVE",
"764 -19 OFFCURVE",
"894 -19 CURVE SMOOTH",
"905 -19 LINE SMOOTH",
"1037 -19 OFFCURVE",
"1127 50 OFFCURVE",
"1140 183 CURVE SMOOTH",
"1151 297 OFFCURVE",
"1200 987 OFFCURVE",
"1200 1065 CURVE SMOOTH",
"1200 1183 OFFCURVE",
"1134 1248 OFFCURVE",
"1023 1248 CURVE SMOOTH",
"899 1248 OFFCURVE",
"835 1176 OFFCURVE",
"835 1040 CURVE SMOOTH",
"835 277 LINE",
"855 277 LINE",
"764 918 LINE SMOOTH",
"745 1049 OFFCURVE",
"709 1105 OFFCURVE",
"617 1105 CURVE SMOOTH",
"526 1105 OFFCURVE",
"489 1049 OFFCURVE",
"470 918 CURVE SMOOTH",
"376 278 LINE",
"396 278 LINE",
"396 1040 LINE SMOOTH",
"396 1176 OFFCURVE",
"344 1248 OFFCURVE",
"220 1248 CURVE SMOOTH",
"109 1248 OFFCURVE",
"34 1183 OFFCURVE",
"34 1065 CURVE SMOOTH",
"34 970 OFFCURVE",
"83 297 OFFCURVE",
"94 183 CURVE SMOOTH",
"107 50 OFFCURVE",
"197 -19 OFFCURVE",
"330 -19 CURVE SMOOTH"
);
}
);
width = 1238;
},
{
anchors = (
{
name = bottom;
position = "{619, 0}";
},
{
name = top;
position = "{621, 1238}";
}
);
layerId = "BE68D89F-AB3F-4BDF-B332-ED50D7C47704";
paths = (
{
closed = 1;
nodes = (
"301 -19 LINE SMOOTH",
"333 -19 OFFCURVE",
"356 -3 OFFCURVE",
"364 30 CURVE SMOOTH",
"629 1129 LINE",
"613 1129 LINE",
"878 30 LINE SMOOTH",
"886 -4 OFFCURVE",
"909 -19 OFFCURVE",
"942 -19 CURVE SMOOTH",
"943 -19 LINE SMOOTH",
"975 -19 OFFCURVE",
"990 0 OFFCURVE",
"995 35 CURVE SMOOTH",
"1004 104 OFFCURVE",
"1133 1173 OFFCURVE",
"1133 1204 CURVE SMOOTH",
"1133 1234 OFFCURVE",
"1125 1248 OFFCURVE",
"1106 1248 CURVE SMOOTH",
"1084 1248 OFFCURVE",
"1074 1233 OFFCURVE",
"1070 1198 CURVE SMOOTH",
"932 35 LINE",
"950 35 LINE",
"676 1136 LINE SMOOTH",
"668 1169 OFFCURVE",
"649 1185 OFFCURVE",
"621 1185 CURVE SMOOTH",
"593 1185 OFFCURVE",
"574 1169 OFFCURVE",
"566 1136 CURVE SMOOTH",
"299 36 LINE",
"312 36 LINE",
"172 1198 LINE SMOOTH",
"168 1233 OFFCURVE",
"160 1248 OFFCURVE",
"139 1248 CURVE SMOOTH",
"120 1248 OFFCURVE",
"109 1234 OFFCURVE",
"109 1204 CURVE SMOOTH",
"109 1163 OFFCURVE",
"238 104 OFFCURVE",
"247 35 CURVE SMOOTH",
"251 -2 OFFCURVE",
"267 -19 OFFCURVE",
"300 -19 CURVE SMOOTH"
);
}
);
width = 1238;
},
{
anchors = (
{
name = bottom;
position = "{623, 0}";
},
{
name = top;
position = "{624, 1238}";
}
);
associatedMasterId = "BE68D89F-AB3F-4BDF-B332-ED50D7C47704";
layerId = "6BEE0209-F5EC-481A-B8C9-A5FE6951E988";
name = "{500}";
paths = (
{
closed = 1;
nodes = (
"326 -19 LINE SMOOTH",
"408 -19 OFFCURVE",
"465 23 OFFCURVE",
"482 103 CURVE SMOOTH",
"653 930 LINE",
"584 930 LINE",
"756 103 LINE SMOOTH",
"773 22 OFFCURVE",
"831 -19 OFFCURVE",
"913 -19 CURVE SMOOTH",
"919 -19 LINE SMOOTH",
"1001 -19 OFFCURVE",
"1042 25 OFFCURVE",
"1053 109 CURVE SMOOTH",
"1065 200 OFFCURVE",
"1167 1056 OFFCURVE",
"1167 1134 CURVE SMOOTH",
"1167 1209 OFFCURVE",
"1130 1248 OFFCURVE",
"1064 1248 CURVE SMOOTH",
"991 1248 OFFCURVE",
"955 1205 OFFCURVE",
"948 1119 CURVE SMOOTH",
"874 156 LINE",
"945 156 LINE",
"749 1027 LINE SMOOTH",
"731 1108 OFFCURVE",
"678 1145 OFFCURVE",
"619 1145 CURVE SMOOTH",
"559 1145 OFFCURVE",
"508 1108 OFFCURVE",
"490 1027 CURVE SMOOTH",
"294 157 LINE",
"364 157 LINE",
"289 1119 LINE SMOOTH",
"282 1205 OFFCURVE",
"251 1248 OFFCURVE",
"179 1248 CURVE SMOOTH",
"114 1248 OFFCURVE",
"71 1209 OFFCURVE",
"71 1134 CURVE SMOOTH",
"71 1042 OFFCURVE",
"172 200 OFFCURVE",
"185 109 CURVE SMOOTH",
"197 24 OFFCURVE",
"236 -19 OFFCURVE",
"319 -19 CURVE SMOOTH"
);
}
);
width = 1238;
}
);
leftKerningGroup = W;
rightKerningGroup = W;
unicode = 0057;
},
{
glyphname = X;
lastChange = "2020-07-09 19:04:09 +0000";
layers = (
{
anchors = (
{
name = bottom;
position = "{619, 0}";
},
{
name = top;
position = "{619, 1238}";
}
);
layerId = "5521DC30-183F-421A-91F3-644B5E24AFE6";
paths = (
{
closed = 1;
nodes = (
"411 -19 OFFCURVE",
"449 38 OFFCURVE",
"510 135 CURVE SMOOTH",
"804 604 LINE",
"510 1085 LINE SMOOTH",
"435 1208 OFFCURVE",
"389 1251 OFFCURVE",
"283 1251 CURVE SMOOTH",
"180 1251 OFFCURVE",
"126 1190 OFFCURVE",
"126 1112 CURVE SMOOTH",
"126 1077 OFFCURVE",
"127 1045 OFFCURVE",
"159 999 CURVE SMOOTH",
"527 465 LINE",
"546 758 LINE",
"182 243 LINE SMOOTH",
"147 194 OFFCURVE",
"137 161 OFFCURVE",
"137 123 CURVE SMOOTH",
"137 44 OFFCURVE",
"190 -19 OFFCURVE",
"298 -19 CURVE SMOOTH"
);
},
{
closed = 1;
nodes = (
"1050 -19 OFFCURVE",
"1110 38 OFFCURVE",
"1110 116 CURVE SMOOTH",
"1110 154 OFFCURVE",
"1100 190 OFFCURVE",
"1065 243 CURVE SMOOTH",
"720 758 LINE",
"710 465 LINE",
"1088 999 LINE SMOOTH",
"1118 1042 OFFCURVE",
"1129 1090 OFFCURVE",
"1129 1126 CURVE SMOOTH",
"1129 1216 OFFCURVE",
"1045 1250 OFFCURVE",
"972 1250 CURVE SMOOTH",
"855 1250 OFFCURVE",
"810 1210 OFFCURVE",
"737 1085 CURVE SMOOTH",
"449 592 LINE",
"730 135 LINE SMOOTH",
"790 37 OFFCURVE",
"829 -19 OFFCURVE",
"944 -19 CURVE SMOOTH"
);
}
);
width = 1238;
},
{
anchors = (
{
name = bottom;
position = "{610, 0}";
},
{
name = top;
position = "{610, 1238}";
}
);
layerId = "BE68D89F-AB3F-4BDF-B332-ED50D7C47704";
paths = (
{
closed = 1;
nodes = (
"263 -19 OFFCURVE",
"273 -8 OFFCURVE",
"290 20 CURVE SMOOTH",
"642 610 LINE",
"290 1209 LINE SMOOTH",
"275 1235 OFFCURVE",
"266 1248 OFFCURVE",
"246 1248 CURVE SMOOTH",
"229 1248 OFFCURVE",
"210 1236 OFFCURVE",
"210 1220 CURVE SMOOTH",
"210 1215 OFFCURVE",
"212 1210 OFFCURVE",
"215 1205 CURVE SMOOTH",
"583 585 LINE",
"583 634 LINE",
"227 40 LINE SMOOTH",
"218 26 OFFCURVE",
"214 14 OFFCURVE",
"214 6 CURVE SMOOTH",
"214 -12 OFFCURVE",
"230 -19 OFFCURVE",
"245 -19 CURVE SMOOTH"
);
},
{
closed = 1;
nodes = (
"984 -19 OFFCURVE",
"999 -12 OFFCURVE",
"999 6 CURVE SMOOTH",
"999 14 OFFCURVE",
"995 26 OFFCURVE",
"987 40 CURVE SMOOTH",
"630 634 LINE",
"630 585 LINE",
"998 1205 LINE SMOOTH",
"1001 1211 OFFCURVE",
"1003 1216 OFFCURVE",
"1003 1222 CURVE SMOOTH",
"1003 1237 OFFCURVE",
"989 1248 OFFCURVE",
"972 1248 CURVE SMOOTH",
"947 1248 OFFCURVE",
"939 1235 OFFCURVE",
"924 1209 CURVE SMOOTH",
"572 614 LINE",
"924 20 LINE SMOOTH",
"940 -8 OFFCURVE",
"950 -19 OFFCURVE",
"969 -19 CURVE SMOOTH"
);
}
);
width = 1238;
}
);
leftKerningGroup = X;
rightKerningGroup = X;
unicode = 0058;
},
{
glyphname = Y;
lastChange = "2020-07-09 19:04:28 +0000";
layers = (
{
anchors = (
{
name = bottom;
position = "{600, 0}";
},
{
name = top;
position = "{617, 1238}";
},
{
name = topleft;
position = "{67, 1238}";
}
);
layerId = "5521DC30-183F-421A-91F3-644B5E24AFE6";
paths = (
{
closed = 1;
nodes = (
"744 -19 OFFCURVE",
"810 54 OFFCURVE",
"810 190 CURVE SMOOTH",
"810 626 LINE",
"430 626 LINE",
"430 190 LINE SMOOTH",
"430 54 OFFCURVE",
"496 -19 OFFCURVE",
"620 -19 CURVE SMOOTH"
);
},
{
closed = 1;
nodes = (
"622 410 LINE SMOOTH",
"746 410 OFFCURVE",
"802 483 OFFCURVE",
"867 587 CURVE SMOOTH",
"1116 985 LINE SMOOTH",
"1137 1019 OFFCURVE",
"1152 1068 OFFCURVE",
"1152 1110 CURVE SMOOTH",
"1152 1190 OFFCURVE",
"1084 1250 OFFCURVE",
"970 1250 CURVE SMOOTH",
"881 1250 OFFCURVE",
"830 1203 OFFCURVE",
"776 1094 CURVE SMOOTH",
"589 720 LINE",
"650 720 LINE",
"467 1091 LINE SMOOTH",
"412 1203 OFFCURVE",
"369 1250 OFFCURVE",
"279 1250 CURVE SMOOTH",
"162 1250 OFFCURVE",
"87 1188 OFFCURVE",
"87 1108 CURVE SMOOTH",
"87 1065 OFFCURVE",
"101 1019 OFFCURVE",
"122 985 CURVE SMOOTH",
"371 587 LINE SMOOTH",
"436 483 OFFCURVE",
"492 410 OFFCURVE",
"616 410 CURVE SMOOTH"
);
}
);
width = 1238;
},
{
anchors = (
{
name = bottom;
position = "{571, 0}";
},
{
name = top;
position = "{604, 1238}";
},
{
name = topleft;
position = "{106, 1238}";
}
);
layerId = "BE68D89F-AB3F-4BDF-B332-ED50D7C47704";
paths = (
{
closed = 1;
nodes = (
"630 -19 OFFCURVE",
"642 -1 OFFCURVE",
"642 36 CURVE SMOOTH",
"642 494 LINE",
"579 494 LINE",
"579 36 LINE SMOOTH",
"579 -1 OFFCURVE",
"590 -19 OFFCURVE",
"610 -19 CURVE SMOOTH"
);
},
{
closed = 1;
nodes = (
"611 456 LINE SMOOTH",
"645 456 OFFCURVE",
"661 471 OFFCURVE",
"676 502 CURVE SMOOTH",
"1015 1193 LINE SMOOTH",
"1020 1204 OFFCURVE",
"1024 1214 OFFCURVE",
"1024 1225 CURVE SMOOTH",
"1024 1240 OFFCURVE",
"1015 1252 OFFCURVE",
"996 1252 CURVE SMOOTH",
"974 1252 OFFCURVE",
"965 1238 OFFCURVE",
"950 1207 CURVE SMOOTH",
"610 510 LINE",
"612 510 LINE",
"270 1207 LINE SMOOTH",
"255 1238 OFFCURVE",
"248 1252 OFFCURVE",
"225 1252 CURVE SMOOTH",
"207 1252 OFFCURVE",
"198 1239 OFFCURVE",
"198 1223 CURVE SMOOTH",
"198 1213 OFFCURVE",
"201 1203 OFFCURVE",
"206 1192 CURVE SMOOTH",
"545 502 LINE SMOOTH",
"560 471 OFFCURVE",
"576 456 OFFCURVE",
"610 456 CURVE SMOOTH"
);
}
);
width = 1238;
}
);
leftKerningGroup = Y;
rightKerningGroup = Y;
unicode = 0059;
},
{
glyphname = Z;
lastChange = "2020-07-09 19:04:36 +0000";
layers = (
{
anchors = (
{
name = bottom;
position = "{600, 0}";
},
{
name = top;
position = "{600, 1238}";
}
);
layerId = "5521DC30-183F-421A-91F3-644B5E24AFE6";
paths = (
{
closed = 1;
nodes = (
"950 854 LINE SMOOTH",
"1008 939 OFFCURVE",
"1030 981 OFFCURVE",
"1030 1047 CURVE SMOOTH",
"1030 1165 OFFCURVE",
"957 1238 OFFCURVE",
"821 1238 CURVE SMOOTH",
"381 1238 LINE SMOOTH",
"245 1238 OFFCURVE",
"171 1191 OFFCURVE",
"171 1105 CURVE SMOOTH",
"171 1018 OFFCURVE",
"245 971 OFFCURVE",
"381 971 CURVE SMOOTH",
"640 971 LINE",
"237 384 LINE SMOOTH",
"179 299 OFFCURVE",
"156 265 OFFCURVE",
"156 185 CURVE SMOOTH",
"156 72 OFFCURVE",
"230 0 OFFCURVE",
"366 0 CURVE SMOOTH",
"840 0 LINE SMOOTH",
"976 0 OFFCURVE",
"1050 47 OFFCURVE",
"1050 133 CURVE SMOOTH",
"1050 220 OFFCURVE",
"976 267 OFFCURVE",
"840 267 CURVE SMOOTH",
"543 267 LINE"
);
}
);
width = 1238;
},
{
anchors = (
{
name = bottom;
position = "{584, 0}";
},
{
name = top;
position = "{617, 1238}";
}
);
layerId = "BE68D89F-AB3F-4BDF-B332-ED50D7C47704";
paths = (
{
closed = 1;
nodes = (
"986 1145 LINE SMOOTH",
"1001 1168 OFFCURVE",
"1007 1178 OFFCURVE",
"1007 1195 CURVE SMOOTH",
"1007 1223 OFFCURVE",
"987 1238 OFFCURVE",
"950 1238 CURVE SMOOTH",
"279 1238 LINE SMOOTH",
"242 1238 OFFCURVE",
"222 1227 OFFCURVE",
"222 1208 CURVE SMOOTH",
"222 1189 OFFCURVE",
"242 1177 OFFCURVE",
"279 1177 CURVE SMOOTH",
"934 1177 LINE",
"228 93 LINE SMOOTH",
"213 70 OFFCURVE",
"207 60 OFFCURVE",
"207 45 CURVE SMOOTH",
"207 17 OFFCURVE",
"227 0 OFFCURVE",
"264 0 CURVE SMOOTH",
"972 0 LINE SMOOTH",
"1010 0 OFFCURVE",
"1030 11 OFFCURVE",
"1030 30 CURVE SMOOTH",
"1030 50 OFFCURVE",
"1010 61 OFFCURVE",
"972 61 CURVE SMOOTH",
"281 61 LINE"
);
}
);
width = 1238;
}
);
leftKerningGroup = Z;
rightKerningGroup = Z;
unicode = 005A;
},
{
glyphname = a;
lastChange = "2020-11-24 22:05:09 +0000";
layers = (
{
anchors = (
{
name = bottom;
position = "{600, 0}";
},
{
name = ogonek;
position = "{1034, 0}";
},
{
name = top;
position = "{600, 952}";
}
);
layerId = "5521DC30-183F-421A-91F3-644B5E24AFE6";
paths = (
{
closed = 1;
nodes = (
"1034 -10 LINE SMOOTH",
"1166 -10 OFFCURVE",
"1218 49 OFFCURVE",
"1218 129 CURVE SMOOTH",
"1218 209 OFFCURVE",
"1171 257 OFFCURVE",
"1085 257 CURVE SMOOTH",
"1082 257 LINE",
"1082 642 LINE SMOOTH",
"1082 853 OFFCURVE",
"867 975 OFFCURVE",
"608 975 CURVE SMOOTH",
"472 975 OFFCURVE",
"346 955 OFFCURVE",
"279 933 CURVE SMOOTH",
"210 910 OFFCURVE",
"148 874 OFFCURVE",
"148 791 CURVE SMOOTH",
"148 703 OFFCURVE",
"200 664 OFFCURVE",
"286 664 CURVE SMOOTH",
"326 664 OFFCURVE",
"353 671 OFFCURVE",
"386 680 CURVE SMOOTH",
"436 694 OFFCURVE",
"498 707 OFFCURVE",
"572 707 CURVE SMOOTH",
"671 707 OFFCURVE",
"738 655 OFFCURVE",
"738 602 CURVE SMOOTH",
"738 547 LINE",
"720 570 OFFCURVE",
"648 615 OFFCURVE",
"520 615 CURVE SMOOTH",
"307 615 OFFCURVE",
"105 525 OFFCURVE",
"105 306 CURVE SMOOTH",
"105 100 OFFCURVE",
"261 -21 OFFCURVE",
"467 -21 CURVE SMOOTH",
"638 -21 OFFCURVE",
"731 69 OFFCURVE",
"758 139 CURVE",
"758 121 LINE SMOOTH",
"758 38 OFFCURVE",
"803 -10 OFFCURVE",
"925 -10 CURVE SMOOTH"
);
},
{
closed = 1;
nodes = (
"738 310 LINE",
"716 282 OFFCURVE",
"663 225 OFFCURVE",
"572 225 CURVE SMOOTH",
"507 225 OFFCURVE",
"452 248 OFFCURVE",
"452 317 CURVE SMOOTH",
"452 386 OFFCURVE",
"510 411 OFFCURVE",
"593 411 CURVE SMOOTH",
"663 411 OFFCURVE",
"724 384 OFFCURVE",
"738 369 CURVE"
);
}
);
width = 1238;
},
{
anchors = (
{
name = bottom;
position = "{630, 0}";
},
{
name = ogonek;
position = "{1090, 0}";
},
{
name = top;
position = "{630, 952}";
}
);
layerId = "BE68D89F-AB3F-4BDF-B332-ED50D7C47704";
paths = (
{
closed = 1;
nodes = (
"1090 0 LINE SMOOTH",
"1127 0 OFFCURVE",
"1147 11 OFFCURVE",
"1147 30 CURVE SMOOTH",
"1147 50 OFFCURVE",
"1127 61 OFFCURVE",
"1090 61 CURVE SMOOTH",
"968 61 LINE",
"968 678 LINE SMOOTH",
"968 927 OFFCURVE",
"745 975 OFFCURVE",
"575 975 CURVE SMOOTH",
"444 975 OFFCURVE",
"319 939 OFFCURVE",
"249 905 CURVE SMOOTH",
"223 892 OFFCURVE",
"210 877 OFFCURVE",
"210 863 CURVE SMOOTH",
"210 850 OFFCURVE",
"221 834 OFFCURVE",
"241 834 CURVE SMOOTH",
"252 834 OFFCURVE",
"267 839 OFFCURVE",
"283 847 CURVE SMOOTH",
"347 880 OFFCURVE",
"468 914 OFFCURVE",
"562 914 CURVE SMOOTH",
"710 914 OFFCURVE",
"905 889 OFFCURVE",
"905 662 CURVE SMOOTH",
"905 481 LINE",
"855 510 OFFCURVE",
"689 548 OFFCURVE",
"563 548 CURVE SMOOTH",
"310 548 OFFCURVE",
"154 448 OFFCURVE",
"154 267 CURVE SMOOTH",
"154 69 OFFCURVE",
"311 -21 OFFCURVE",
"523 -21 CURVE SMOOTH",
"730 -21 OFFCURVE",
"859 79 OFFCURVE",
"905 134 CURVE",
"905 52 LINE SMOOTH",
"905 19 OFFCURVE",
"925 0 OFFCURVE",
"962 0 CURVE SMOOTH"
);
},
{
closed = 1;
nodes = (
"905 213 LINE",
"859 159 OFFCURVE",
"731 40 OFFCURVE",
"525 40 CURVE SMOOTH",
"354 40 OFFCURVE",
"217 100 OFFCURVE",
"217 267 CURVE SMOOTH",
"217 418 OFFCURVE",
"350 487 OFFCURVE",
"565 487 CURVE SMOOTH",
"666 487 OFFCURVE",
"848 452 OFFCURVE",
"905 420 CURVE"
);
}
);
width = 1238;
},
{
anchors = (
{
name = bottom;
position = "{590, 0}";
},
{
name = ogonek;
position = "{1029, 19}";
},
{
name = top;
position = "{590, 952}";
}
);
associatedMasterId = "BE68D89F-AB3F-4BDF-B332-ED50D7C47704";
layerId = "DC2F800D-EB60-456D-B8B9-CA0D01C75DFB";
name = "{500}";
paths = (
{
closed = 1;
nodes = (
"1037 -5 LINE SMOOTH",
"1127 -5 OFFCURVE",
"1157 30 OFFCURVE",
"1157 80 CURVE SMOOTH",
"1157 130 OFFCURVE",
"1127 159 OFFCURVE",
"1070 159 CURVE SMOOTH",
"1000 159 LINE",
"1000 684 LINE SMOOTH",
"1000 876 OFFCURVE",
"786 975 OFFCURVE",
"571 975 CURVE SMOOTH",
"438 975 OFFCURVE",
"322 949 OFFCURVE",
"253 919 CURVE SMOOTH",
"207 899 OFFCURVE",
"169 876 OFFCURVE",
"169 832 CURVE SMOOTH",
"169 782 OFFCURVE",
"210 757 OFFCURVE",
"263 757 CURVE SMOOTH",
"279 757 OFFCURVE",
"301 759 OFFCURVE",
"324 768 CURVE SMOOTH",
"381 790 OFFCURVE",
"463 810 OFFCURVE",
"547 810 CURVE SMOOTH",
"670 810 OFFCURVE",
"796 758 OFFCURVE",
"796 656 CURVE SMOOTH",
"796 547 LINE",
"763 569 OFFCURVE",
"658 606 OFFCURVE",
"531 606 CURVE SMOOTH",
"293 606 OFFCURVE",
"105 498 OFFCURVE",
"105 298 CURVE SMOOTH",
"105 96 OFFCURVE",
"272 -21 OFFCURVE",
"494 -21 CURVE SMOOTH",
"663 -21 OFFCURVE",
"768 57 OFFCURVE",
"799 109 CURVE",
"804 87 LINE SMOOTH",
"817 31 OFFCURVE",
"839 -5 OFFCURVE",
"919 -5 CURVE SMOOTH"
);
},
{
closed = 1;
nodes = (
"796 283 LINE",
"766 233 OFFCURVE",
"650 132 OFFCURVE",
"527 132 CURVE SMOOTH",
"397 132 OFFCURVE",
"310 180 OFFCURVE",
"310 303 CURVE SMOOTH",
"310 418 OFFCURVE",
"399 463 OFFCURVE",
"558 463 CURVE SMOOTH",
"644 463 OFFCURVE",
"761 426 OFFCURVE",
"796 402 CURVE"
);
}
);
width = 1238;
}
);
leftKerningGroup = a;
rightKerningGroup = n;
unicode = 0061;
},
{
color = 4;
glyphname = a.ss01;
lastChange = "2021-02-07 18:35:01 +0000";
layers = (
{
anchors = (
{
name = bottom;
position = "{619, 0}";
},
{
name = ogonek;
position = "{990, 0}";
},
{
name = top;
position = "{587, 952}";
}
);
components = (
{
name = acurve;
transform = "{1, 0, 0, 1, 86, 0}";
}
);
layerId = "5521DC30-183F-421A-91F3-644B5E24AFE6";
paths = (
{
closed = 1;
nodes = (
"1114 743 LINE",
"1114 879 OFFCURVE",
"1048 952 OFFCURVE",
"924 952 CURVE SMOOTH",
"800 952 OFFCURVE",
"733 879 OFFCURVE",
"733 743 CURVE",
"733 200 LINE SMOOTH",
"733 64 OFFCURVE",
"800 -10 OFFCURVE",
"924 -10 CURVE SMOOTH",
"1048 -10 OFFCURVE",
"1114 64 OFFCURVE",
"1114 196 CURVE"
);
}
);
width = 1238;
},
{
anchors = (
{
name = bottom;
position = "{696, 0}";
},
{
name = ogonek;
position = "{1012, 0}";
},
{
name = top;
position = "{605, 952}";
}
);
components = (
{
name = acurve;
transform = "{1, 0, 0, 1, 106, 0}";
}
);
layerId = "BE68D89F-AB3F-4BDF-B332-ED50D7C47704";
paths = (
{
closed = 1;
nodes = (
"1024 895 LINE",
"1024 932 OFFCURVE",
"1012 952 OFFCURVE",
"992 952 CURVE SMOOTH",
"972 952 OFFCURVE",
"961 932 OFFCURVE",
"961 895 CURVE",
"961 48 LINE SMOOTH",
"961 10 OFFCURVE",
"972 -10 OFFCURVE",
"992 -10 CURVE SMOOTH",
"1012 -10 OFFCURVE",
"1024 10 OFFCURVE",
"1024 48 CURVE"
);
}
);
width = 1238;
}
);
leftKerningGroup = a;
rightKerningGroup = n;
},
{
glyphname = aogonek;
lastChange = "2020-07-09 19:57:16 +0000";
layers = (
{
components = (
{
name = a;
}
);
layerId = "BE68D89F-AB3F-4BDF-B332-ED50D7C47704";
paths = (
{
closed = 1;
nodes = (
"1067 -439 OFFCURVE",
"1132 -432 OFFCURVE",
"1132 -398 CURVE SMOOTH",
"1132 -382 OFFCURVE",
"1117 -370 OFFCURVE",
"1093 -370 CURVE SMOOTH",
"1086 -370 OFFCURVE",
"1077 -371 OFFCURVE",
"1068 -373 CURVE SMOOTH",
"1051 -376 OFFCURVE",
"1032 -378 OFFCURVE",
"1013 -378 CURVE SMOOTH",
"950 -378 OFFCURVE",
"891 -347 OFFCURVE",
"891 -270 CURVE SMOOTH",
"891 -166 OFFCURVE",
"972 -32 OFFCURVE",
"1020 0 CURVE",
"986 0 LINE",
"932 0 OFFCURVE",
"820 -155 OFFCURVE",
"820 -268 CURVE SMOOTH",
"820 -384 OFFCURVE",
"914 -439 OFFCURVE",
"1020 -439 CURVE SMOOTH"
);
}
);
width = 1238;
},
{
components = (
{
name = a;
}
);
layerId = "5521DC30-183F-421A-91F3-644B5E24AFE6";
paths = (
{
closed = 1;
nodes = (
"1105 -488 OFFCURVE",
"1213 -444 OFFCURVE",
"1213 -350 CURVE SMOOTH",
"1213 -297 OFFCURVE",
"1192 -259 OFFCURVE",
"1133 -259 CURVE SMOOTH",
"1114 -259 OFFCURVE",
"1090 -261 OFFCURVE",
"1064 -268 CURVE SMOOTH",
"1046 -273 OFFCURVE",
"1008 -278 OFFCURVE",
"991 -278 CURVE SMOOTH",
"940 -278 OFFCURVE",
"915 -254 OFFCURVE",
"915 -199 CURVE SMOOTH",
"915 -123 OFFCURVE",
"984 -25 OFFCURVE",
"1024 0 CURVE",
"859 0 LINE",
"772 -19 OFFCURVE",
"650 -134 OFFCURVE",
"650 -283 CURVE SMOOTH",
"650 -442 OFFCURVE",
"800 -488 OFFCURVE",
"959 -488 CURVE SMOOTH"
);
}
);
width = 1238;
}
);
unicode = 0105;
},
{
glyphname = ae;
lastChange = "2020-07-09 19:00:51 +0000";
layers = (
{
anchors = (
{
name = bottom;
position = "{629, 0}";
},
{
name = top;
position = "{629, 952}";
}
);
layerId = "BE68D89F-AB3F-4BDF-B332-ED50D7C47704";
paths = (
{
closed = 1;
nodes = (
"490 -21 OFFCURVE",
"645 66 OFFCURVE",
"645 357 CURVE",
"645 726 LINE",
"645 899 OFFCURVE",
"524 975 OFFCURVE",
"354 975 CURVE SMOOTH",
"242 975 OFFCURVE",
"136 940 OFFCURVE",
"66 905 CURVE SMOOTH",
"40 892 OFFCURVE",
"28 877 OFFCURVE",
"28 863 CURVE SMOOTH",
"28 850 OFFCURVE",
"38 834 OFFCURVE",
"58 834 CURVE SMOOTH",
"70 834 OFFCURVE",
"83 838 OFFCURVE",
"99 847 CURVE SMOOTH",
"163 880 OFFCURVE",
"266 914 OFFCURVE",
"341 914 CURVE SMOOTH",
"490 914 OFFCURVE",
"579 861 OFFCURVE",
"579 710 CURVE SMOOTH",
"579 560 LINE",
"539 590 OFFCURVE",
"459 627 OFFCURVE",
"343 627 CURVE SMOOTH",
"128 627 OFFCURVE",
"0 488 OFFCURVE",
"0 307 CURVE SMOOTH",
"0 109 OFFCURVE",
"131 -21 OFFCURVE",
"312 -21 CURVE SMOOTH"
);
},
{
closed = 1;
nodes = (
"168 40 OFFCURVE",
"63 139 OFFCURVE",
"63 307 CURVE SMOOTH",
"63 457 OFFCURVE",
"168 566 OFFCURVE",
"345 566 CURVE SMOOTH",
"446 566 OFFCURVE",
"531 529 OFFCURVE",
"579 494 CURVE",
"579 424 LINE",
"579 128 OFFCURVE",
"491 40 OFFCURVE",
"314 40 CURVE SMOOTH"
);
},
{
closed = 1;
nodes = (
"1058 -21 OFFCURVE",
"1162 55 OFFCURVE",
"1210 128 CURVE SMOOTH",
"1222 145 OFFCURVE",
"1228 161 OFFCURVE",
"1228 175 CURVE SMOOTH",
"1228 192 OFFCURVE",
"1216 207 OFFCURVE",
"1200 207 CURVE SMOOTH",
"1184 207 OFFCURVE",
"1169 190 OFFCURVE",
"1153 169 CURVE SMOOTH",
"1109 105 OFFCURVE",
"1034 42 OFFCURVE",
"931 42 CURVE SMOOTH",
"777 42 OFFCURVE",
"649 185 OFFCURVE",
"649 478 CURVE SMOOTH",
"649 775 OFFCURVE",
"790 912 OFFCURVE",
"930 912 CURVE SMOOTH",
"1099 912 OFFCURVE",
"1163 718 OFFCURVE",
"1163 516 CURVE",
"666 516 LINE SMOOTH",
"629 516 OFFCURVE",
"618 505 OFFCURVE",
"618 485 CURVE SMOOTH",
"618 465 OFFCURVE",
"629 453 OFFCURVE",
"666 453 CURVE SMOOTH",
"1176 453 LINE SMOOTH",
"1212 453 OFFCURVE",
"1234 472 OFFCURVE",
"1234 510 CURVE SMOOTH",
"1234 777 OFFCURVE",
"1135 975 OFFCURVE",
"933 975 CURVE SMOOTH",
"766 975 OFFCURVE",
"582 827 OFFCURVE",
"582 478 CURVE SMOOTH",
"582 143 OFFCURVE",
"747 -21 OFFCURVE",
"931 -21 CURVE SMOOTH"
);
}
);
width = 1238;
},
{
anchors = (
{
name = bottom;
position = "{619, 0}";
},
{
name = top;
position = "{619, 952}";
}
);
layerId = "5521DC30-183F-421A-91F3-644B5E24AFE6";
paths = (
{
closed = 1;
nodes = (
"532 -21 OFFCURVE",
"755 60 OFFCURVE",
"755 406 CURVE SMOOTH",
"755 642 LINE SMOOTH",
"755 853 OFFCURVE",
"607 975 OFFCURVE",
"364 975 CURVE SMOOTH",
"291 975 OFFCURVE",
"245 971 OFFCURVE",
"179 959 CURVE SMOOTH",
"90 942 OFFCURVE",
"24 887 OFFCURVE",
"24 810 CURVE SMOOTH",
"24 735 OFFCURVE",
"68 690 OFFCURVE",
"150 690 CURVE SMOOTH",
"175 690 OFFCURVE",
"202 694 OFFCURVE",
"230 699 CURVE SMOOTH",
"261 705 OFFCURVE",
"294 707 OFFCURVE",
"330 707 CURVE SMOOTH",
"423 707 OFFCURVE",
"486 655 OFFCURVE",
"486 602 CURVE SMOOTH",
"486 573 LINE",
"470 589 OFFCURVE",
"405 625 OFFCURVE",
"307 625 CURVE SMOOTH",
"160 625 OFFCURVE",
"10 519 OFFCURVE",
"10 298 CURVE SMOOTH",
"10 92 OFFCURVE",
"179 -21 OFFCURVE",
"363 -21 CURVE SMOOTH"
);
},
{
closed = 1;
nodes = (
"347 225 OFFCURVE",
"307 261 OFFCURVE",
"307 320 CURVE SMOOTH",
"307 379 OFFCURVE",
"351 421 OFFCURVE",
"404 421 CURVE SMOOTH",
"451 421 OFFCURVE",
"473 400 OFFCURVE",
"486 385 CURVE",
"486 368 LINE",
"486 299 OFFCURVE",
"466 225 OFFCURVE",
"400 225 CURVE SMOOTH"
);
},
{
closed = 1;
nodes = (
"950 -21 OFFCURVE",
"1010 -8 OFFCURVE",
"1076 17 CURVE SMOOTH",
"1143 42 OFFCURVE",
"1207 98 OFFCURVE",
"1207 176 CURVE SMOOTH",
"1207 244 OFFCURVE",
"1168 298 OFFCURVE",
"1094 298 CURVE SMOOTH",
"1071 298 OFFCURVE",
"1050 292 OFFCURVE",
"1030 284 CURVE SMOOTH",
"972 256 OFFCURVE",
"938 246 OFFCURVE",
"883 246 CURVE SMOOTH",
"775 246 OFFCURVE",
"757 335 OFFCURVE",
"757 478 CURVE SMOOTH",
"757 627 OFFCURVE",
"781 709 OFFCURVE",
"873 709 CURVE SMOOTH",
"945 709 OFFCURVE",
"974 627 OFFCURVE",
"974 575 CURVE",
"800 575 LINE SMOOTH",
"687 575 OFFCURVE",
"660 540 OFFCURVE",
"660 474 CURVE SMOOTH",
"660 409 OFFCURVE",
"667 373 OFFCURVE",
"794 373 CURVE SMOOTH",
"1085 373 LINE SMOOTH",
"1211 373 OFFCURVE",
"1228 448 OFFCURVE",
"1228 582 CURVE SMOOTH",
"1228 842 OFFCURVE",
"1043 975 OFFCURVE",
"858 975 CURVE SMOOTH",
"623 975 OFFCURVE",
"498 794 OFFCURVE",
"498 478 CURVE SMOOTH",
"498 160 OFFCURVE",
"638 -21 OFFCURVE",
"863 -21 CURVE SMOOTH"
);
}
);
width = 1238;
}
);
unicode = 00E6;
},
{
glyphname = b;
lastChange = "2021-02-07 18:55:20 +0000";
layers = (
{
anchors = (
{
name = bottom;
position = "{579, 0}";
},
{
name = top;
position = "{320, 1524}";
}
);
components = (
{
name = acurve;
transform = "{-1, 0, 0, 1, 1158, 0}";
}
);
layerId = "5521DC30-183F-421A-91F3-644B5E24AFE6";
paths = (
{
closed = 1;
nodes = (
"443 -10 OFFCURVE",
"510 64 OFFCURVE",
"510 200 CURVE SMOOTH",
"510 1314 LINE SMOOTH",
"510 1450 OFFCURVE",
"443 1524 OFFCURVE",
"320 1524 CURVE SMOOTH",
"196 1524 OFFCURVE",
"129 1450 OFFCURVE",
"129 1314 CURVE SMOOTH",
"129 200 LINE SMOOTH",
"129 64 OFFCURVE",
"196 -10 OFFCURVE",
"320 -10 CURVE SMOOTH"
);
}
);
width = 1238;
},
{
anchors = (
{
name = bottom;
position = "{541, 0}";
},
{
name = top;
position = "{281, 1524}";
}
);
components = (
{
name = acurve;
transform = "{-1, 0, 0, 1, 1168, 0}";
}
);
layerId = "BE68D89F-AB3F-4BDF-B332-ED50D7C47704";
paths = (
{
closed = 1;
nodes = (
"301 -10 OFFCURVE",
"312 10 OFFCURVE",
"312 48 CURVE SMOOTH",
"312 1467 LINE SMOOTH",
"312 1504 OFFCURVE",
"301 1524 OFFCURVE",
"281 1524 CURVE SMOOTH",
"261 1524 OFFCURVE",
"250 1504 OFFCURVE",
"250 1467 CURVE SMOOTH",
"250 48 LINE SMOOTH",
"250 10 OFFCURVE",
"261 -10 OFFCURVE",
"281 -10 CURVE SMOOTH"
);
}
);
width = 1238;
}
);
leftKerningGroup = h;
rightKerningGroup = o;
unicode = 0062;
},
{
glyphname = c;
lastChange = "2020-11-05 18:20:59 +0000";
layers = (
{
anchors = (
{
name = bottom;
position = "{670, 0}";
},
{
name = top;
position = "{670, 952}";
}
);
layerId = "5521DC30-183F-421A-91F3-644B5E24AFE6";
paths = (
{
closed = 1;
nodes = (
"773 -19 OFFCURVE",
"875 5 OFFCURVE",
"955 49 CURVE SMOOTH",
"1025 87 OFFCURVE",
"1058 144 OFFCURVE",
"1058 197 CURVE SMOOTH",
"1058 288 OFFCURVE",
"982 350 OFFCURVE",
"896 350 CURVE SMOOTH",
"830 350 OFFCURVE",
"791 329 OFFCURVE",
"761 297 CURVE SMOOTH",
"736 270 OFFCURVE",
"705 248 OFFCURVE",
"664 248 CURVE SMOOTH",
"571 248 OFFCURVE",
"501 320 OFFCURVE",
"501 478 CURVE SMOOTH",
"501 636 OFFCURVE",
"571 709 OFFCURVE",
"664 709 CURVE SMOOTH",
"705 709 OFFCURVE",
"736 687 OFFCURVE",
"761 659 CURVE SMOOTH",
"790 627 OFFCURVE",
"830 607 OFFCURVE",
"896 607 CURVE SMOOTH",
"982 607 OFFCURVE",
"1058 669 OFFCURVE",
"1058 759 CURVE SMOOTH",
"1058 812 OFFCURVE",
"1025 870 OFFCURVE",
"955 908 CURVE SMOOTH",
"875 951 OFFCURVE",
"773 975 OFFCURVE",
"665 975 CURVE SMOOTH",
"402 975 OFFCURVE",
"116 836 OFFCURVE",
"116 478 CURVE SMOOTH",
"116 120 OFFCURVE",
"402 -19 OFFCURVE",
"665 -19 CURVE SMOOTH"
);
}
);
width = 1238;
},
{
anchors = (
{
name = bottom;
position = "{651, 0}";
},
{
name = top;
position = "{651, 952}";
}
);
layerId = "BE68D89F-AB3F-4BDF-B332-ED50D7C47704";
paths = (
{
closed = 1;
nodes = (
"803 -19 OFFCURVE",
"907 49 OFFCURVE",
"968 130 CURVE SMOOTH",
"979 145 OFFCURVE",
"984 158 OFFCURVE",
"984 170 CURVE SMOOTH",
"984 189 OFFCURVE",
"969 198 OFFCURVE",
"956 198 CURVE SMOOTH",
"943 198 OFFCURVE",
"929 185 OFFCURVE",
"912 162 CURVE SMOOTH",
"858 88 OFFCURVE",
"770 44 OFFCURVE",
"649 44 CURVE SMOOTH",
"483 44 OFFCURVE",
"267 179 OFFCURVE",
"267 478 CURVE SMOOTH",
"267 777 OFFCURVE",
"483 912 OFFCURVE",
"649 912 CURVE SMOOTH",
"770 912 OFFCURVE",
"858 869 OFFCURVE",
"912 794 CURVE SMOOTH",
"929 770 OFFCURVE",
"943 758 OFFCURVE",
"956 758 CURVE SMOOTH",
"969 758 OFFCURVE",
"984 768 OFFCURVE",
"984 787 CURVE SMOOTH",
"984 798 OFFCURVE",
"980 811 OFFCURVE",
"968 827 CURVE SMOOTH",
"907 908 OFFCURVE",
"803 975 OFFCURVE",
"649 975 CURVE SMOOTH",
"459 975 OFFCURVE",
"200 836 OFFCURVE",
"200 478 CURVE SMOOTH",
"200 120 OFFCURVE",
"459 -19 OFFCURVE",
"649 -19 CURVE SMOOTH"
);
}
);
width = 1238;
}
);
leftKerningGroup = o;
rightKerningGroup = c;
unicode = 0063;
},
{
glyphname = c.ss01;
lastChange = "2020-11-05 18:16:59 +0000";
layers = (
{
anchors = (
{
name = bottom;
position = "{670, 0}";
},
{
name = top;
position = "{670, 952}";
}
);
layerId = "5521DC30-183F-421A-91F3-644B5E24AFE6";
paths = (
{
closed = 1;
nodes = (
"773 -19 OFFCURVE",
"905 5 OFFCURVE",
"985 49 CURVE SMOOTH",
"1055 87 OFFCURVE",
"1088 144 OFFCURVE",
"1088 217 CURVE SMOOTH",
"1088 308 OFFCURVE",
"1022 350 OFFCURVE",
"936 350 CURVE SMOOTH",
"870 350 OFFCURVE",
"829 323 OFFCURVE",
"791 297 CURVE SMOOTH",
"748 267 OFFCURVE",
"705 248 OFFCURVE",
"664 248 CURVE SMOOTH",
"571 248 OFFCURVE",
"501 320 OFFCURVE",
"501 478 CURVE SMOOTH",
"501 636 OFFCURVE",
"551 709 OFFCURVE",
"644 709 CURVE SMOOTH",
"725 709 OFFCURVE",
"766 675 OFFCURVE",
"816 631 CURVE SMOOTH",
"843 607 OFFCURVE",
"889 570 OFFCURVE",
"941 570 CURVE SMOOTH",
"975 570 OFFCURVE",
"999 600 OFFCURVE",
"999 629 CURVE SMOOTH",
"999 682 OFFCURVE",
"994 705 OFFCURVE",
"958 772 CURVE SMOOTH",
"917 849 OFFCURVE",
"817 975 OFFCURVE",
"615 975 CURVE SMOOTH",
"352 975 OFFCURVE",
"116 836 OFFCURVE",
"116 478 CURVE SMOOTH",
"116 120 OFFCURVE",
"402 -19 OFFCURVE",
"665 -19 CURVE SMOOTH"
);
},
{
closed = 1;
nodes = (
"1038 570 OFFCURVE",
"1085 624 OFFCURVE",
"1085 751 CURVE SMOOTH",
"1085 799 LINE SMOOTH",
"1085 925 OFFCURVE",
"1028 970 OFFCURVE",
"961 970 CURVE SMOOTH",
"895 970 OFFCURVE",
"828 926 OFFCURVE",
"828 809 CURVE SMOOTH",
"828 741 LINE SMOOTH",
"828 614 OFFCURVE",
"885 570 OFFCURVE",
"941 570 CURVE SMOOTH"
);
}
);
width = 1238;
},
{
anchors = (
{
name = bottom;
position = "{651, 0}";
},
{
name = top;
position = "{651, 952}";
}
);
layerId = "BE68D89F-AB3F-4BDF-B332-ED50D7C47704";
paths = (
{
closed = 1;
nodes = (
"823 -19 OFFCURVE",
"927 69 OFFCURVE",
"988 150 CURVE SMOOTH",
"999 165 OFFCURVE",
"1004 178 OFFCURVE",
"1004 190 CURVE SMOOTH",
"1004 209 OFFCURVE",
"989 218 OFFCURVE",
"976 218 CURVE SMOOTH",
"963 218 OFFCURVE",
"949 205 OFFCURVE",
"932 182 CURVE SMOOTH",
"878 108 OFFCURVE",
"790 44 OFFCURVE",
"649 44 CURVE SMOOTH",
"483 44 OFFCURVE",
"266 179 OFFCURVE",
"266 478 CURVE SMOOTH",
"266 777 OFFCURVE",
"473 912 OFFCURVE",
"639 912 CURVE SMOOTH",
"780 912 OFFCURVE",
"863 847 OFFCURVE",
"899 797 CURVE SMOOTH",
"918 771 OFFCURVE",
"924 764 OFFCURVE",
"945 764 CURVE SMOOTH",
"961 764 OFFCURVE",
"963 776 OFFCURVE",
"963 790 CURVE SMOOTH",
"963 803 OFFCURVE",
"960 811 OFFCURVE",
"937 844 CURVE SMOOTH",
"905 889 OFFCURVE",
"807 975 OFFCURVE",
"639 975 CURVE SMOOTH",
"449 975 OFFCURVE",
"199 836 OFFCURVE",
"199 478 CURVE SMOOTH",
"199 120 OFFCURVE",
"459 -19 OFFCURVE",
"649 -19 CURVE SMOOTH"
);
},
{
closed = 1;
nodes = (
"963 764 OFFCURVE",
"976 780 OFFCURVE",
"976 807 CURVE SMOOTH",
"976 927 LINE SMOOTH",
"976 954 OFFCURVE",
"963 971 OFFCURVE",
"944 971 CURVE SMOOTH",
"924 971 OFFCURVE",
"911 954 OFFCURVE",
"911 927 CURVE SMOOTH",
"911 807 LINE SMOOTH",
"911 780 OFFCURVE",
"924 764 OFFCURVE",
"944 764 CURVE SMOOTH"
);
}
);
width = 1238;
}
);
leftKerningGroup = o;
rightKerningGroup = c;
},
{
glyphname = ccedilla;
lastChange = "2020-07-09 20:00:40 +0000";
layers = (
{
anchors = (
{
name = bottom;
position = "{670, -476}";
}
);
components = (
{
name = c;
}
);
layerId = "5521DC30-183F-421A-91F3-644B5E24AFE6";
paths = (
{
closed = 1;
nodes = (
"774 -473 OFFCURVE",
"963 -404 OFFCURVE",
"963 -264 CURVE SMOOTH",
"963 -156 OFFCURVE",
"854 -110 OFFCURVE",
"763 -110 CURVE SMOOTH",
"711 -110 OFFCURVE",
"664 -120 OFFCURVE",
"626 -151 CURVE",
"678 0 LINE SMOOTH",
"682 11 OFFCURVE",
"686 23 OFFCURVE",
"686 32 CURVE SMOOTH",
"686 69 OFFCURVE",
"651 89 OFFCURVE",
"606 89 CURVE SMOOTH",
"549 89 OFFCURVE",
"503 45 OFFCURVE",
"486 0 CURVE SMOOTH",
"434 -139 LINE SMOOTH",
"428 -154 OFFCURVE",
"424 -170 OFFCURVE",
"424 -185 CURVE SMOOTH",
"424 -228 OFFCURVE",
"450 -264 OFFCURVE",
"509 -264 CURVE SMOOTH",
"534 -264 OFFCURVE",
"559 -259 OFFCURVE",
"585 -251 CURVE SMOOTH",
"609 -244 OFFCURVE",
"635 -240 OFFCURVE",
"660 -240 CURVE SMOOTH",
"689 -240 OFFCURVE",
"706 -250 OFFCURVE",
"706 -270 CURVE SMOOTH",
"706 -300 OFFCURVE",
"664 -315 OFFCURVE",
"597 -315 CURVE SMOOTH",
"560 -315 OFFCURVE",
"531 -314 OFFCURVE",
"505 -307 CURVE SMOOTH",
"483 -301 OFFCURVE",
"462 -297 OFFCURVE",
"443 -297 CURVE SMOOTH",
"406 -297 OFFCURVE",
"370 -322 OFFCURVE",
"370 -369 CURVE SMOOTH",
"370 -403 OFFCURVE",
"391 -432 OFFCURVE",
"438 -453 CURVE SMOOTH",
"469 -467 OFFCURVE",
"513 -473 OFFCURVE",
"571 -473 CURVE SMOOTH"
);
}
);
width = 1238;
},
{
anchors = (
{
name = bottom;
position = "{665, -410}";
}
);
components = (
{
name = c;
}
);
layerId = "BE68D89F-AB3F-4BDF-B332-ED50D7C47704";
paths = (
{
closed = 1;
nodes = (
"739 -416 OFFCURVE",
"862 -353 OFFCURVE",
"862 -222 CURVE SMOOTH",
"862 -144 OFFCURVE",
"800 -112 OFFCURVE",
"733 -112 CURVE SMOOTH",
"687 -112 OFFCURVE",
"640 -128 OFFCURVE",
"610 -145 CURVE",
"653 0 LINE SMOOTH",
"654 3 OFFCURVE",
"655 7 OFFCURVE",
"655 10 CURVE SMOOTH",
"655 22 OFFCURVE",
"644 30 OFFCURVE",
"630 30 CURVE SMOOTH",
"610 30 OFFCURVE",
"597 12 OFFCURVE",
"593 0 CURVE SMOOTH",
"549 -140 LINE SMOOTH",
"545 -152 OFFCURVE",
"541 -166 OFFCURVE",
"541 -174 CURVE SMOOTH",
"541 -193 OFFCURVE",
"552 -199 OFFCURVE",
"568 -199 CURVE SMOOTH",
"586 -199 OFFCURVE",
"602 -194 OFFCURVE",
"620 -187 CURVE SMOOTH",
"644 -177 OFFCURVE",
"673 -169 OFFCURVE",
"718 -169 CURVE SMOOTH",
"759 -169 OFFCURVE",
"792 -188 OFFCURVE",
"792 -236 CURVE SMOOTH",
"792 -314 OFFCURVE",
"703 -355 OFFCURVE",
"597 -355 CURVE SMOOTH",
"576 -355 OFFCURVE",
"545 -353 OFFCURVE",
"531 -350 CURVE SMOOTH",
"521 -348 OFFCURVE",
"513 -347 OFFCURVE",
"504 -347 CURVE SMOOTH",
"480 -347 OFFCURVE",
"468 -356 OFFCURVE",
"468 -375 CURVE SMOOTH",
"468 -390 OFFCURVE",
"485 -403 OFFCURVE",
"519 -410 CURVE SMOOTH",
"544 -415 OFFCURVE",
"570 -416 OFFCURVE",
"594 -416 CURVE SMOOTH"
);
}
);
width = 1238;
}
);
leftKerningGroup = o;
rightKerningGroup = c;
unicode = 00E7;
},
{
glyphname = ccedilla.ss01;
lastChange = "2020-11-05 18:18:21 +0000";
layers = (
{
anchors = (
{
name = bottom;
position = "{670, -476}";
}
);
components = (
{
name = c.ss01;
}
);
layerId = "5521DC30-183F-421A-91F3-644B5E24AFE6";
paths = (
{
closed = 1;
nodes = (
"774 -473 OFFCURVE",
"963 -404 OFFCURVE",
"963 -264 CURVE SMOOTH",
"963 -156 OFFCURVE",
"854 -110 OFFCURVE",
"763 -110 CURVE SMOOTH",
"711 -110 OFFCURVE",
"664 -120 OFFCURVE",
"626 -151 CURVE",
"678 0 LINE SMOOTH",
"682 11 OFFCURVE",
"686 23 OFFCURVE",
"686 32 CURVE SMOOTH",
"686 69 OFFCURVE",
"651 89 OFFCURVE",
"606 89 CURVE SMOOTH",
"549 89 OFFCURVE",
"503 45 OFFCURVE",
"486 0 CURVE SMOOTH",
"434 -139 LINE SMOOTH",
"428 -154 OFFCURVE",
"424 -170 OFFCURVE",
"424 -185 CURVE SMOOTH",
"424 -228 OFFCURVE",
"450 -264 OFFCURVE",
"509 -264 CURVE SMOOTH",
"534 -264 OFFCURVE",
"559 -259 OFFCURVE",
"585 -251 CURVE SMOOTH",
"609 -244 OFFCURVE",
"635 -240 OFFCURVE",
"660 -240 CURVE SMOOTH",
"689 -240 OFFCURVE",
"706 -250 OFFCURVE",
"706 -270 CURVE SMOOTH",
"706 -300 OFFCURVE",
"664 -315 OFFCURVE",
"597 -315 CURVE SMOOTH",
"560 -315 OFFCURVE",
"531 -314 OFFCURVE",
"505 -307 CURVE SMOOTH",
"483 -301 OFFCURVE",
"462 -297 OFFCURVE",
"443 -297 CURVE SMOOTH",
"406 -297 OFFCURVE",
"370 -322 OFFCURVE",
"370 -369 CURVE SMOOTH",
"370 -403 OFFCURVE",
"391 -432 OFFCURVE",
"438 -453 CURVE SMOOTH",
"469 -467 OFFCURVE",
"513 -473 OFFCURVE",
"571 -473 CURVE SMOOTH"
);
}
);
width = 1238;
},
{
anchors = (
{
name = bottom;
position = "{665, -410}";
}
);
components = (
{
name = c.ss01;
}
);
layerId = "BE68D89F-AB3F-4BDF-B332-ED50D7C47704";
paths = (
{
closed = 1;
nodes = (
"739 -416 OFFCURVE",
"862 -353 OFFCURVE",
"862 -222 CURVE SMOOTH",
"862 -144 OFFCURVE",
"800 -112 OFFCURVE",
"733 -112 CURVE SMOOTH",
"687 -112 OFFCURVE",
"640 -128 OFFCURVE",
"610 -145 CURVE",
"653 0 LINE SMOOTH",
"654 3 OFFCURVE",
"655 7 OFFCURVE",
"655 10 CURVE SMOOTH",
"655 22 OFFCURVE",
"644 30 OFFCURVE",
"630 30 CURVE SMOOTH",
"610 30 OFFCURVE",
"597 12 OFFCURVE",
"593 0 CURVE SMOOTH",
"549 -140 LINE SMOOTH",
"545 -152 OFFCURVE",
"541 -166 OFFCURVE",
"541 -174 CURVE SMOOTH",
"541 -193 OFFCURVE",
"552 -199 OFFCURVE",
"568 -199 CURVE SMOOTH",
"586 -199 OFFCURVE",
"602 -194 OFFCURVE",
"620 -187 CURVE SMOOTH",
"644 -177 OFFCURVE",
"673 -169 OFFCURVE",
"718 -169 CURVE SMOOTH",
"759 -169 OFFCURVE",
"792 -188 OFFCURVE",
"792 -236 CURVE SMOOTH",
"792 -314 OFFCURVE",
"703 -355 OFFCURVE",
"597 -355 CURVE SMOOTH",
"576 -355 OFFCURVE",
"545 -353 OFFCURVE",
"531 -350 CURVE SMOOTH",
"521 -348 OFFCURVE",
"513 -347 OFFCURVE",
"504 -347 CURVE SMOOTH",
"480 -347 OFFCURVE",
"468 -356 OFFCURVE",
"468 -375 CURVE SMOOTH",
"468 -390 OFFCURVE",
"485 -403 OFFCURVE",
"519 -410 CURVE SMOOTH",
"544 -415 OFFCURVE",
"570 -416 OFFCURVE",
"594 -416 CURVE SMOOTH"
);
}
);
width = 1238;
}
);
leftKerningGroup = o;
rightKerningGroup = c;
},
{
glyphname = eth;
lastChange = "2021-02-07 18:56:51 +0000";
layers = (
{
components = (
{
name = o;
}
);
layerId = "5521DC30-183F-421A-91F3-644B5E24AFE6";
paths = (
{
closed = 1;
nodes = (
"1164 933 OFFCURVE",
"819 1359 OFFCURVE",
"524 1485 CURVE SMOOTH",
"468 1509 OFFCURVE",
"426 1522 OFFCURVE",
"383 1522 CURVE SMOOTH",
"325 1522 OFFCURVE",
"260 1479 OFFCURVE",
"260 1407 CURVE SMOOTH",
"260 1351 OFFCURVE",
"286 1289 OFFCURVE",
"386 1228 CURVE SMOOTH",
"610 1091 OFFCURVE",
"781 952 OFFCURVE",
"781 577 CURVE",
"1164 478 LINE"
);
},
{
closed = 1;
nodes = (
"418 1060 OFFCURVE",
"473 1086 OFFCURVE",
"536 1141 CURVE SMOOTH",
"681 1267 LINE SMOOTH",
"756 1332 OFFCURVE",
"796 1387 OFFCURVE",
"796 1430 CURVE SMOOTH",
"796 1469 OFFCURVE",
"765 1502 OFFCURVE",
"720 1502 CURVE SMOOTH",
"678 1502 OFFCURVE",
"622 1475 OFFCURVE",
"555 1423 CURVE SMOOTH",
"437 1330 LINE SMOOTH",
"324 1241 OFFCURVE",
"285 1180 OFFCURVE",
"285 1135 CURVE SMOOTH",
"285 1092 OFFCURVE",
"328 1060 OFFCURVE",
"373 1060 CURVE SMOOTH"
);
}
);
width = 1238;
},
{
components = (
{
name = o;
}
);
layerId = "BE68D89F-AB3F-4BDF-B332-ED50D7C47704";
paths = (
{
closed = 1;
nodes = (
"1083 1032 OFFCURVE",
"677 1419 OFFCURVE",
"395 1503 CURVE SMOOTH",
"380 1508 OFFCURVE",
"367 1510 OFFCURVE",
"354 1510 CURVE SMOOTH",
"337 1510 OFFCURVE",
"321 1501 OFFCURVE",
"321 1485 CURVE SMOOTH",
"321 1468 OFFCURVE",
"334 1453 OFFCURVE",
"367 1444 CURVE SMOOTH",
"613 1378 OFFCURVE",
"1018 1004 OFFCURVE",
"1018 488 CURVE",
"1083 478 LINE"
);
},
{
closed = 1;
nodes = (
"466 1278 OFFCURVE",
"480 1283 OFFCURVE",
"495 1292 CURVE SMOOTH",
"669 1400 LINE SMOOTH",
"691 1414 OFFCURVE",
"701 1431 OFFCURVE",
"701 1446 CURVE SMOOTH",
"701 1462 OFFCURVE",
"691 1476 OFFCURVE",
"670 1476 CURVE SMOOTH",
"657 1476 OFFCURVE",
"643 1472 OFFCURVE",
"629 1463 CURVE SMOOTH",
"454 1352 LINE SMOOTH",
"430 1337 OFFCURVE",
"419 1322 OFFCURVE",
"419 1309 CURVE SMOOTH",
"419 1294 OFFCURVE",
"433 1278 OFFCURVE",
"453 1278 CURVE SMOOTH"
);
}
);
width = 1238;
}
);
leftKerningGroup = eth;
rightKerningGroup = eth;
unicode = 00F0;
},
{
glyphname = dcroat;
lastChange = "2020-07-15 19:49:19 +0000";
layers = (
{
components = (
{
name = d;
transform = "{1, 0, 0, 1, -20, 0}";
}
);
layerId = "5521DC30-183F-421A-91F3-644B5E24AFE6";
paths = (
{
closed = 1;
nodes = (
"413 1162 OFFCURVE",
"457 1122 OFFCURVE",
"593 1122 CURVE SMOOTH",
"1081 1122 LINE SMOOTH",
"1197 1122 OFFCURVE",
"1240 1162 OFFCURVE",
"1240 1236 CURVE SMOOTH",
"1240 1311 OFFCURVE",
"1197 1351 OFFCURVE",
"1081 1351 CURVE SMOOTH",
"593 1351 LINE SMOOTH",
"457 1351 OFFCURVE",
"413 1311 OFFCURVE",
"413 1236 CURVE SMOOTH"
);
}
);
width = 1238;
},
{
components = (
{
name = d;
}
);
layerId = "BE68D89F-AB3F-4BDF-B332-ED50D7C47704";
paths = (
{
closed = 1;
nodes = (
"558 1218 OFFCURVE",
"578 1208 OFFCURVE",
"615 1208 CURVE SMOOTH",
"1068 1208 LINE SMOOTH",
"1106 1208 OFFCURVE",
"1126 1219 OFFCURVE",
"1126 1238 CURVE SMOOTH",
"1126 1257 OFFCURVE",
"1106 1269 OFFCURVE",
"1068 1269 CURVE SMOOTH",
"615 1269 LINE SMOOTH",
"578 1269 OFFCURVE",
"558 1257 OFFCURVE",
"558 1238 CURVE SMOOTH"
);
}
);
width = 1238;
}
);
leftKerningGroup = o;
rightKerningGroup = l;
unicode = 0111;
},
{
glyphname = e;
lastChange = "2021-02-07 18:30:05 +0000";
layers = (
{
anchors = (
{
name = bottom;
position = "{649, 0}";
},
{
name = ogonek;
position = "{844, 0}";
},
{
name = top;
position = "{628, 952}";
}
);
layerId = "5521DC30-183F-421A-91F3-644B5E24AFE6";
paths = (
{
closed = 1;
nodes = (
"775 -21 OFFCURVE",
"917 9 OFFCURVE",
"1001 65 CURVE SMOOTH",
"1061 105 OFFCURVE",
"1108 143 OFFCURVE",
"1108 225 CURVE SMOOTH",
"1108 307 OFFCURVE",
"1050 349 OFFCURVE",
"974 349 CURVE SMOOTH",
"915 349 OFFCURVE",
"864 324 OFFCURVE",
"810 293 CURVE SMOOTH",
"767 268 OFFCURVE",
"725 246 OFFCURVE",
"646 246 CURVE SMOOTH",
"531 246 OFFCURVE",
"473 335 OFFCURVE",
"473 478 CURVE SMOOTH",
"473 627 OFFCURVE",
"532 729 OFFCURVE",
"631 729 CURVE SMOOTH",
"729 729 OFFCURVE",
"782 644 OFFCURVE",
"782 546 CURVE",
"810 595 LINE",
"460 595 LINE",
"460 403 LINE",
"929 403 LINE SMOOTH",
"1054 403 OFFCURVE",
"1110 447 OFFCURVE",
"1110 567 CURVE SMOOTH",
"1110 804 OFFCURVE",
"904 975 OFFCURVE",
"620 975 CURVE SMOOTH",
"330 975 OFFCURVE",
"111 794 OFFCURVE",
"111 478 CURVE SMOOTH",
"111 160 OFFCURVE",
"337 -21 OFFCURVE",
"615 -21 CURVE SMOOTH"
);
}
);
width = 1238;
},
{
anchors = (
{
name = bottom;
position = "{639, 0}";
},
{
name = ogonek;
position = "{769, 0}";
},
{
name = top;
position = "{639, 952}";
}
);
layerId = "BE68D89F-AB3F-4BDF-B332-ED50D7C47704";
paths = (
{
closed = 1;
nodes = (
"820 -21 OFFCURVE",
"935 66 OFFCURVE",
"1001 138 CURVE SMOOTH",
"1015 153 OFFCURVE",
"1022 167 OFFCURVE",
"1022 180 CURVE SMOOTH",
"1022 197 OFFCURVE",
"1006 208 OFFCURVE",
"990 208 CURVE SMOOTH",
"974 208 OFFCURVE",
"961 198 OFFCURVE",
"944 179 CURVE SMOOTH",
"888 117 OFFCURVE",
"796 42 OFFCURVE",
"626 42 CURVE SMOOTH",
"434 42 OFFCURVE",
"248 185 OFFCURVE",
"248 478 CURVE SMOOTH",
"248 775 OFFCURVE",
"447 912 OFFCURVE",
"624 912 CURVE SMOOTH",
"844 912 OFFCURVE",
"979 754 OFFCURVE",
"979 512 CURVE",
"1007 536 LINE",
"227 536 LINE",
"227 473 LINE",
"990 473 LINE SMOOTH",
"1026 473 OFFCURVE",
"1048 492 OFFCURVE",
"1048 530 CURVE SMOOTH",
"1048 777 OFFCURVE",
"878 975 OFFCURVE",
"628 975 CURVE SMOOTH",
"422 975 OFFCURVE",
"181 827 OFFCURVE",
"181 478 CURVE SMOOTH",
"181 133 OFFCURVE",
"403 -21 OFFCURVE",
"626 -21 CURVE SMOOTH"
);
}
);
width = 1238;
},
{
anchors = (
{
name = bottom;
position = "{639, 0}";
},
{
name = ogonek;
position = "{802, 0}";
},
{
name = top;
position = "{629, 952}";
}
);
associatedMasterId = "BE68D89F-AB3F-4BDF-B332-ED50D7C47704";
layerId = "91C3C780-A428-448E-9FFB-C711A7622D08";
name = "{500}";
paths = (
{
closed = 1;
nodes = (
"798 -21 OFFCURVE",
"921 35 OFFCURVE",
"996 97 CURVE SMOOTH",
"1032 126 OFFCURVE",
"1055 155 OFFCURVE",
"1055 193 CURVE SMOOTH",
"1055 242 OFFCURVE",
"1023 275 OFFCURVE",
"974 275 CURVE SMOOTH",
"936 275 OFFCURVE",
"906 259 OFFCURVE",
"878 236 CURVE SMOOTH",
"826 192 OFFCURVE",
"756 144 OFFCURVE",
"631 144 CURVE SMOOTH",
"478 144 OFFCURVE",
"346 260 OFFCURVE",
"346 478 CURVE SMOOTH",
"346 721 OFFCURVE",
"480 821 OFFCURVE",
"618 821 CURVE SMOOTH",
"777 821 OFFCURVE",
"865 719 OFFCURVE",
"865 529 CURVE",
"904 590 LINE",
"339 590 LINE",
"339 438 LINE",
"955 438 LINE SMOOTH",
"1035 438 OFFCURVE",
"1064 470 OFFCURVE",
"1064 549 CURVE SMOOTH",
"1064 806 OFFCURVE",
"886 975 OFFCURVE",
"619 975 CURVE SMOOTH",
"371 975 OFFCURVE",
"131 811 OFFCURVE",
"131 478 CURVE SMOOTH",
"131 147 OFFCURVE",
"370 -21 OFFCURVE",
"621 -21 CURVE SMOOTH"
);
}
);
width = 1238;
}
);
leftKerningGroup = o;
rightKerningGroup = e;
unicode = 0065;
},
{
glyphname = eogonek;
lastChange = "2020-07-09 19:57:36 +0000";
layers = (
{
components = (
{
name = e;
}
);
layerId = "5521DC30-183F-421A-91F3-644B5E24AFE6";
paths = (
{
closed = 1;
nodes = (
"1025 -456 OFFCURVE",
"1133 -412 OFFCURVE",
"1133 -318 CURVE SMOOTH",
"1133 -265 OFFCURVE",
"1112 -227 OFFCURVE",
"1053 -227 CURVE SMOOTH",
"1034 -227 OFFCURVE",
"1010 -229 OFFCURVE",
"984 -236 CURVE SMOOTH",
"966 -241 OFFCURVE",
"928 -246 OFFCURVE",
"911 -246 CURVE SMOOTH",
"860 -246 OFFCURVE",
"835 -222 OFFCURVE",
"835 -167 CURVE SMOOTH",
"835 -91 OFFCURVE",
"904 7 OFFCURVE",
"944 32 CURVE",
"779 32 LINE",
"692 13 OFFCURVE",
"570 -102 OFFCURVE",
"570 -251 CURVE SMOOTH",
"570 -410 OFFCURVE",
"720 -456 OFFCURVE",
"879 -456 CURVE SMOOTH"
);
}
);
width = 1238;
},
{
components = (
{
name = e;
}
);
layerId = "BE68D89F-AB3F-4BDF-B332-ED50D7C47704";
paths = (
{
closed = 1;
nodes = (
"893 -409 OFFCURVE",
"958 -402 OFFCURVE",
"958 -368 CURVE SMOOTH",
"958 -352 OFFCURVE",
"943 -340 OFFCURVE",
"919 -340 CURVE SMOOTH",
"912 -340 OFFCURVE",
"903 -341 OFFCURVE",
"894 -343 CURVE SMOOTH",
"877 -346 OFFCURVE",
"858 -348 OFFCURVE",
"839 -348 CURVE SMOOTH",
"776 -348 OFFCURVE",
"717 -317 OFFCURVE",
"717 -240 CURVE SMOOTH",
"717 -136 OFFCURVE",
"798 -2 OFFCURVE",
"846 30 CURVE",
"812 30 LINE",
"758 30 OFFCURVE",
"646 -125 OFFCURVE",
"646 -238 CURVE SMOOTH",
"646 -354 OFFCURVE",
"740 -409 OFFCURVE",
"846 -409 CURVE SMOOTH"
);
}
);
width = 1238;
}
);
leftKerningGroup = o;
rightKerningGroup = e;
unicode = 0119;
},
{
glyphname = schwa;
lastChange = "2021-02-07 18:26:05 +0000";
layers = (
{
layerId = "BE68D89F-AB3F-4BDF-B332-ED50D7C47704";
paths = (
{
closed = 1;
nodes = (
"807 -21 OFFCURVE",
"1038 127 OFFCURVE",
"1038 476 CURVE SMOOTH",
"1038 821 OFFCURVE",
"826 975 OFFCURVE",
"603 975 CURVE SMOOTH",
"419 975 OFFCURVE",
"304 898 OFFCURVE",
"238 826 CURVE SMOOTH",
"224 811 OFFCURVE",
"217 797 OFFCURVE",
"217 784 CURVE SMOOTH",
"217 767 OFFCURVE",
"233 756 OFFCURVE",
"249 756 CURVE SMOOTH",
"265 756 OFFCURVE",
"278 766 OFFCURVE",
"295 785 CURVE SMOOTH",
"351 847 OFFCURVE",
"443 912 OFFCURVE",
"603 912 CURVE SMOOTH",
"795 912 OFFCURVE",
"971 769 OFFCURVE",
"971 476 CURVE SMOOTH",
"971 179 OFFCURVE",
"782 42 OFFCURVE",
"605 42 CURVE SMOOTH",
"385 42 OFFCURVE",
"250 200 OFFCURVE",
"250 462 CURVE",
"222 438 LINE",
"992 438 LINE",
"992 501 LINE",
"239 501 LINE SMOOTH",
"203 501 OFFCURVE",
"181 482 OFFCURVE",
"181 444 CURVE SMOOTH",
"181 177 OFFCURVE",
"351 -21 OFFCURVE",
"601 -21 CURVE SMOOTH"
);
}
);
width = 1238;
},
{
layerId = "5521DC30-183F-421A-91F3-644B5E24AFE6";
paths = (
{
closed = 1;
nodes = (
"901 -21 OFFCURVE",
"1120 160 OFFCURVE",
"1120 476 CURVE SMOOTH",
"1120 794 OFFCURVE",
"884 975 OFFCURVE",
"606 975 CURVE SMOOTH",
"446 975 OFFCURVE",
"314 949 OFFCURVE",
"230 899 CURVE SMOOTH",
"168 862 OFFCURVE",
"133 811 OFFCURVE",
"133 749 CURVE SMOOTH",
"133 667 OFFCURVE",
"182 621 OFFCURVE",
"264 621 CURVE SMOOTH",
"323 621 OFFCURVE",
"366 641 OFFCURVE",
"409 662 CURVE SMOOTH",
"457 685 OFFCURVE",
"506 708 OFFCURVE",
"585 708 CURVE SMOOTH",
"700 708 OFFCURVE",
"758 619 OFFCURVE",
"758 476 CURVE SMOOTH",
"758 327 OFFCURVE",
"699 245 OFFCURVE",
"600 245 CURVE SMOOTH",
"502 245 OFFCURVE",
"459 330 OFFCURVE",
"459 428 CURVE",
"421 379 LINE",
"771 379 LINE",
"771 571 LINE",
"302 571 LINE SMOOTH",
"177 571 OFFCURVE",
"111 517 OFFCURVE",
"111 397 CURVE SMOOTH",
"111 130 OFFCURVE",
"327 -21 OFFCURVE",
"611 -21 CURVE SMOOTH"
);
}
);
width = 1238;
}
);
unicode = 0259;
},
{
glyphname = f;
lastChange = "2020-07-09 19:07:10 +0000";
layers = (
{
anchors = (
{
name = bottom;
position = "{552, 0}";
},
{
name = top;
position = "{616, 1524}";
}
);
layerId = "5521DC30-183F-421A-91F3-644B5E24AFE6";
paths = (
{
closed = 1;
nodes = (
"893 686 LINE SMOOTH",
"1020 686 OFFCURVE",
"1084 732 OFFCURVE",
"1084 819 CURVE SMOOTH",
"1084 906 OFFCURVE",
"1020 952 OFFCURVE",
"893 952 CURVE SMOOTH",
"269 952 LINE SMOOTH",
"142 952 OFFCURVE",
"78 906 OFFCURVE",
"78 819 CURVE SMOOTH",
"78 732 OFFCURVE",
"142 686 OFFCURVE",
"269 686 CURVE SMOOTH"
);
},
{
closed = 1;
nodes = (
"700 1226 OFFCURVE",
"730 1289 OFFCURVE",
"782 1289 CURVE SMOOTH",
"821 1289 OFFCURVE",
"851 1263 OFFCURVE",
"857 1219 CURVE SMOOTH",
"864 1170 OFFCURVE",
"892 1113 OFFCURVE",
"1000 1113 CURVE SMOOTH",
"1093 1113 OFFCURVE",
"1151 1163 OFFCURVE",
"1151 1264 CURVE SMOOTH",
"1151 1435 OFFCURVE",
"985 1551 OFFCURVE",
"771 1551 CURVE SMOOTH",
"562 1551 OFFCURVE",
"319 1437 OFFCURVE",
"319 1087 CURVE SMOOTH",
"319 190 LINE SMOOTH",
"319 54 OFFCURVE",
"386 -19 OFFCURVE",
"510 -19 CURVE SMOOTH",
"633 -19 OFFCURVE",
"700 54 OFFCURVE",
"700 190 CURVE SMOOTH",
"700 1068 LINE SMOOTH"
);
}
);
width = 1238;
},
{
anchors = (
{
name = bottom;
position = "{495, 0}";
},
{
name = top;
position = "{543, 1524}";
}
);
layerId = "BE68D89F-AB3F-4BDF-B332-ED50D7C47704";
paths = (
{
closed = 1;
nodes = (
"950 891 LINE SMOOTH",
"988 891 OFFCURVE",
"1008 903 OFFCURVE",
"1008 922 CURVE SMOOTH",
"1008 941 OFFCURVE",
"988 952 OFFCURVE",
"950 952 CURVE SMOOTH",
"194 952 LINE SMOOTH",
"157 952 OFFCURVE",
"137 941 OFFCURVE",
"137 922 CURVE SMOOTH",
"137 902 OFFCURVE",
"157 891 OFFCURVE",
"194 891 CURVE SMOOTH"
);
},
{
closed = 1;
nodes = (
"520 1413 OFFCURVE",
"623 1494 OFFCURVE",
"744 1494 CURVE SMOOTH",
"876 1494 OFFCURVE",
"954 1401 OFFCURVE",
"961 1240 CURVE SMOOTH",
"962 1217 OFFCURVE",
"970 1191 OFFCURVE",
"994 1191 CURVE SMOOTH",
"1019 1191 OFFCURVE",
"1024 1214 OFFCURVE",
"1024 1240 CURVE SMOOTH",
"1024 1422 OFFCURVE",
"914 1550 OFFCURVE",
"745 1550 CURVE SMOOTH",
"587 1550 OFFCURVE",
"457 1452 OFFCURVE",
"457 1189 CURVE SMOOTH",
"457 44 LINE SMOOTH",
"457 7 OFFCURVE",
"469 -13 OFFCURVE",
"489 -13 CURVE SMOOTH",
"509 -13 OFFCURVE",
"520 7 OFFCURVE",
"520 44 CURVE SMOOTH",
"520 1179 LINE SMOOTH"
);
}
);
width = 1238;
}
);
leftKerningGroup = f;
rightKerningGroup = f;
unicode = 0066;
},
{
color = 4;
glyphname = g;
lastChange = "2020-11-05 18:05:56 +0000";
layers = (
{
anchors = (
{
name = bottom;
position = "{629, 0}";
},
{
name = top;
position = "{629, 952}";
}
);
components = (
{
name = acurve;
transform = "{1, 0, 0, 1, 78, 0}";
}
);
layerId = "5521DC30-183F-421A-91F3-644B5E24AFE6";
paths = (
{
closed = 1;
nodes = (
"726 -103 LINE SMOOTH",
"726 -192 OFFCURVE",
"662 -227 OFFCURVE",
"603 -227 CURVE SMOOTH",
"545 -227 OFFCURVE",
"511 -210 OFFCURVE",
"486 -182 CURVE SMOOTH",
"451 -142 OFFCURVE",
"405 -90 OFFCURVE",
"308 -90 CURVE SMOOTH",
"203 -90 OFFCURVE",
"129 -142 OFFCURVE",
"129 -252 CURVE SMOOTH",
"129 -427 OFFCURVE",
"372 -497 OFFCURVE",
"593 -497 CURVE SMOOTH",
"831 -497 OFFCURVE",
"1107 -404 OFFCURVE",
"1107 0 CURVE SMOOTH",
"1107 762 LINE SMOOTH",
"1107 898 OFFCURVE",
"1040 971 OFFCURVE",
"916 971 CURVE SMOOTH",
"792 971 OFFCURVE",
"726 898 OFFCURVE",
"726 762 CURVE SMOOTH"
);
}
);
width = 1238;
},
{
anchors = (
{
name = bottom;
position = "{705, 0}";
},
{
name = top;
position = "{705, 952}";
}
);
components = (
{
name = acurve;
transform = "{1, 0, 0, 1, 98, 0}";
}
);
layerId = "BE68D89F-AB3F-4BDF-B332-ED50D7C47704";
paths = (
{
closed = 1;
nodes = (
"952 -46 LINE SMOOTH",
"952 -333 OFFCURVE",
"804 -432 OFFCURVE",
"623 -432 CURVE SMOOTH",
"466 -432 OFFCURVE",
"336 -367 OFFCURVE",
"308 -213 CURVE SMOOTH",
"302 -182 OFFCURVE",
"293 -159 OFFCURVE",
"270 -159 CURVE SMOOTH",
"251 -159 OFFCURVE",
"239 -172 OFFCURVE",
"239 -194 CURVE SMOOTH",
"239 -375 OFFCURVE",
"416 -495 OFFCURVE",
"621 -495 CURVE SMOOTH",
"848 -495 OFFCURVE",
"1015 -350 OFFCURVE",
"1015 -46 CURVE SMOOTH",
"1015 909 LINE SMOOTH",
"1015 944 OFFCURVE",
"1004 962 OFFCURVE",
"984 962 CURVE SMOOTH",
"964 962 OFFCURVE",
"952 944 OFFCURVE",
"952 909 CURVE SMOOTH"
);
}
);
width = 1238;
}
);
leftKerningGroup = g;
rightKerningGroup = g;
unicode = 0067;
},
{
glyphname = g.ss01;
lastChange = "2020-11-05 18:25:21 +0000";
layers = (
{
anchors = (
{
name = bottom;
position = "{619, -476}";
},
{
name = top;
position = "{619, 952}";
}
);
layerId = "5521DC30-183F-421A-91F3-644B5E24AFE6";
paths = (
{
closed = 1;
nodes = (
"784 265 OFFCURVE",
"1073 328 OFFCURVE",
"1073 619 CURVE SMOOTH",
"1073 899 OFFCURVE",
"784 975 OFFCURVE",
"572 975 CURVE SMOOTH",
"359 975 OFFCURVE",
"70 909 OFFCURVE",
"70 619 CURVE SMOOTH",
"70 328 OFFCURVE",
"407 265 OFFCURVE",
"572 265 CURVE SMOOTH"
);
},
{
closed = 1;
nodes = (
"491 510 OFFCURVE",
"419 533 OFFCURVE",
"419 618 CURVE SMOOTH",
"419 700 OFFCURVE",
"490 730 OFFCURVE",
"571 730 CURVE SMOOTH",
"651 730 OFFCURVE",
"724 700 OFFCURVE",
"724 618 CURVE SMOOTH",
"724 533 OFFCURVE",
"651 510 OFFCURVE",
"571 510 CURVE SMOOTH"
);
},
{
closed = 1;
nodes = (
"1072 622 LINE",
"1072 668 OFFCURVE",
"1108 692 OFFCURVE",
"1160 725 CURVE SMOOTH",
"1205 754 OFFCURVE",
"1239 789 OFFCURVE",
"1239 863 CURVE SMOOTH",
"1239 937 OFFCURVE",
"1186 977 OFFCURVE",
"1096 977 CURVE SMOOTH",
"970 977 OFFCURVE",
"925 922 OFFCURVE",
"925 817 CURVE"
);
},
{
closed = 1;
nodes = (
"452 188 OFFCURVE",
"378 199 OFFCURVE",
"378 229 CURVE SMOOTH",
"378 269 OFFCURVE",
"425 285 OFFCURVE",
"475 294 CURVE",
"330 439 LINE",
"271 429 OFFCURVE",
"69 359 OFFCURVE",
"69 201 CURVE SMOOTH",
"69 29 OFFCURVE",
"259 -52 OFFCURVE",
"504 -52 CURVE SMOOTH",
"599 -52 LINE SMOOTH",
"708 -52 OFFCURVE",
"772 -77 OFFCURVE",
"772 -146 CURVE SMOOTH",
"772 -220 OFFCURVE",
"695 -253 OFFCURVE",
"572 -253 CURVE SMOOTH",
"427 -253 OFFCURVE",
"384 -228 OFFCURVE",
"336 -147 CURVE SMOOTH",
"295 -78 OFFCURVE",
"259 -43 OFFCURVE",
"174 -43 CURVE SMOOTH",
"68 -43 OFFCURVE",
"9 -116 OFFCURVE",
"9 -197 CURVE SMOOTH",
"9 -400 OFFCURVE",
"212 -496 OFFCURVE",
"572 -496 CURVE SMOOTH",
"935 -496 OFFCURVE",
"1130 -368 OFFCURVE",
"1130 -130 CURVE SMOOTH",
"1130 140 OFFCURVE",
"873 188 OFFCURVE",
"662 188 CURVE SMOOTH",
"565 188 LINE SMOOTH"
);
}
);
width = 1238;
},
{
anchors = (
{
name = bottom;
position = "{619, -476}";
},
{
name = top;
position = "{619, 952}";
}
);
layerId = "BE68D89F-AB3F-4BDF-B332-ED50D7C47704";
paths = (
{
closed = 1;
nodes = (
"831 236 OFFCURVE",
"1064 310 OFFCURVE",
"1064 602 CURVE SMOOTH",
"1064 891 OFFCURVE",
"831 975 OFFCURVE",
"620 975 CURVE SMOOTH",
"407 975 OFFCURVE",
"174 891 OFFCURVE",
"174 602 CURVE SMOOTH",
"174 310 OFFCURVE",
"407 236 OFFCURVE",
"620 236 CURVE SMOOTH"
);
},
{
closed = 1;
nodes = (
"452 299 OFFCURVE",
"241 347 OFFCURVE",
"241 602 CURVE SMOOTH",
"241 851 OFFCURVE",
"452 912 OFFCURVE",
"620 912 CURVE SMOOTH",
"786 912 OFFCURVE",
"997 851 OFFCURVE",
"997 602 CURVE SMOOTH",
"997 347 OFFCURVE",
"786 299 OFFCURVE",
"620 299 CURVE SMOOTH"
);
},
{
closed = 1;
nodes = (
"991 755 LINE",
"1032 859 OFFCURVE",
"1110 898 OFFCURVE",
"1129 906 CURVE SMOOTH",
"1150 915 OFFCURVE",
"1160 921 OFFCURVE",
"1160 940 CURVE SMOOTH",
"1160 962 OFFCURVE",
"1146 971 OFFCURVE",
"1127 971 CURVE SMOOTH",
"1081 971 OFFCURVE",
"999 917 OFFCURVE",
"949 817 CURVE"
);
},
{
closed = 1;
nodes = (
"360 63 OFFCURVE",
"292 96 OFFCURVE",
"292 170 CURVE SMOOTH",
"292 235 OFFCURVE",
"352 275 OFFCURVE",
"403 284 CURVE",
"377 338 LINE",
"319 327 OFFCURVE",
"223 277 OFFCURVE",
"223 170 CURVE SMOOTH",
"223 63 OFFCURVE",
"307 0 OFFCURVE",
"491 0 CURVE SMOOTH",
"697 0 LINE SMOOTH",
"852 0 OFFCURVE",
"1037 -25 OFFCURVE",
"1037 -188 CURVE SMOOTH",
"1037 -369 OFFCURVE",
"862 -433 OFFCURVE",
"620 -433 CURVE SMOOTH",
"376 -433 OFFCURVE",
"264 -367 OFFCURVE",
"245 -241 CURVE SMOOTH",
"240 -208 OFFCURVE",
"225 -191 OFFCURVE",
"207 -191 CURVE SMOOTH",
"188 -191 OFFCURVE",
"173 -205 OFFCURVE",
"173 -231 CURVE SMOOTH",
"173 -411 OFFCURVE",
"367 -496 OFFCURVE",
"620 -496 CURVE SMOOTH",
"908 -496 OFFCURVE",
"1104 -388 OFFCURVE",
"1104 -188 CURVE SMOOTH",
"1104 12 OFFCURVE",
"908 63 OFFCURVE",
"718 63 CURVE SMOOTH",
"514 63 LINE SMOOTH"
);
}
);
width = 1238;
}
);
leftKerningGroup = a;
rightKerningGroup = n;
},
{
glyphname = h;
lastChange = "2020-11-05 18:41:26 +0000";
layers = (
{
anchors = (
{
name = bottom;
position = "{626, 0}";
},
{
name = center;
position = "{300, 1236}";
},
{
name = top;
position = "{311, 1524}";
}
);
layerId = "5521DC30-183F-421A-91F3-644B5E24AFE6";
paths = (
{
closed = 1;
nodes = (
"1047 -10 OFFCURVE",
"1113 64 OFFCURVE",
"1113 200 CURVE SMOOTH",
"1113 562 LINE SMOOTH",
"1113 872 OFFCURVE",
"954 973 OFFCURVE",
"750 973 CURVE SMOOTH",
"514 973 OFFCURVE",
"389 753 OFFCURVE",
"389 569 CURVE SMOOTH",
"389 522 OFFCURVE",
"433 491 OFFCURVE",
"451 491 CURVE SMOOTH",
"473 491 OFFCURVE",
"502 505 OFFCURVE",
"502 529 CURVE SMOOTH",
"502 630 OFFCURVE",
"544 701 OFFCURVE",
"622 701 CURVE SMOOTH",
"702 701 OFFCURVE",
"732 632 OFFCURVE",
"732 507 CURVE SMOOTH",
"732 200 LINE SMOOTH",
"732 64 OFFCURVE",
"799 -10 OFFCURVE",
"923 -10 CURVE SMOOTH"
);
},
{
closed = 1;
nodes = (
"435 -10 OFFCURVE",
"502 64 OFFCURVE",
"502 200 CURVE SMOOTH",
"502 1314 LINE SMOOTH",
"502 1450 OFFCURVE",
"435 1524 OFFCURVE",
"311 1524 CURVE SMOOTH",
"188 1524 OFFCURVE",
"121 1450 OFFCURVE",
"121 1314 CURVE SMOOTH",
"121 200 LINE SMOOTH",
"121 64 OFFCURVE",
"188 -10 OFFCURVE",
"311 -10 CURVE SMOOTH"
);
}
);
width = 1238;
},
{
anchors = (
{
name = bottom;
position = "{600, 0}";
},
{
name = center;
position = "{274, 1236}";
},
{
name = top;
position = "{279, 1524}";
}
);
layerId = "BE68D89F-AB3F-4BDF-B332-ED50D7C47704";
paths = (
{
closed = 1;
nodes = (
"977 -10 OFFCURVE",
"989 10 OFFCURVE",
"989 48 CURVE SMOOTH",
"989 548 LINE SMOOTH",
"989 858 OFFCURVE",
"861 975 OFFCURVE",
"650 975 CURVE SMOOTH",
"436 975 OFFCURVE",
"251 779 OFFCURVE",
"251 595 CURVE SMOOTH",
"251 558 OFFCURVE",
"266 545 OFFCURVE",
"285 545 CURVE SMOOTH",
"305 545 OFFCURVE",
"310 555 OFFCURVE",
"310 590 CURVE SMOOTH",
"310 748 OFFCURVE",
"488 912 OFFCURVE",
"642 912 CURVE SMOOTH",
"829 912 OFFCURVE",
"926 814 OFFCURVE",
"926 538 CURVE SMOOTH",
"926 48 LINE SMOOTH",
"926 10 OFFCURVE",
"937 -10 OFFCURVE",
"957 -10 CURVE SMOOTH"
);
},
{
closed = 1;
nodes = (
"299 -10 OFFCURVE",
"310 10 OFFCURVE",
"310 48 CURVE SMOOTH",
"310 1467 LINE SMOOTH",
"310 1504 OFFCURVE",
"299 1524 OFFCURVE",
"279 1524 CURVE SMOOTH",
"259 1524 OFFCURVE",
"248 1504 OFFCURVE",
"248 1467 CURVE SMOOTH",
"248 48 LINE SMOOTH",
"248 10 OFFCURVE",
"259 -10 OFFCURVE",
"279 -10 CURVE SMOOTH"
);
}
);
width = 1238;
}
);
leftKerningGroup = h;
rightKerningGroup = n;
unicode = 0068;
},
{
glyphname = hbar;
lastChange = "2020-07-15 19:49:16 +0000";
layers = (
{
components = (
{
name = h;
transform = "{1, 0, 0, 1, 40, 0}";
}
);
layerId = "5521DC30-183F-421A-91F3-644B5E24AFE6";
paths = (
{
closed = 1;
nodes = (
"4 1162 OFFCURVE",
"48 1122 OFFCURVE",
"184 1122 CURVE SMOOTH",
"672 1122 LINE SMOOTH",
"788 1122 OFFCURVE",
"831 1162 OFFCURVE",
"831 1236 CURVE SMOOTH",
"831 1311 OFFCURVE",
"788 1351 OFFCURVE",
"672 1351 CURVE SMOOTH",
"184 1351 LINE SMOOTH",
"48 1351 OFFCURVE",
"4 1311 OFFCURVE",
"4 1236 CURVE SMOOTH"
);
}
);
width = 1238;
},
{
components = (
{
name = h;
}
);
layerId = "BE68D89F-AB3F-4BDF-B332-ED50D7C47704";
paths = (
{
closed = 1;
nodes = (
"77 1218 OFFCURVE",
"97 1208 OFFCURVE",
"134 1208 CURVE SMOOTH",
"587 1208 LINE SMOOTH",
"625 1208 OFFCURVE",
"645 1219 OFFCURVE",
"645 1238 CURVE SMOOTH",
"645 1257 OFFCURVE",
"625 1269 OFFCURVE",
"587 1269 CURVE SMOOTH",
"134 1269 LINE SMOOTH",
"97 1269 OFFCURVE",
"77 1257 OFFCURVE",
"77 1238 CURVE SMOOTH"
);
}
);
width = 1238;
}
);
leftKerningGroup = h;
rightKerningGroup = n;
unicode = 0127;
},
{
glyphname = i;
lastChange = "2020-11-24 22:04:09 +0000";
layers = (
{
anchors = (
{
name = bottom;
position = "{595, 0}";
}
);
layerId = "5521DC30-183F-421A-91F3-644B5E24AFE6";
paths = (
{
closed = 1;
nodes = (
"204 267 OFFCURVE",
"140 220 OFFCURVE",
"140 133 CURVE SMOOTH",
"140 47 OFFCURVE",
"204 0 OFFCURVE",
"330 0 CURVE SMOOTH",
"936 0 LINE SMOOTH",
"1063 0 OFFCURVE",
"1127 47 OFFCURVE",
"1127 133 CURVE SMOOTH",
"1127 220 OFFCURVE",
"1063 267 OFFCURVE",
"936 267 CURVE SMOOTH",
"330 267 LINE SMOOTH"
);
},
{
closed = 1;
nodes = (
"770 1089 OFFCURVE",
"876 1195 OFFCURVE",
"876 1330 CURVE SMOOTH",
"876 1464 OFFCURVE",
"770 1570 OFFCURVE",
"635 1570 CURVE SMOOTH",
"501 1570 OFFCURVE",
"394 1464 OFFCURVE",
"394 1330 CURVE SMOOTH",
"394 1195 OFFCURVE",
"501 1089 OFFCURVE",
"635 1089 CURVE SMOOTH"
);
},
{
closed = 1;
nodes = (
"834 743 LINE SMOOTH",
"834 879 OFFCURVE",
"761 952 OFFCURVE",
"625 952 CURVE SMOOTH",
"394 952 LINE SMOOTH",
"258 952 OFFCURVE",
"185 906 OFFCURVE",
"185 819 CURVE SMOOTH",
"185 732 OFFCURVE",
"258 686 OFFCURVE",
"394 686 CURVE SMOOTH",
"458 686 LINE",
"458 251 LINE",
"834 251 LINE"
);
}
);
width = 1238;
},
{
anchors = (
{
name = bottom;
position = "{638, 0}";
}
);
layerId = "BE68D89F-AB3F-4BDF-B332-ED50D7C47704";
paths = (
{
closed = 1;
nodes = (
"236 61 OFFCURVE",
"220 50 OFFCURVE",
"220 30 CURVE SMOOTH",
"220 11 OFFCURVE",
"236 0 OFFCURVE",
"273 0 CURVE SMOOTH",
"986 0 LINE SMOOTH",
"1023 0 OFFCURVE",
"1040 11 OFFCURVE",
"1040 30 CURVE SMOOTH",
"1040 50 OFFCURVE",
"1023 61 OFFCURVE",
"986 61 CURVE SMOOTH",
"273 61 LINE SMOOTH"
);
},
{
closed = 1;
nodes = (
"679 1254 OFFCURVE",
"721 1296 OFFCURVE",
"721 1349 CURVE SMOOTH",
"721 1401 OFFCURVE",
"679 1443 OFFCURVE",
"627 1443 CURVE SMOOTH",
"574 1443 OFFCURVE",
"532 1401 OFFCURVE",
"532 1349 CURVE SMOOTH",
"532 1296 OFFCURVE",
"574 1254 OFFCURVE",
"627 1254 CURVE SMOOTH"
);
},
{
closed = 1;
nodes = (
"661 895 LINE SMOOTH",
"661 932 OFFCURVE",
"641 952 OFFCURVE",
"604 952 CURVE SMOOTH",
"327 952 LINE SMOOTH",
"290 952 OFFCURVE",
"273 941 OFFCURVE",
"273 922 CURVE SMOOTH",
"273 903 OFFCURVE",
"290 891 OFFCURVE",
"327 891 CURVE SMOOTH",
"598 891 LINE",
"598 46 LINE",
"661 46 LINE"
);
}
);
width = 1238;
}
);
leftKerningGroup = i;
rightKerningGroup = i;
unicode = 0069;
},
{
color = 4;
glyphname = i.ss01;
lastChange = "2020-07-09 19:01:03 +0000";
layers = (
{
anchors = (
{
name = bottom;
position = "{546, 0}";
}
);
layerId = "5521DC30-183F-421A-91F3-644B5E24AFE6";
paths = (
{
closed = 1;
nodes = (
"703 -19 OFFCURVE",
"765 54 OFFCURVE",
"765 190 CURVE SMOOTH",
"765 743 LINE SMOOTH",
"765 879 OFFCURVE",
"702 952 OFFCURVE",
"587 952 CURVE SMOOTH",
"471 952 OFFCURVE",
"409 879 OFFCURVE",
"409 743 CURVE SMOOTH",
"409 190 LINE SMOOTH",
"409 54 OFFCURVE",
"471 -19 OFFCURVE",
"587 -19 CURVE SMOOTH"
);
},
{
closed = 1;
nodes = (
"708 1110 OFFCURVE",
"805 1208 OFFCURVE",
"805 1330 CURVE SMOOTH",
"805 1451 OFFCURVE",
"708 1549 OFFCURVE",
"586 1549 CURVE SMOOTH",
"464 1549 OFFCURVE",
"367 1451 OFFCURVE",
"367 1330 CURVE SMOOTH",
"367 1208 OFFCURVE",
"464 1110 OFFCURVE",
"586 1110 CURVE SMOOTH"
);
}
);
width = 1238;
},
{
anchors = (
{
name = bottom;
position = "{630, 0}";
}
);
layerId = "BE68D89F-AB3F-4BDF-B332-ED50D7C47704";
paths = (
{
closed = 1;
nodes = (
"641 -10 OFFCURVE",
"652 10 OFFCURVE",
"652 48 CURVE SMOOTH",
"652 895 LINE SMOOTH",
"652 932 OFFCURVE",
"641 952 OFFCURVE",
"621 952 CURVE SMOOTH",
"601 952 OFFCURVE",
"590 932 OFFCURVE",
"590 895 CURVE SMOOTH",
"590 48 LINE SMOOTH",
"590 10 OFFCURVE",
"601 -10 OFFCURVE",
"621 -10 CURVE SMOOTH"
);
},
{
closed = 1;
nodes = (
"666 1244 OFFCURVE",
"704 1282 OFFCURVE",
"704 1330 CURVE SMOOTH",
"704 1377 OFFCURVE",
"666 1415 OFFCURVE",
"618 1415 CURVE SMOOTH",
"570 1415 OFFCURVE",
"532 1377 OFFCURVE",
"532 1330 CURVE SMOOTH",
"532 1282 OFFCURVE",
"570 1244 OFFCURVE",
"618 1244 CURVE SMOOTH"
);
}
);
width = 1238;
}
);
leftKerningGroup = i;
rightKerningGroup = i;
},
{
glyphname = idotless;
lastChange = "2020-07-09 19:00:51 +0000";
layers = (
{
anchors = (
{
name = bottom;
position = "{595, 0}";
},
{
name = ogonek;
position = "{879, 0}";
},
{
name = top;
position = "{619, 952}";
}
);
layerId = "5521DC30-183F-421A-91F3-644B5E24AFE6";
paths = (
{
closed = 1;
nodes = (
"879 0 LINE SMOOTH",
"1015 0 OFFCURVE",
"1089 47 OFFCURVE",
"1089 133 CURVE SMOOTH",
"1089 220 OFFCURVE",
"1015 267 OFFCURVE",
"879 267 CURVE SMOOTH",
"814 267 LINE",
"814 743 LINE SMOOTH",
"814 879 OFFCURVE",
"741 952 OFFCURVE",
"605 952 CURVE SMOOTH",
"432 952 LINE SMOOTH",
"296 952 OFFCURVE",
"223 906 OFFCURVE",
"223 819 CURVE SMOOTH",
"223 732 OFFCURVE",
"296 686 OFFCURVE",
"432 686 CURVE SMOOTH",
"458 686 LINE",
"458 267 LINE",
"388 267 LINE SMOOTH",
"251 267 OFFCURVE",
"178 220 OFFCURVE",
"178 133 CURVE SMOOTH",
"178 47 OFFCURVE",
"251 0 OFFCURVE",
"388 0 CURVE SMOOTH"
);
}
);
width = 1238;
},
{
anchors = (
{
name = bottom;
position = "{638, 0}";
},
{
name = ogonek;
position = "{954, 0}";
},
{
name = top;
position = "{611, 952}";
}
);
layerId = "BE68D89F-AB3F-4BDF-B332-ED50D7C47704";
paths = (
{
closed = 1;
nodes = (
"954 0 LINE SMOOTH",
"991 0 OFFCURVE",
"1008 11 OFFCURVE",
"1008 30 CURVE SMOOTH",
"1008 50 OFFCURVE",
"991 61 OFFCURVE",
"954 61 CURVE SMOOTH",
"657 61 LINE",
"657 895 LINE SMOOTH",
"657 932 OFFCURVE",
"637 952 OFFCURVE",
"600 952 CURVE SMOOTH",
"361 952 LINE SMOOTH",
"324 952 OFFCURVE",
"308 941 OFFCURVE",
"308 922 CURVE SMOOTH",
"308 903 OFFCURVE",
"324 891 OFFCURVE",
"361 891 CURVE SMOOTH",
"594 891 LINE",
"594 61 LINE",
"297 61 LINE SMOOTH",
"260 61 OFFCURVE",
"244 50 OFFCURVE",
"244 30 CURVE SMOOTH",
"244 11 OFFCURVE",
"260 0 OFFCURVE",
"297 0 CURVE SMOOTH"
);
}
);
width = 1238;
}
);
leftKerningGroup = idotless;
rightKerningGroup = idotless;
unicode = 0131;
},
{
color = 4;
glyphname = idotless.ss01;
lastChange = "2020-07-17 15:55:47 +0000";
layers = (
{
anchors = (
{
name = bottom;
position = "{546, 0}";
},
{
name = ogonek;
position = "{689, 10}";
},
{
name = top;
position = "{590, 952}";
}
);
layerId = "5521DC30-183F-421A-91F3-644B5E24AFE6";
paths = (
{
closed = 1;
nodes = (
"703 -19 OFFCURVE",
"765 54 OFFCURVE",
"765 190 CURVE SMOOTH",
"765 743 LINE SMOOTH",
"765 879 OFFCURVE",
"702 952 OFFCURVE",
"587 952 CURVE SMOOTH",
"471 952 OFFCURVE",
"409 879 OFFCURVE",
"409 743 CURVE SMOOTH",
"409 190 LINE SMOOTH",
"409 54 OFFCURVE",
"471 -19 OFFCURVE",
"587 -19 CURVE SMOOTH"
);
}
);
width = 1238;
},
{
anchors = (
{
name = bottom;
position = "{630, 0}";
},
{
name = ogonek;
position = "{647, 10}";
},
{
name = top;
position = "{619, 952}";
}
);
layerId = "BE68D89F-AB3F-4BDF-B332-ED50D7C47704";
paths = (
{
closed = 1;
nodes = (
"641 -10 OFFCURVE",
"652 10 OFFCURVE",
"652 48 CURVE SMOOTH",
"652 895 LINE SMOOTH",
"652 932 OFFCURVE",
"641 952 OFFCURVE",
"621 952 CURVE SMOOTH",
"601 952 OFFCURVE",
"590 932 OFFCURVE",
"590 895 CURVE SMOOTH",
"590 48 LINE SMOOTH",
"590 10 OFFCURVE",
"601 -10 OFFCURVE",
"621 -10 CURVE SMOOTH"
);
}
);
width = 1238;
}
);
leftKerningGroup = i;
rightKerningGroup = i;
},
{
glyphname = iogonek.ss01;
lastChange = "2020-07-17 15:56:59 +0000";
layers = (
{
components = (
{
name = idotless.ss01;
},
{
name = dotaccentcomb;
transform = "{1, 0, 0, 1, 2, 0}";
}
);
layerId = "BE68D89F-AB3F-4BDF-B332-ED50D7C47704";
paths = (
{
closed = 1;
nodes = (
"692 -429 OFFCURVE",
"757 -422 OFFCURVE",
"757 -388 CURVE SMOOTH",
"757 -372 OFFCURVE",
"742 -360 OFFCURVE",
"718 -360 CURVE SMOOTH",
"711 -360 OFFCURVE",
"702 -361 OFFCURVE",
"693 -363 CURVE SMOOTH",
"676 -366 OFFCURVE",
"657 -368 OFFCURVE",
"638 -368 CURVE SMOOTH",
"575 -368 OFFCURVE",
"516 -337 OFFCURVE",
"516 -260 CURVE SMOOTH",
"516 -156 OFFCURVE",
"598 -22 OFFCURVE",
"645 10 CURVE",
"611 10 LINE",
"557 10 OFFCURVE",
"445 -145 OFFCURVE",
"445 -258 CURVE SMOOTH",
"445 -374 OFFCURVE",
"539 -429 OFFCURVE",
"645 -429 CURVE SMOOTH"
);
}
);
width = 1238;
},
{
components = (
{
name = idotless.ss01;
},
{
name = dotaccentcomb;
transform = "{1, 0, 0, 1, -29, 0}";
}
);
layerId = "5521DC30-183F-421A-91F3-644B5E24AFE6";
paths = (
{
closed = 1;
nodes = (
"770 -478 OFFCURVE",
"878 -434 OFFCURVE",
"878 -340 CURVE SMOOTH",
"878 -287 OFFCURVE",
"857 -249 OFFCURVE",
"798 -249 CURVE SMOOTH",
"779 -249 OFFCURVE",
"755 -251 OFFCURVE",
"729 -258 CURVE SMOOTH",
"711 -263 OFFCURVE",
"673 -268 OFFCURVE",
"656 -268 CURVE SMOOTH",
"605 -268 OFFCURVE",
"580 -244 OFFCURVE",
"580 -189 CURVE SMOOTH",
"580 -113 OFFCURVE",
"649 -15 OFFCURVE",
"689 10 CURVE",
"524 10 LINE",
"437 -9 OFFCURVE",
"315 -124 OFFCURVE",
"315 -273 CURVE SMOOTH",
"315 -432 OFFCURVE",
"465 -478 OFFCURVE",
"624 -478 CURVE SMOOTH"
);
}
);
width = 1238;
}
);
},
{
glyphname = j;
lastChange = "2020-11-05 18:06:24 +0000";
layers = (
{
layerId = "5521DC30-183F-421A-91F3-644B5E24AFE6";
paths = (
{
closed = 1;
nodes = (
"921 1089 OFFCURVE",
"1028 1195 OFFCURVE",
"1028 1330 CURVE SMOOTH",
"1028 1464 OFFCURVE",
"921 1570 OFFCURVE",
"787 1570 CURVE SMOOTH",
"652 1570 OFFCURVE",
"546 1464 OFFCURVE",
"546 1330 CURVE SMOOTH",
"546 1195 OFFCURVE",
"652 1089 OFFCURVE",
"787 1089 CURVE SMOOTH"
);
},
{
closed = 1;
nodes = (
"606 -84 LINE SMOOTH",
"606 -183 OFFCURVE",
"571 -227 OFFCURVE",
"512 -227 CURVE SMOOTH",
"479 -227 OFFCURVE",
"453 -216 OFFCURVE",
"438 -190 CURVE SMOOTH",
"390 -110 OFFCURVE",
"315 -71 OFFCURVE",
"245 -71 CURVE SMOOTH",
"154 -71 OFFCURVE",
"69 -132 OFFCURVE",
"69 -228 CURVE SMOOTH",
"69 -406 OFFCURVE",
"311 -497 OFFCURVE",
"512 -497 CURVE SMOOTH",
"731 -497 OFFCURVE",
"987 -404 OFFCURVE",
"987 0 CURVE SMOOTH",
"987 743 LINE SMOOTH",
"987 879 OFFCURVE",
"920 952 OFFCURVE",
"796 952 CURVE SMOOTH",
"672 952 OFFCURVE",
"606 879 OFFCURVE",
"606 743 CURVE SMOOTH"
);
},
{
closed = 1;
nodes = (
"253 732 OFFCURVE",
"327 686 OFFCURVE",
"463 686 CURVE SMOOTH",
"745 686 LINE SMOOTH",
"881 686 OFFCURVE",
"954 732 OFFCURVE",
"954 819 CURVE SMOOTH",
"954 906 OFFCURVE",
"873 952 OFFCURVE",
"796 952 CURVE SMOOTH",
"463 952 LINE SMOOTH",
"327 952 OFFCURVE",
"253 906 OFFCURVE",
"253 819 CURVE SMOOTH"
);
}
);
width = 1238;
},
{
layerId = "BE68D89F-AB3F-4BDF-B332-ED50D7C47704";
paths = (
{
closed = 1;
nodes = (
"909 1254 OFFCURVE",
"950 1296 OFFCURVE",
"950 1349 CURVE SMOOTH",
"950 1401 OFFCURVE",
"909 1443 OFFCURVE",
"856 1443 CURVE SMOOTH",
"804 1443 OFFCURVE",
"762 1403 OFFCURVE",
"762 1349 CURVE SMOOTH",
"762 1296 OFFCURVE",
"804 1254 OFFCURVE",
"856 1254 CURVE SMOOTH"
);
},
{
closed = 1;
nodes = (
"826 -27 LINE SMOOTH",
"826 -324 OFFCURVE",
"706 -432 OFFCURVE",
"525 -432 CURVE SMOOTH",
"373 -432 OFFCURVE",
"247 -342 OFFCURVE",
"227 -149 CURVE SMOOTH",
"223 -111 OFFCURVE",
"212 -91 OFFCURVE",
"190 -91 CURVE SMOOTH",
"172 -91 OFFCURVE",
"159 -108 OFFCURVE",
"159 -139 CURVE SMOOTH",
"159 -333 OFFCURVE",
"319 -495 OFFCURVE",
"523 -495 CURVE SMOOTH",
"750 -495 OFFCURVE",
"889 -341 OFFCURVE",
"889 -27 CURVE SMOOTH",
"889 909 LINE SMOOTH",
"889 937 OFFCURVE",
"879 952 OFFCURVE",
"857 952 CURVE SMOOTH",
"837 952 OFFCURVE",
"826 936 OFFCURVE",
"826 899 CURVE SMOOTH"
);
},
{
closed = 1;
nodes = (
"258 903 OFFCURVE",
"273 891 OFFCURVE",
"310 891 CURVE SMOOTH",
"857 891 LINE SMOOTH",
"866 891 OFFCURVE",
"882 903 OFFCURVE",
"882 922 CURVE SMOOTH",
"882 941 OFFCURVE",
"866 952 OFFCURVE",
"857 952 CURVE SMOOTH",
"310 952 LINE SMOOTH",
"273 952 OFFCURVE",
"258 941 OFFCURVE",
"258 922 CURVE SMOOTH"
);
}
);
width = 1238;
}
);
leftKerningGroup = j;
rightKerningGroup = j;
unicode = 006A;
},
{
glyphname = j.ss01;
lastChange = "2020-07-09 19:01:03 +0000";
layers = (
{
layerId = "5521DC30-183F-421A-91F3-644B5E24AFE6";
paths = (
{
closed = 1;
nodes = (
"780 1089 OFFCURVE",
"887 1195 OFFCURVE",
"887 1330 CURVE SMOOTH",
"887 1464 OFFCURVE",
"780 1570 OFFCURVE",
"646 1570 CURVE SMOOTH",
"511 1570 OFFCURVE",
"405 1464 OFFCURVE",
"405 1330 CURVE SMOOTH",
"405 1195 OFFCURVE",
"511 1089 OFFCURVE",
"646 1089 CURVE SMOOTH"
);
},
{
closed = 1;
nodes = (
"446 -65 LINE SMOOTH",
"446 -164 OFFCURVE",
"411 -208 OFFCURVE",
"352 -208 CURVE SMOOTH",
"310 -208 OFFCURVE",
"270 -170 OFFCURVE",
"245 -126 CURVE SMOOTH",
"211 -70 OFFCURVE",
"155 -18 OFFCURVE",
"78 -18 CURVE SMOOTH",
"-22 -18 OFFCURVE",
"-104 -68 OFFCURVE",
"-104 -170 CURVE SMOOTH",
"-104 -370 OFFCURVE",
"145 -478 OFFCURVE",
"352 -478 CURVE SMOOTH",
"571 -478 OFFCURVE",
"827 -385 OFFCURVE",
"827 0 CURVE SMOOTH",
"827 743 LINE SMOOTH",
"827 879 OFFCURVE",
"760 952 OFFCURVE",
"636 952 CURVE SMOOTH",
"512 952 OFFCURVE",
"446 879 OFFCURVE",
"446 743 CURVE SMOOTH"
);
}
);
width = 1238;
},
{
layerId = "BE68D89F-AB3F-4BDF-B332-ED50D7C47704";
paths = (
{
closed = 1;
nodes = (
"698 1254 OFFCURVE",
"740 1296 OFFCURVE",
"740 1349 CURVE SMOOTH",
"740 1401 OFFCURVE",
"698 1443 OFFCURVE",
"646 1443 CURVE SMOOTH",
"593 1443 OFFCURVE",
"551 1403 OFFCURVE",
"551 1349 CURVE SMOOTH",
"551 1296 OFFCURVE",
"593 1254 OFFCURVE",
"646 1254 CURVE SMOOTH"
);
},
{
closed = 1;
nodes = (
"613 -27 LINE SMOOTH",
"613 -305 OFFCURVE",
"493 -413 OFFCURVE",
"312 -413 CURVE SMOOTH",
"132 -413 OFFCURVE",
"14 -323 OFFCURVE",
"14 -130 CURVE SMOOTH",
"14 -92 OFFCURVE",
"3 -72 OFFCURVE",
"-19 -72 CURVE SMOOTH",
"-40 -72 OFFCURVE",
"-52 -92 OFFCURVE",
"-52 -131 CURVE SMOOTH",
"-52 -363 OFFCURVE",
"98 -476 OFFCURVE",
"310 -476 CURVE SMOOTH",
"537 -476 OFFCURVE",
"676 -322 OFFCURVE",
"676 -27 CURVE SMOOTH",
"676 895 LINE SMOOTH",
"676 932 OFFCURVE",
"665 952 OFFCURVE",
"645 952 CURVE SMOOTH",
"625 952 OFFCURVE",
"613 932 OFFCURVE",
"613 895 CURVE SMOOTH"
);
}
);
width = 1238;
}
);
leftKerningGroup = j;
rightKerningGroup = j;
},
{
glyphname = jdotless;
lastChange = "2020-07-09 19:00:51 +0000";
layers = (
{
anchors = (
{
name = bottom;
position = "{619, -476}";
},
{
name = top;
position = "{777, 952}";
}
);
layerId = "BE68D89F-AB3F-4BDF-B332-ED50D7C47704";
paths = (
{
closed = 1;
nodes = (
"747 -27 LINE SMOOTH",
"747 -305 OFFCURVE",
"627 -413 OFFCURVE",
"446 -413 CURVE SMOOTH",
"294 -413 OFFCURVE",
"168 -323 OFFCURVE",
"148 -130 CURVE SMOOTH",
"144 -92 OFFCURVE",
"133 -72 OFFCURVE",
"111 -72 CURVE SMOOTH",
"93 -72 OFFCURVE",
"80 -89 OFFCURVE",
"80 -120 CURVE SMOOTH",
"80 -314 OFFCURVE",
"240 -476 OFFCURVE",
"444 -476 CURVE SMOOTH",
"670 -476 OFFCURVE",
"810 -322 OFFCURVE",
"810 -27 CURVE SMOOTH",
"810 909 LINE SMOOTH",
"810 937 OFFCURVE",
"800 952 OFFCURVE",
"778 952 CURVE SMOOTH",
"758 952 OFFCURVE",
"747 936 OFFCURVE",
"747 899 CURVE SMOOTH"
);
},
{
closed = 1;
nodes = (
"179 903 OFFCURVE",
"194 891 OFFCURVE",
"231 891 CURVE SMOOTH",
"778 891 LINE SMOOTH",
"787 891 OFFCURVE",
"803 903 OFFCURVE",
"803 922 CURVE SMOOTH",
"803 941 OFFCURVE",
"787 952 OFFCURVE",
"778 952 CURVE SMOOTH",
"231 952 LINE SMOOTH",
"194 952 OFFCURVE",
"179 941 OFFCURVE",
"179 922 CURVE SMOOTH"
);
}
);
width = 1238;
},
{
anchors = (
{
name = bottom;
position = "{619, -476}";
},
{
name = top;
position = "{730, 952}";
}
);
layerId = "5521DC30-183F-421A-91F3-644B5E24AFE6";
paths = (
{
closed = 1;
nodes = (
"539 -65 LINE SMOOTH",
"539 -164 OFFCURVE",
"505 -208 OFFCURVE",
"446 -208 CURVE SMOOTH",
"412 -208 OFFCURVE",
"387 -197 OFFCURVE",
"371 -171 CURVE SMOOTH",
"323 -90 OFFCURVE",
"249 -52 OFFCURVE",
"178 -52 CURVE SMOOTH",
"88 -52 OFFCURVE",
"2 -113 OFFCURVE",
"2 -209 CURVE SMOOTH",
"2 -387 OFFCURVE",
"245 -478 OFFCURVE",
"446 -478 CURVE SMOOTH",
"665 -478 OFFCURVE",
"920 -385 OFFCURVE",
"920 0 CURVE SMOOTH",
"920 743 LINE SMOOTH",
"920 879 OFFCURVE",
"853 952 OFFCURVE",
"730 952 CURVE SMOOTH",
"606 952 OFFCURVE",
"539 879 OFFCURVE",
"539 743 CURVE SMOOTH"
);
},
{
closed = 1;
nodes = (
"187 732 OFFCURVE",
"260 686 OFFCURVE",
"396 686 CURVE SMOOTH",
"678 686 LINE SMOOTH",
"814 686 OFFCURVE",
"888 732 OFFCURVE",
"888 819 CURVE SMOOTH",
"888 906 OFFCURVE",
"807 952 OFFCURVE",
"730 952 CURVE SMOOTH",
"396 952 LINE SMOOTH",
"260 952 OFFCURVE",
"187 906 OFFCURVE",
"187 819 CURVE SMOOTH"
);
}
);
width = 1238;
}
);
unicode = 0237;
},
{
glyphname = k;
lastChange = "2020-07-09 19:07:40 +0000";
layers = (
{
anchors = (
{
name = bottom;
position = "{518, 0}";
},
{
name = top;
position = "{301, 1533}";
}
);
layerId = "5521DC30-183F-421A-91F3-644B5E24AFE6";
paths = (
{
closed = 1;
nodes = (
"425 -12 OFFCURVE",
"491 61 OFFCURVE",
"491 197 CURVE SMOOTH",
"491 1324 LINE SMOOTH",
"491 1460 OFFCURVE",
"425 1533 OFFCURVE",
"301 1533 CURVE SMOOTH",
"177 1533 OFFCURVE",
"110 1460 OFFCURVE",
"110 1324 CURVE SMOOTH",
"110 197 LINE SMOOTH",
"110 61 OFFCURVE",
"177 -12 OFFCURVE",
"301 -12 CURVE SMOOTH"
);
},
{
closed = 1;
nodes = (
"1047 749 LINE SMOOTH",
"1079 777 OFFCURVE",
"1090 806 OFFCURVE",
"1090 840 CURVE SMOOTH",
"1090 914 OFFCURVE",
"1039 973 OFFCURVE",
"939 973 CURVE SMOOTH",
"835 973 OFFCURVE",
"790 938 OFFCURVE",
"708 868 CURVE SMOOTH",
"317 536 LINE",
"468 245 LINE"
);
},
{
closed = 1;
nodes = (
"1054 -11 OFFCURVE",
"1123 39 OFFCURVE",
"1123 115 CURVE SMOOTH",
"1123 151 OFFCURVE",
"1118 195 OFFCURVE",
"1087 238 CURVE SMOOTH",
"767 676 LINE",
"520 456 LINE",
"737 142 LINE SMOOTH",
"803 47 OFFCURVE",
"846 -11 OFFCURVE",
"963 -11 CURVE SMOOTH"
);
}
);
width = 1238;
},
{
anchors = (
{
name = bottom;
position = "{594, 0}";
},
{
name = top;
position = "{306, 1533}";
}
);
layerId = "BE68D89F-AB3F-4BDF-B332-ED50D7C47704";
paths = (
{
closed = 1;
nodes = (
"326 -10 OFFCURVE",
"337 10 OFFCURVE",
"337 48 CURVE SMOOTH",
"337 1476 LINE SMOOTH",
"337 1513 OFFCURVE",
"326 1533 OFFCURVE",
"306 1533 CURVE SMOOTH",
"286 1533 OFFCURVE",
"274 1513 OFFCURVE",
"274 1476 CURVE SMOOTH",
"274 48 LINE SMOOTH",
"274 10 OFFCURVE",
"286 -10 OFFCURVE",
"306 -10 CURVE SMOOTH"
);
},
{
closed = 1;
nodes = (
"946 897 LINE SMOOTH",
"968 916 OFFCURVE",
"971 924 OFFCURVE",
"971 937 CURVE SMOOTH",
"971 949 OFFCURVE",
"963 960 OFFCURVE",
"948 960 CURVE SMOOTH",
"930 960 OFFCURVE",
"920 952 OFFCURVE",
"908 942 CURVE SMOOTH",
"290 424 LINE",
"329 375 LINE"
);
},
{
closed = 1;
nodes = (
"988 -10 OFFCURVE",
"1004 -5 OFFCURVE",
"1004 16 CURVE SMOOTH",
"1004 27 OFFCURVE",
"1000 39 OFFCURVE",
"991 53 CURVE SMOOTH",
"626 649 LINE",
"580 602 LINE",
"927 32 LINE SMOOTH",
"944 4 OFFCURVE",
"953 -10 OFFCURVE",
"974 -10 CURVE SMOOTH"
);
}
);
width = 1238;
}
);
leftKerningGroup = h;
rightKerningGroup = k;
unicode = 006B;
},
{
glyphname = kgreenlandic;
lastChange = "2020-07-09 19:00:51 +0000";
layers = (
{
anchors = (
{
name = bottom;
position = "{619, 0}";
},
{
name = top;
position = "{619, 952}";
}
);
layerId = "BE68D89F-AB3F-4BDF-B332-ED50D7C47704";
paths = (
{
closed = 1;
nodes = (
"352 -19 OFFCURVE",
"364 -4 OFFCURVE",
"364 33 CURVE SMOOTH",
"364 444 LINE",
"357 444 LINE",
"935 -4 LINE SMOOTH",
"944 -10 OFFCURVE",
"958 -19 OFFCURVE",
"967 -19 CURVE SMOOTH",
"988 -19 OFFCURVE",
"995 -9 OFFCURVE",
"995 5 CURVE SMOOTH",
"995 12 OFFCURVE",
"992 26 OFFCURVE",
"983 33 CURVE SMOOTH",
"490 420 LINE SMOOTH",
"456 446 OFFCURVE",
"426 469 OFFCURVE",
"417 470 CURVE",
"417 461 LINE",
"424 461 OFFCURVE",
"456 487 OFFCURVE",
"490 513 CURVE SMOOTH",
"983 910 LINE SMOOTH",
"990 917 OFFCURVE",
"994 926 OFFCURVE",
"994 938 CURVE SMOOTH",
"994 950 OFFCURVE",
"986 962 OFFCURVE",
"968 962 CURVE SMOOTH",
"958 962 OFFCURVE",
"950 957 OFFCURVE",
"942 950 CURVE SMOOTH",
"352 486 LINE",
"364 486 LINE",
"364 910 LINE SMOOTH",
"364 947 OFFCURVE",
"352 962 OFFCURVE",
"332 962 CURVE SMOOTH",
"312 962 OFFCURVE",
"301 947 OFFCURVE",
"301 910 CURVE SMOOTH",
"301 33 LINE SMOOTH",
"301 -4 OFFCURVE",
"312 -19 OFFCURVE",
"332 -19 CURVE SMOOTH"
);
}
);
width = 1238;
},
{
anchors = (
{
name = bottom;
position = "{582, 0}";
},
{
name = top;
position = "{581, 1238}";
}
);
layerId = "5521DC30-183F-421A-91F3-644B5E24AFE6";
paths = (
{
closed = 1;
nodes = (
"415 -19 OFFCURVE",
"482 38 OFFCURVE",
"482 146 CURVE SMOOTH",
"482 407 LINE",
"436 407 LINE",
"690 89 LINE SMOOTH",
"750 13 OFFCURVE",
"819 -19 OFFCURVE",
"952 -19 CURVE SMOOTH",
"1054 -19 OFFCURVE",
"1105 23 OFFCURVE",
"1105 80 CURVE SMOOTH",
"1105 115 OFFCURVE",
"1092 158 OFFCURVE",
"1053 195 CURVE SMOOTH",
"865 374 LINE SMOOTH",
"761 472 OFFCURVE",
"741 490 OFFCURVE",
"731 490 CURVE",
"731 485 LINE",
"752 485 OFFCURVE",
"789 514 OFFCURVE",
"865 588 CURVE SMOOTH",
"1054 770 LINE SMOOTH",
"1089 803 OFFCURVE",
"1100 843 OFFCURVE",
"1100 875 CURVE SMOOTH",
"1100 932 OFFCURVE",
"1051 976 OFFCURVE",
"952 976 CURVE SMOOTH",
"818 976 OFFCURVE",
"757 931 OFFCURVE",
"691 860 CURVE SMOOTH",
"408 550 LINE",
"482 550 LINE",
"482 811 LINE SMOOTH",
"482 918 OFFCURVE",
"415 976 OFFCURVE",
"291 976 CURVE SMOOTH",
"168 976 OFFCURVE",
"101 918 OFFCURVE",
"101 811 CURVE SMOOTH",
"101 146 LINE SMOOTH",
"101 38 OFFCURVE",
"168 -19 OFFCURVE",
"291 -19 CURVE SMOOTH"
);
}
);
width = 1238;
}
);
unicode = 0138;
},
{
glyphname = l;
lastChange = "2020-07-09 19:00:51 +0000";
layers = (
{
anchors = (
{
name = bottom;
position = "{609, 0}";
},
{
name = center;
position = "{645, 720}";
},
{
name = top;
position = "{609, 1524}";
},
{
name = topright;
position = "{905, 1238}";
}
);
layerId = "5521DC30-183F-421A-91F3-644B5E24AFE6";
paths = (
{
closed = 1;
nodes = (
"784 219 LINE",
"784 1314 LINE SMOOTH",
"784 1450 OFFCURVE",
"710 1524 OFFCURVE",
"574 1524 CURVE SMOOTH",
"335 1524 LINE SMOOTH",
"199 1524 OFFCURVE",
"126 1477 OFFCURVE",
"126 1390 CURVE SMOOTH",
"126 1304 OFFCURVE",
"199 1257 OFFCURVE",
"335 1257 CURVE SMOOTH",
"428 1257 LINE",
"428 219 LINE"
);
},
{
closed = 1;
nodes = (
"931 0 LINE SMOOTH",
"1058 0 OFFCURVE",
"1122 47 OFFCURVE",
"1122 133 CURVE SMOOTH",
"1122 220 OFFCURVE",
"1058 267 OFFCURVE",
"931 267 CURVE SMOOTH",
"307 267 LINE SMOOTH",
"180 267 OFFCURVE",
"116 220 OFFCURVE",
"116 133 CURVE SMOOTH",
"116 47 OFFCURVE",
"180 0 OFFCURVE",
"307 0 CURVE SMOOTH"
);
}
);
width = 1238;
},
{
anchors = (
{
name = bottom;
position = "{627, 0}";
},
{
name = center;
position = "{617, 720}";
},
{
name = top;
position = "{579, 1524}";
},
{
name = topright;
position = "{888, 1238}";
}
);
layerId = "BE68D89F-AB3F-4BDF-B332-ED50D7C47704";
paths = (
{
closed = 1;
nodes = (
"651 51 LINE",
"651 1467 LINE SMOOTH",
"651 1504 OFFCURVE",
"631 1524 OFFCURVE",
"594 1524 CURVE SMOOTH",
"326 1524 LINE SMOOTH",
"289 1524 OFFCURVE",
"269 1512 OFFCURVE",
"269 1493 CURVE SMOOTH",
"269 1474 OFFCURVE",
"289 1463 OFFCURVE",
"326 1463 CURVE SMOOTH",
"589 1463 LINE",
"589 51 LINE"
);
},
{
closed = 1;
nodes = (
"985 0 LINE SMOOTH",
"1022 0 OFFCURVE",
"1038 11 OFFCURVE",
"1038 30 CURVE SMOOTH",
"1038 50 OFFCURVE",
"1022 61 OFFCURVE",
"985 61 CURVE SMOOTH",
"251 61 LINE SMOOTH",
"214 61 OFFCURVE",
"198 50 OFFCURVE",
"198 30 CURVE SMOOTH",
"198 11 OFFCURVE",
"214 0 OFFCURVE",
"251 0 CURVE SMOOTH"
);
}
);
width = 1238;
}
);
leftKerningGroup = h;
rightKerningGroup = l;
unicode = 006C;
},
{
color = 4;
glyphname = l.ss01;
lastChange = "2020-07-09 19:01:03 +0000";
layers = (
{
anchors = (
{
name = bottom;
position = "{613, 0}";
},
{
name = center;
position = "{650, 720}";
},
{
name = top;
position = "{613, 1524}";
},
{
name = topright;
position = "{890, 1238}";
}
);
layerId = "5521DC30-183F-421A-91F3-644B5E24AFE6";
paths = (
{
closed = 1;
nodes = (
"728 -19 OFFCURVE",
"790 54 OFFCURVE",
"790 190 CURVE SMOOTH",
"790 1333 LINE SMOOTH",
"790 1470 OFFCURVE",
"728 1543 OFFCURVE",
"611 1543 CURVE SMOOTH",
"495 1543 OFFCURVE",
"432 1470 OFFCURVE",
"432 1333 CURVE SMOOTH",
"432 190 LINE SMOOTH",
"432 54 OFFCURVE",
"495 -19 OFFCURVE",
"611 -19 CURVE SMOOTH"
);
}
);
width = 1238;
},
{
anchors = (
{
name = bottom;
position = "{607, 0}";
},
{
name = center;
position = "{597, 720}";
},
{
name = top;
position = "{595, 1524}";
},
{
name = topright;
position = "{791, 1238}";
}
);
layerId = "BE68D89F-AB3F-4BDF-B332-ED50D7C47704";
paths = (
{
closed = 1;
nodes = (
"620 -10 OFFCURVE",
"631 10 OFFCURVE",
"631 48 CURVE SMOOTH",
"631 1485 LINE SMOOTH",
"631 1522 OFFCURVE",
"620 1542 OFFCURVE",
"600 1542 CURVE SMOOTH",
"580 1542 OFFCURVE",
"569 1522 OFFCURVE",
"569 1485 CURVE SMOOTH",
"569 48 LINE SMOOTH",
"569 10 OFFCURVE",
"580 -10 OFFCURVE",
"600 -10 CURVE SMOOTH"
);
}
);
width = 1238;
}
);
leftKerningGroup = h;
rightKerningGroup = l;
},
{
glyphname = ldot;
lastChange = "2020-07-09 19:00:51 +0000";
layers = (
{
components = (
{
name = l;
}
);
layerId = "BE68D89F-AB3F-4BDF-B332-ED50D7C47704";
paths = (
{
closed = 1;
nodes = (
"1259 714 OFFCURVE",
"1297 752 OFFCURVE",
"1297 800 CURVE SMOOTH",
"1297 848 OFFCURVE",
"1259 886 OFFCURVE",
"1211 886 CURVE SMOOTH",
"1164 886 OFFCURVE",
"1126 848 OFFCURVE",
"1126 800 CURVE SMOOTH",
"1126 752 OFFCURVE",
"1164 714 OFFCURVE",
"1211 714 CURVE SMOOTH"
);
}
);
width = 1238;
},
{
components = (
{
name = l;
}
);
layerId = "5521DC30-183F-421A-91F3-644B5E24AFE6";
paths = (
{
closed = 1;
nodes = (
"1299 620 OFFCURVE",
"1379 700 OFFCURVE",
"1379 803 CURVE SMOOTH",
"1379 906 OFFCURVE",
"1299 986 OFFCURVE",
"1198 986 CURVE SMOOTH",
"1097 986 OFFCURVE",
"1017 906 OFFCURVE",
"1017 803 CURVE SMOOTH",
"1017 700 OFFCURVE",
"1097 620 OFFCURVE",
"1198 620 CURVE SMOOTH"
);
}
);
width = 1238;
}
);
unicode = 0140;
},
{
glyphname = ldot.ss01;
lastChange = "2020-07-17 15:59:53 +0000";
layers = (
{
components = (
{
name = l.ss01;
}
);
layerId = "BE68D89F-AB3F-4BDF-B332-ED50D7C47704";
paths = (
{
closed = 1;
nodes = (
"1259 714 OFFCURVE",
"1297 752 OFFCURVE",
"1297 800 CURVE SMOOTH",
"1297 848 OFFCURVE",
"1259 886 OFFCURVE",
"1211 886 CURVE SMOOTH",
"1164 886 OFFCURVE",
"1126 848 OFFCURVE",
"1126 800 CURVE SMOOTH",
"1126 752 OFFCURVE",
"1164 714 OFFCURVE",
"1211 714 CURVE SMOOTH"
);
}
);
width = 1238;
},
{
components = (
{
alignment = -1;
name = l.ss01;
transform = "{1, 0, 0, 1, -136, 0}";
}
);
layerId = "5521DC30-183F-421A-91F3-644B5E24AFE6";
paths = (
{
closed = 1;
nodes = (
"1127 620 OFFCURVE",
"1207 700 OFFCURVE",
"1207 803 CURVE SMOOTH",
"1207 906 OFFCURVE",
"1127 986 OFFCURVE",
"1026 986 CURVE SMOOTH",
"925 986 OFFCURVE",
"845 906 OFFCURVE",
"845 803 CURVE SMOOTH",
"845 700 OFFCURVE",
"925 620 OFFCURVE",
"1026 620 CURVE SMOOTH"
);
}
);
width = 1238;
}
);
},
{
glyphname = lslash;
lastChange = "2020-07-09 19:00:51 +0000";
layers = (
{
components = (
{
name = l;
}
);
layerId = "5521DC30-183F-421A-91F3-644B5E24AFE6";
paths = (
{
closed = 1;
nodes = (
"420 444 OFFCURVE",
"470 464 OFFCURVE",
"528 505 CURVE SMOOTH",
"887 761 LINE SMOOTH",
"962 815 OFFCURVE",
"1001 870 OFFCURVE",
"1001 924 CURVE SMOOTH",
"1001 988 OFFCURVE",
"947 1051 OFFCURVE",
"875 1051 CURVE SMOOTH",
"831 1051 OFFCURVE",
"781 1031 OFFCURVE",
"724 990 CURVE SMOOTH",
"365 734 LINE SMOOTH",
"290 680 OFFCURVE",
"250 624 OFFCURVE",
"250 570 CURVE SMOOTH",
"250 508 OFFCURVE",
"305 444 OFFCURVE",
"376 444 CURVE SMOOTH"
);
}
);
width = 1238;
},
{
components = (
{
name = l;
}
);
layerId = "BE68D89F-AB3F-4BDF-B332-ED50D7C47704";
paths = (
{
closed = 1;
nodes = (
"448 520 OFFCURVE",
"464 529 OFFCURVE",
"481 546 CURVE SMOOTH",
"775 840 LINE SMOOTH",
"792 857 OFFCURVE",
"801 872 OFFCURVE",
"801 885 CURVE SMOOTH",
"801 899 OFFCURVE",
"790 910 OFFCURVE",
"777 910 CURVE SMOOTH",
"765 910 OFFCURVE",
"749 900 OFFCURVE",
"731 883 CURVE SMOOTH",
"438 589 LINE SMOOTH",
"421 571 OFFCURVE",
"412 556 OFFCURVE",
"412 544 CURVE SMOOTH",
"412 530 OFFCURVE",
"423 520 OFFCURVE",
"435 520 CURVE SMOOTH"
);
}
);
width = 1238;
}
);
leftKerningGroup = lslash;
rightKerningGroup = lslash;
unicode = 0142;
},
{
glyphname = lslash.ss01;
lastChange = "2020-07-17 15:59:26 +0000";
layers = (
{
components = (
{
name = l.ss01;
}
);
layerId = "BE68D89F-AB3F-4BDF-B332-ED50D7C47704";
paths = (
{
closed = 1;
nodes = (
"448 520 OFFCURVE",
"464 529 OFFCURVE",
"481 546 CURVE SMOOTH",
"775 840 LINE SMOOTH",
"792 857 OFFCURVE",
"801 872 OFFCURVE",
"801 885 CURVE SMOOTH",
"801 899 OFFCURVE",
"790 910 OFFCURVE",
"777 910 CURVE SMOOTH",
"765 910 OFFCURVE",
"749 900 OFFCURVE",
"731 883 CURVE SMOOTH",
"438 589 LINE SMOOTH",
"421 571 OFFCURVE",
"412 556 OFFCURVE",
"412 544 CURVE SMOOTH",
"412 530 OFFCURVE",
"423 520 OFFCURVE",
"435 520 CURVE SMOOTH"
);
}
);
width = 1238;
},
{
components = (
{
name = l.ss01;
}
);
layerId = "5521DC30-183F-421A-91F3-644B5E24AFE6";
paths = (
{
closed = 1;
nodes = (
"420 444 OFFCURVE",
"470 464 OFFCURVE",
"528 505 CURVE SMOOTH",
"887 761 LINE SMOOTH",
"962 815 OFFCURVE",
"1001 870 OFFCURVE",
"1001 924 CURVE SMOOTH",
"1001 988 OFFCURVE",
"947 1051 OFFCURVE",
"875 1051 CURVE SMOOTH",
"831 1051 OFFCURVE",
"781 1031 OFFCURVE",
"724 990 CURVE SMOOTH",
"365 734 LINE SMOOTH",
"290 680 OFFCURVE",
"250 624 OFFCURVE",
"250 570 CURVE SMOOTH",
"250 508 OFFCURVE",
"305 444 OFFCURVE",
"376 444 CURVE SMOOTH"
);
}
);
width = 1238;
}
);
},
{
glyphname = m;
lastChange = "2020-11-05 18:41:55 +0000";
layers = (
{
anchors = (
{
name = bottom;
position = "{594, 0}";
},
{
name = top;
position = "{611, 952}";
}
);
layerId = "5521DC30-183F-421A-91F3-644B5E24AFE6";
paths = (
{
closed = 1;
nodes = (
"721 -19 OFFCURVE",
"779 26 OFFCURVE",
"779 162 CURVE SMOOTH",
"779 714 LINE SMOOTH",
"779 891 OFFCURVE",
"747 973 OFFCURVE",
"611 973 CURVE SMOOTH",
"423 973 OFFCURVE",
"326 725 OFFCURVE",
"326 525 CURVE",
"394 539 LINE",
"394 655 OFFCURVE",
"419 672 OFFCURVE",
"443 672 CURVE SMOOTH",
"466 672 OFFCURVE",
"480 651 OFFCURVE",
"480 522 CURVE SMOOTH",
"480 162 LINE SMOOTH",
"480 26 OFFCURVE",
"539 -19 OFFCURVE",
"630 -19 CURVE SMOOTH"
);
},
{
closed = 1;
nodes = (
"332 -19 OFFCURVE",
"394 54 OFFCURVE",
"394 190 CURVE SMOOTH",
"394 762 LINE SMOOTH",
"394 898 OFFCURVE",
"332 971 OFFCURVE",
"218 971 CURVE SMOOTH",
"104 971 OFFCURVE",
"42 898 OFFCURVE",
"42 762 CURVE SMOOTH",
"42 190 LINE SMOOTH",
"42 54 OFFCURVE",
"104 -19 OFFCURVE",
"218 -19 CURVE SMOOTH"
);
},
{
closed = 1;
nodes = (
"1138 -19 OFFCURVE",
"1196 54 OFFCURVE",
"1196 190 CURVE SMOOTH",
"1196 714 LINE SMOOTH",
"1196 891 OFFCURVE",
"1141 973 OFFCURVE",
"1006 973 CURVE SMOOTH",
"827 973 OFFCURVE",
"720 722 OFFCURVE",
"720 522 CURVE",
"779 539 LINE",
"779 649 OFFCURVE",
"804 672 OFFCURVE",
"827 672 CURVE SMOOTH",
"850 672 OFFCURVE",
"865 651 OFFCURVE",
"865 522 CURVE SMOOTH",
"865 190 LINE SMOOTH",
"865 54 OFFCURVE",
"923 -19 OFFCURVE",
"1030 -19 CURVE SMOOTH"
);
}
);
width = 1238;
},
{
anchors = (
{
name = bottom;
position = "{637, 0}";
},
{
name = top;
position = "{602, 952}";
}
);
layerId = "BE68D89F-AB3F-4BDF-B332-ED50D7C47704";
paths = (
{
closed = 1;
nodes = (
"634 -19 OFFCURVE",
"646 -5 OFFCURVE",
"646 32 CURVE SMOOTH",
"646 613 LINE SMOOTH",
"646 867 OFFCURVE",
"589 975 OFFCURVE",
"435 975 CURVE SMOOTH",
"257 975 OFFCURVE",
"150 778 OFFCURVE",
"150 604 CURVE",
"198 600 LINE",
"198 733 OFFCURVE",
"296 912 OFFCURVE",
"427 912 CURVE SMOOTH",
"557 912 OFFCURVE",
"583 817 OFFCURVE",
"583 575 CURVE SMOOTH",
"583 32 LINE SMOOTH",
"583 -5 OFFCURVE",
"594 -19 OFFCURVE",
"614 -19 CURVE SMOOTH"
);
},
{
closed = 1;
nodes = (
"187 -19 OFFCURVE",
"198 -5 OFFCURVE",
"198 32 CURVE SMOOTH",
"198 909 LINE SMOOTH",
"198 946 OFFCURVE",
"187 962 OFFCURVE",
"167 962 CURVE SMOOTH",
"147 962 OFFCURVE",
"135 946 OFFCURVE",
"135 909 CURVE SMOOTH",
"135 32 LINE SMOOTH",
"135 -5 OFFCURVE",
"147 -19 OFFCURVE",
"167 -19 CURVE SMOOTH"
);
},
{
closed = 1;
nodes = (
"1082 -19 OFFCURVE",
"1093 -5 OFFCURVE",
"1093 32 CURVE SMOOTH",
"1093 613 LINE SMOOTH",
"1093 867 OFFCURVE",
"1037 975 OFFCURVE",
"882 975 CURVE SMOOTH",
"704 975 OFFCURVE",
"598 778 OFFCURVE",
"598 604 CURVE",
"646 572 LINE",
"646 730 OFFCURVE",
"743 912 OFFCURVE",
"875 912 CURVE SMOOTH",
"1004 912 OFFCURVE",
"1030 817 OFFCURVE",
"1030 575 CURVE SMOOTH",
"1030 32 LINE SMOOTH",
"1030 -5 OFFCURVE",
"1042 -19 OFFCURVE",
"1062 -19 CURVE SMOOTH"
);
}
);
width = 1238;
},
{
anchors = (
{
name = bottom;
position = "{639, 0}";
},
{
name = top;
position = "{643, 952}";
}
);
associatedMasterId = "BE68D89F-AB3F-4BDF-B332-ED50D7C47704";
layerId = "23AEAA43-96E0-413D-9E4D-35D9F764C950";
name = "{500}";
paths = (
{
closed = 1;
nodes = (
"681 -19 OFFCURVE",
"725 10 OFFCURVE",
"725 97 CURVE SMOOTH",
"725 664 LINE SMOOTH",
"725 879 OFFCURVE",
"656 974 OFFCURVE",
"511 974 CURVE SMOOTH",
"318 974 OFFCURVE",
"208 776 OFFCURVE",
"208 590 CURVE",
"304 566 LINE",
"304 705 OFFCURVE",
"357 788 OFFCURVE",
"426 788 CURVE SMOOTH",
"502 788 OFFCURVE",
"525 749 OFFCURVE",
"525 549 CURVE SMOOTH",
"525 97 LINE SMOOTH",
"525 10 OFFCURVE",
"570 -19 OFFCURVE",
"625 -19 CURVE SMOOTH"
);
},
{
closed = 1;
nodes = (
"268 -19 OFFCURVE",
"304 25 OFFCURVE",
"304 111 CURVE SMOOTH",
"304 835 LINE SMOOTH",
"304 922 OFFCURVE",
"268 967 OFFCURVE",
"200 967 CURVE SMOOTH",
"133 967 OFFCURVE",
"96 922 OFFCURVE",
"96 835 CURVE SMOOTH",
"96 111 LINE SMOOTH",
"96 25 OFFCURVE",
"133 -19 OFFCURVE",
"200 -19 CURVE SMOOTH"
);
},
{
closed = 1;
nodes = (
"1109 -19 OFFCURVE",
"1143 25 OFFCURVE",
"1143 111 CURVE SMOOTH",
"1143 664 LINE SMOOTH",
"1143 879 OFFCURVE",
"1072 974 OFFCURVE",
"928 974 CURVE SMOOTH",
"739 974 OFFCURVE",
"633 774 OFFCURVE",
"633 588 CURVE",
"725 551 LINE",
"725 700 OFFCURVE",
"778 788 OFFCURVE",
"847 788 CURVE SMOOTH",
"923 788 OFFCURVE",
"946 749 OFFCURVE",
"946 549 CURVE SMOOTH",
"946 111 LINE SMOOTH",
"946 25 OFFCURVE",
"981 -19 OFFCURVE",
"1045 -19 CURVE SMOOTH"
);
}
);
width = 1238;
}
);
leftKerningGroup = n;
rightKerningGroup = n;
unicode = 006D;
},
{
glyphname = m.ss01;
lastChange = "2020-07-09 19:01:03 +0000";
layers = (
{
anchors = (
{
name = bottom;
position = "{619, 0}";
},
{
name = top;
position = "{636, 952}";
}
);
layerId = "5521DC30-183F-421A-91F3-644B5E24AFE6";
paths = (
{
closed = 1;
nodes = (
"216 962 OFFCURVE",
"128 897 OFFCURVE",
"107 766 CURVE SMOOTH",
"95 694 OFFCURVE",
"40 207 OFFCURVE",
"40 170 CURVE SMOOTH",
"40 53 OFFCURVE",
"111 -19 OFFCURVE",
"220 -19 CURVE SMOOTH",
"343 -19 OFFCURVE",
"405 63 OFFCURVE",
"405 200 CURVE SMOOTH",
"405 771 LINE",
"384 771 LINE",
"462 313 LINE SMOOTH",
"487 168 OFFCURVE",
"537 124 OFFCURVE",
"619 124 CURVE SMOOTH",
"701 124 OFFCURVE",
"750 168 OFFCURVE",
"776 313 CURVE SMOOTH",
"847 720 LINE",
"833 722 LINE",
"833 200 LINE SMOOTH",
"833 63 OFFCURVE",
"896 -19 OFFCURVE",
"1019 -19 CURVE SMOOTH",
"1127 -19 OFFCURVE",
"1198 53 OFFCURVE",
"1198 170 CURVE SMOOTH",
"1198 208 OFFCURVE",
"1143 674 OFFCURVE",
"1131 766 CURVE SMOOTH",
"1115 896 OFFCURVE",
"1031 962 OFFCURVE",
"901 962 CURVE SMOOTH",
"745 962 OFFCURVE",
"673 905 OFFCURVE",
"652 767 CURVE SMOOTH",
"603 435 LINE",
"637 435 LINE",
"586 767 LINE SMOOTH",
"564 908 OFFCURVE",
"500 962 OFFCURVE",
"347 962 CURVE SMOOTH"
);
}
);
width = 1238;
},
{
anchors = (
{
name = bottom;
position = "{619, 0}";
},
{
name = top;
position = "{619, 952}";
}
);
layerId = "BE68D89F-AB3F-4BDF-B332-ED50D7C47704";
paths = (
{
closed = 1;
nodes = (
"281 971 OFFCURVE",
"256 960 OFFCURVE",
"250 918 CURVE SMOOTH",
"246 885 OFFCURVE",
"135 60 OFFCURVE",
"135 32 CURVE SMOOTH",
"135 5 OFFCURVE",
"145 -10 OFFCURVE",
"167 -10 CURVE SMOOTH",
"189 -10 OFFCURVE",
"197 5 OFFCURVE",
"202 40 CURVE SMOOTH",
"320 936 LINE",
"310 943 LINE",
"555 170 LINE SMOOTH",
"566 138 OFFCURVE",
"587 124 OFFCURVE",
"619 124 CURVE SMOOTH",
"651 124 OFFCURVE",
"672 138 OFFCURVE",
"683 170 CURVE SMOOTH",
"924 932 LINE",
"917 944 LINE",
"1036 40 LINE SMOOTH",
"1041 5 OFFCURVE",
"1051 -10 OFFCURVE",
"1073 -10 CURVE SMOOTH",
"1094 -10 OFFCURVE",
"1103 4 OFFCURVE",
"1103 30 CURVE SMOOTH",
"1103 64 OFFCURVE",
"995 862 OFFCURVE",
"988 918 CURVE SMOOTH",
"982 961 OFFCURVE",
"957 971 OFFCURVE",
"922 971 CURVE SMOOTH",
"880 971 OFFCURVE",
"862 960 OFFCURVE",
"850 924 CURVE SMOOTH",
"610 148 LINE",
"628 148 LINE",
"388 924 LINE SMOOTH",
"376 962 OFFCURVE",
"354 971 OFFCURVE",
"316 971 CURVE SMOOTH"
);
}
);
width = 1238;
},
{
anchors = (
{
name = bottom;
position = "{619, 0}";
},
{
name = top;
position = "{628, 952}";
}
);
associatedMasterId = "BE68D89F-AB3F-4BDF-B332-ED50D7C47704";
layerId = "B92ED0B0-58DB-4938-A4CB-6D636D6FD3B9";
name = "{500}";
paths = (
{
closed = 1;
nodes = (
"249 967 OFFCURVE",
"193 929 OFFCURVE",
"179 842 CURVE SMOOTH",
"170 790 OFFCURVE",
"88 133 OFFCURVE",
"88 102 CURVE SMOOTH",
"88 30 OFFCURVE",
"129 -14 OFFCURVE",
"193 -14 CURVE SMOOTH",
"266 -14 OFFCURVE",
"297 34 OFFCURVE",
"304 120 CURVE SMOOTH",
"363 854 LINE",
"319 857 LINE",
"480 242 LINE SMOOTH",
"503 154 OFFCURVE",
"562 124 OFFCURVE",
"619 124 CURVE SMOOTH",
"676 124 OFFCURVE",
"734 154 OFFCURVE",
"758 242 CURVE SMOOTH",
"914 827 LINE",
"875 833 LINE",
"935 120 LINE SMOOTH",
"943 34 OFFCURVE",
"974 -14 OFFCURVE",
"1047 -14 CURVE SMOOTH",
"1110 -14 OFFCURVE",
"1150 29 OFFCURVE",
"1150 101 CURVE SMOOTH",
"1150 136 OFFCURVE",
"1070 769 OFFCURVE",
"1060 842 CURVE SMOOTH",
"1049 929 OFFCURVE",
"994 967 OFFCURVE",
"911 967 CURVE SMOOTH",
"812 967 OFFCURVE",
"763 931 OFFCURVE",
"742 846 CURVE SMOOTH",
"607 291 LINE",
"632 291 LINE",
"496 846 LINE SMOOTH",
"474 933 OFFCURVE",
"428 967 OFFCURVE",
"331 967 CURVE SMOOTH"
);
}
);
width = 1238;
}
);
leftKerningGroup = n;
rightKerningGroup = n;
},
{
glyphname = n;
lastChange = "2020-11-24 22:05:50 +0000";
layers = (
{
anchors = (
{
name = bottom;
position = "{627, 0}";
},
{
name = top;
position = "{623, 952}";
}
);
layerId = "5521DC30-183F-421A-91F3-644B5E24AFE6";
paths = (
{
closed = 1;
nodes = (
"1052 -10 OFFCURVE",
"1119 64 OFFCURVE",
"1119 200 CURVE SMOOTH",
"1119 562 LINE SMOOTH",
"1119 872 OFFCURVE",
"970 973 OFFCURVE",
"766 973 CURVE SMOOTH",
"524 973 OFFCURVE",
"414 753 OFFCURVE",
"414 569 CURVE SMOOTH",
"414 522 OFFCURVE",
"439 491 OFFCURVE",
"457 491 CURVE SMOOTH",
"479 491 OFFCURVE",
"508 505 OFFCURVE",
"508 529 CURVE SMOOTH",
"508 630 OFFCURVE",
"550 701 OFFCURVE",
"628 701 CURVE SMOOTH",
"708 701 OFFCURVE",
"738 632 OFFCURVE",
"738 507 CURVE SMOOTH",
"738 200 LINE SMOOTH",
"738 64 OFFCURVE",
"805 -10 OFFCURVE",
"929 -10 CURVE SMOOTH"
);
},
{
closed = 1;
nodes = (
"441 -10 OFFCURVE",
"508 64 OFFCURVE",
"508 200 CURVE SMOOTH",
"508 760 LINE SMOOTH",
"508 896 OFFCURVE",
"441 970 OFFCURVE",
"317 970 CURVE SMOOTH",
"193 970 OFFCURVE",
"127 896 OFFCURVE",
"127 760 CURVE SMOOTH",
"127 200 LINE SMOOTH",
"127 64 OFFCURVE",
"193 -10 OFFCURVE",
"317 -10 CURVE SMOOTH"
);
}
);
width = 1238;
},
{
anchors = (
{
name = bottom;
position = "{615, 0}";
},
{
name = top;
position = "{630, 952}";
}
);
layerId = "BE68D89F-AB3F-4BDF-B332-ED50D7C47704";
paths = (
{
closed = 1;
nodes = (
"989 -10 OFFCURVE",
"1000 10 OFFCURVE",
"1000 48 CURVE SMOOTH",
"1000 548 LINE SMOOTH",
"1000 838 OFFCURVE",
"891 975 OFFCURVE",
"679 975 CURVE SMOOTH",
"445 975 OFFCURVE",
"263 769 OFFCURVE",
"263 585 CURVE SMOOTH",
"263 548 OFFCURVE",
"277 535 OFFCURVE",
"296 535 CURVE SMOOTH",
"316 535 OFFCURVE",
"322 545 OFFCURVE",
"322 580 CURVE SMOOTH",
"322 738 OFFCURVE",
"498 912 OFFCURVE",
"672 912 CURVE SMOOTH",
"858 912 OFFCURVE",
"937 794 OFFCURVE",
"937 538 CURVE SMOOTH",
"937 48 LINE SMOOTH",
"937 10 OFFCURVE",
"949 -10 OFFCURVE",
"969 -10 CURVE SMOOTH"
);
},
{
closed = 1;
nodes = (
"310 -10 OFFCURVE",
"322 10 OFFCURVE",
"322 48 CURVE SMOOTH",
"322 913 LINE SMOOTH",
"322 950 OFFCURVE",
"310 970 OFFCURVE",
"290 970 CURVE SMOOTH",
"270 970 OFFCURVE",
"259 950 OFFCURVE",
"259 913 CURVE SMOOTH",
"259 48 LINE SMOOTH",
"259 10 OFFCURVE",
"270 -10 OFFCURVE",
"290 -10 CURVE SMOOTH"
);
}
);
width = 1238;
}
);
leftKerningGroup = n;
rightKerningGroup = n;
unicode = 006E;
},
{
glyphname = eng;
lastChange = "2020-07-09 19:00:51 +0000";
layers = (
{
components = (
{
name = n;
}
);
layerId = "5521DC30-183F-421A-91F3-644B5E24AFE6";
paths = (
{
closed = 1;
nodes = (
"835 -413 OFFCURVE",
"1119 -306 OFFCURVE",
"1119 210 CURVE",
"738 210 LINE",
"738 -68 OFFCURVE",
"731 -149 OFFCURVE",
"663 -149 CURVE SMOOTH",
"646 -149 OFFCURVE",
"630 -146 OFFCURVE",
"614 -141 CURVE SMOOTH",
"598 -136 OFFCURVE",
"583 -132 OFFCURVE",
"567 -132 CURVE SMOOTH",
"490 -132 OFFCURVE",
"444 -185 OFFCURVE",
"444 -258 CURVE SMOOTH",
"444 -327 OFFCURVE",
"498 -373 OFFCURVE",
"544 -394 CURVE SMOOTH",
"573 -408 OFFCURVE",
"618 -413 OFFCURVE",
"647 -413 CURVE SMOOTH"
);
}
);
width = 1238;
},
{
components = (
{
name = n;
}
);
layerId = "BE68D89F-AB3F-4BDF-B332-ED50D7C47704";
paths = (
{
closed = 1;
nodes = (
"847 -366 OFFCURVE",
"1000 -267 OFFCURVE",
"1000 57 CURVE",
"937 57 LINE",
"937 -197 OFFCURVE",
"837 -303 OFFCURVE",
"696 -303 CURVE SMOOTH",
"660 -303 OFFCURVE",
"624 -296 OFFCURVE",
"595 -288 CURVE SMOOTH",
"581 -284 OFFCURVE",
"570 -281 OFFCURVE",
"559 -281 CURVE SMOOTH",
"541 -281 OFFCURVE",
"528 -292 OFFCURVE",
"528 -310 CURVE SMOOTH",
"528 -326 OFFCURVE",
"543 -340 OFFCURVE",
"572 -349 CURVE SMOOTH",
"607 -358 OFFCURVE",
"650 -366 OFFCURVE",
"702 -366 CURVE SMOOTH"
);
}
);
width = 1238;
}
);
leftKerningGroup = n;
rightKerningGroup = j;
unicode = 014B;
},
{
glyphname = o;
lastChange = "2020-07-09 19:57:59 +0000";
layers = (
{
anchors = (
{
name = bottom;
position = "{619, 0}";
},
{
name = center;
position = "{619, 476}";
},
{
name = ogonek;
position = "{778, 0}";
},
{
name = top;
position = "{613, 952}";
},
{
name = topright;
position = "{837, 885}";
}
);
layerId = "5521DC30-183F-421A-91F3-644B5E24AFE6";
paths = (
{
closed = 1;
nodes = (
"872 -21 OFFCURVE",
"1164 120 OFFCURVE",
"1164 478 CURVE SMOOTH",
"1164 834 OFFCURVE",
"872 975 OFFCURVE",
"621 975 CURVE SMOOTH",
"368 975 OFFCURVE",
"76 834 OFFCURVE",
"76 478 CURVE SMOOTH",
"76 120 OFFCURVE",
"368 -21 OFFCURVE",
"621 -21 CURVE SMOOTH"
);
},
{
closed = 1;
nodes = (
"524 245 OFFCURVE",
"459 321 OFFCURVE",
"459 478 CURVE SMOOTH",
"459 635 OFFCURVE",
"524 710 OFFCURVE",
"621 710 CURVE SMOOTH",
"716 710 OFFCURVE",
"781 635 OFFCURVE",
"781 478 CURVE SMOOTH",
"781 321 OFFCURVE",
"716 245 OFFCURVE",
"621 245 CURVE SMOOTH"
);
}
);
width = 1238;
},
{
anchors = (
{
name = bottom;
position = "{614, 0}";
},
{
name = center;
position = "{614, 476}";
},
{
name = ogonek;
position = "{620, 0}";
},
{
name = top;
position = "{614, 952}";
},
{
name = topright;
position = "{846, 904}";
}
);
layerId = "BE68D89F-AB3F-4BDF-B332-ED50D7C47704";
paths = (
{
closed = 1;
nodes = (
"841 -21 OFFCURVE",
"1083 130 OFFCURVE",
"1083 478 CURVE SMOOTH",
"1083 825 OFFCURVE",
"841 975 OFFCURVE",
"620 975 CURVE SMOOTH",
"397 975 OFFCURVE",
"155 825 OFFCURVE",
"155 478 CURVE SMOOTH",
"155 130 OFFCURVE",
"397 -21 OFFCURVE",
"620 -21 CURVE SMOOTH"
);
},
{
closed = 1;
nodes = (
"443 42 OFFCURVE",
"222 156 OFFCURVE",
"222 478 CURVE SMOOTH",
"222 794 OFFCURVE",
"443 912 OFFCURVE",
"620 912 CURVE SMOOTH",
"795 912 OFFCURVE",
"1016 794 OFFCURVE",
"1016 478 CURVE SMOOTH",
"1016 156 OFFCURVE",
"795 42 OFFCURVE",
"620 42 CURVE SMOOTH"
);
}
);
width = 1238;
}
);
leftKerningGroup = o;
rightKerningGroup = o;
unicode = 006F;
},
{
glyphname = ohorn;
lastChange = "2020-07-09 19:00:51 +0000";
layers = (
{
anchors = (
{
name = bottom;
position = "{614, 0}";
},
{
name = center;
position = "{614, 476}";
},
{
name = ogonek;
position = "{620, 0}";
},
{
name = top;
position = "{614, 952}";
},
{
name = topright;
position = "{846, 904}";
}
);
components = (
{
name = horncomb;
transform = "{1, 0, 0, 1, 439, -49}";
}
);
layerId = "BE68D89F-AB3F-4BDF-B332-ED50D7C47704";
paths = (
{
closed = 1;
nodes = (
"841 -21 OFFCURVE",
"1083 130 OFFCURVE",
"1083 478 CURVE SMOOTH",
"1083 825 OFFCURVE",
"841 975 OFFCURVE",
"620 975 CURVE SMOOTH",
"397 975 OFFCURVE",
"155 825 OFFCURVE",
"155 478 CURVE SMOOTH",
"155 130 OFFCURVE",
"397 -21 OFFCURVE",
"620 -21 CURVE SMOOTH"
);
},
{
closed = 1;
nodes = (
"443 42 OFFCURVE",
"222 156 OFFCURVE",
"222 478 CURVE SMOOTH",
"222 794 OFFCURVE",
"443 912 OFFCURVE",
"620 912 CURVE SMOOTH",
"795 912 OFFCURVE",
"1016 794 OFFCURVE",
"1016 478 CURVE SMOOTH",
"1016 156 OFFCURVE",
"795 42 OFFCURVE",
"620 42 CURVE SMOOTH"
);
}
);
width = 1238;
},
{
anchors = (
{
name = bottom;
position = "{619, 0}";
},
{
name = center;
position = "{619, 476}";
},
{
name = ogonek;
position = "{606, 0}";
},
{
name = top;
position = "{613, 952}";
},
{
name = topright;
position = "{837, 885}";
}
);
components = (
{
name = horncomb;
transform = "{1, 0, 0, 1, 430, -68}";
}
);
layerId = "5521DC30-183F-421A-91F3-644B5E24AFE6";
paths = (
{
closed = 1;
nodes = (
"872 -21 OFFCURVE",
"1164 120 OFFCURVE",
"1164 478 CURVE SMOOTH",
"1164 834 OFFCURVE",
"872 975 OFFCURVE",
"621 975 CURVE SMOOTH",
"368 975 OFFCURVE",
"76 834 OFFCURVE",
"76 478 CURVE SMOOTH",
"76 120 OFFCURVE",
"368 -21 OFFCURVE",
"621 -21 CURVE SMOOTH"
);
},
{
closed = 1;
nodes = (
"524 245 OFFCURVE",
"459 321 OFFCURVE",
"459 478 CURVE SMOOTH",
"459 635 OFFCURVE",
"524 710 OFFCURVE",
"621 710 CURVE SMOOTH",
"716 710 OFFCURVE",
"781 635 OFFCURVE",
"781 478 CURVE SMOOTH",
"781 321 OFFCURVE",
"716 245 OFFCURVE",
"621 245 CURVE SMOOTH"
);
}
);
width = 1238;
}
);
unicode = 01A1;
},
